<?xml version="1.0" standalone="no"?>
<!DOCTYPE svg PUBLIC "-//W3C//DTD SVG 1.1//EN" "http://www.w3.org/Graphics/SVG/1.1/DTD/svg11.dtd" >
<svg>
<metadata>
Created by FontForge 20120731 at Mon Jul  1 14:48:50 2019
 By www
Copyright (c) 2010 by Rui Abreu, Portugal. All rights reserved.
</metadata>
<defs>
<font id="GestaW01-Bold" horiz-adv-x="507" >
  <font-face 
    font-family="GestaW01-Bold"
    font-weight="700"
    font-stretch="normal"
    units-per-em="1000"
    panose-1="2 0 0 0 0 0 0 0 0 0"
    ascent="800"
    descent="-200"
    x-height="462"
    cap-height="644"
    bbox="-19 -202 1071 873"
    underline-thickness="50"
    underline-position="-125"
    unicode-range="U+000D-2122"
  />
<missing-glyph horiz-adv-x="524" 
d="M78 644h370v-644h-370v644zM394 46v552h-264v-552h264z" />
    <glyph glyph-name=".notdef" horiz-adv-x="524" 
d="M78 644h370v-644h-370v644zM394 46v552h-264v-552h264z" />
    <glyph glyph-name="glyph1" horiz-adv-x="0" 
 />
    <glyph glyph-name="glyph1" horiz-adv-x="0" 
 />
    <glyph glyph-name="uni000D" unicode="&#xd;" horiz-adv-x="251" 
 />
    <glyph glyph-name="space" unicode=" " horiz-adv-x="251" 
 />
    <glyph glyph-name="exclam" unicode="!" horiz-adv-x="265" 
d="M65 644h135l-30 -447h-75zM76 116h113v-116h-113v116z" />
    <glyph glyph-name="quotedbl" unicode="&#x22;" horiz-adv-x="336" 
d="M71 444q-10 32 -19 90t-10 124h107q-1 -66 -10 -124t-19 -90h-49zM216 444q-10 32 -19 90t-10 124h107q-1 -66 -10 -124t-19 -90h-49z" />
    <glyph glyph-name="numbersign" unicode="#" horiz-adv-x="566" 
d="M123 188h-83l13 75h83l22 118h-83l13 75h83l34 188h76l-34 -188h120l34 188h76l-34 -188h83l-13 -75h-83l-22 -118h83l-13 -75h-83l-34 -188h-76l34 188h-120l-34 -188h-76zM332 263l22 118h-120l-22 -118h120z" />
    <glyph glyph-name="dollar" unicode="$" horiz-adv-x="531" 
d="M93 157q30 -5 71 -10t76 -5q106 0 106 60q0 15 -7 24.5t-22 18t-37.5 16.5t-53.5 19q-32 12 -60 25t-48 32t-31.5 44t-11.5 61q0 63 38 104.5t113 55.5v102h88v-96q31 -2 63 -6t64 -10l-15 -106q-29 5 -66 10t-68 5q-41 0 -67 -11.5t-26 -39.5q0 -17 9.5 -27.5t26 -18.5
t39 -15t48.5 -17q31 -11 58 -24.5t47 -33t31.5 -45.5t11.5 -63q0 -65 -38 -108t-118 -57v-99h-88v93q-36 1 -75 4.5t-73 11.5z" />
    <glyph glyph-name="percent" unicode="%" horiz-adv-x="768" 
d="M185 336q-75 0 -111 44t-36 115t36 115t111 44t111 -44t36 -115t-36 -115t-111 -44zM185 413q35 0 45.5 22t10.5 58t-10.5 60t-45.5 24t-45.5 -22t-10.5 -58t10.5 -60t45.5 -24zM544 644h82l-402 -644h-82zM583 308q75 0 111 -44t36 -115t-36 -115t-111 -44t-111 44
t-36 115t36 115t111 44zM583 231q-35 0 -45.5 -22t-10.5 -58t10.5 -60t45.5 -24t45.5 22t10.5 58t-10.5 60t-45.5 24z" />
    <glyph glyph-name="ampersand" unicode="&#x26;" horiz-adv-x="632" 
d="M62 177q0 64 29 100t74 53v5q-43 15 -67 48t-24 89q0 47 17.5 81.5t49.5 57t76.5 33t98.5 10.5q44 0 86 -5.5t80 -12.5l-16 -107q-33 5 -74 10t-76 5q-53 0 -82.5 -16.5t-29.5 -63.5q0 -46 29 -63t80 -17h295v-105h-92q7 -20 11 -45t4 -51q0 -97 -62 -145t-172 -48
q-113 0 -174 48t-61 139zM192 189q0 -48 24 -68.5t81 -20.5q60 0 87 22t27 73q0 21 -4 42.5t-11 41.5h-87q-63 0 -90 -19.5t-27 -70.5z" />
    <glyph glyph-name="quotesingle" unicode="'" horiz-adv-x="191" 
d="M71 444q-10 32 -19 90t-10 124h107q-1 -66 -10 -124t-19 -90h-49v0z" />
    <glyph glyph-name="parenleft" unicode="(" horiz-adv-x="285" 
d="M57 244q0 75 13 139.5t33.5 118t46 97.5t51.5 79l62 -33q-44 -69 -75 -171t-31 -230t31 -230t75 -171l-62 -33q-26 35 -51.5 79t-46 97.5t-33.5 118t-13 139.5z" />
    <glyph glyph-name="parenright" unicode=")" horiz-adv-x="285" 
d="M22 -157q44 69 75 171t31 230t-31 230t-75 171l62 33q26 -35 51.5 -79t46 -97.5t33.5 -118t13 -139.5t-13 -139.5t-33.5 -118t-46 -97.5t-51.5 -79l-62 33v0z" />
    <glyph glyph-name="asterisk" unicode="*" horiz-adv-x="349" 
d="M146 458l-76 -44l-28 49l76 44l-76 44l28 49l76 -44v88h57v-88l76 44l28 -49l-76 -44l76 -44l-28 -49l-76 44v-88h-57v88z" />
    <glyph glyph-name="plus" unicode="+" horiz-adv-x="588" 
d="M64 278h181v184h98v-184h181v-94h-181v-184h-98v184h-181v94z" />
    <glyph glyph-name="comma" unicode="," horiz-adv-x="230" 
d="M73 1q0 50 -11 102l111 6q2 -9 2 -18v-18q0 -56 -19 -106t-46 -88l-53 5q8 29 12 58.5t4 58.5z" />
    <glyph glyph-name="hyphen" unicode="-" horiz-adv-x="288" 
d="M32 293h224v-88h-224v88z" />
    <glyph glyph-name="period" unicode="." horiz-adv-x="230" 
d="M58 116h114v-116h-114v116z" />
    <glyph glyph-name="slash" unicode="/" horiz-adv-x="393" 
d="M281 664h100l-269 -684h-100z" />
    <glyph glyph-name="zero" unicode="0" horiz-adv-x="572" 
d="M285 -10q-70 0 -116.5 20t-74.5 61.5t-39.5 104t-11.5 147.5t11.5 147t39.5 103t74.5 61t116.5 20t116.5 -20t74.5 -61t40 -103t12 -147t-12 -147.5t-40 -104t-74.5 -61.5t-116.5 -20zM285 100q42 0 65 15.5t34.5 44.5t13.5 70t2 93t-2 93t-13.5 69.5t-34.5 43.5t-65 15
t-65 -15t-34 -43.5t-13 -69.5t-2 -93t2 -93t13 -70t34 -44.5t65 -15.5z" />
    <glyph glyph-name="one" unicode="1" horiz-adv-x="387" 
d="M173 513l-124 -49l-43 87l183 93h110v-644h-126v513z" />
    <glyph glyph-name="two" unicode="2" horiz-adv-x="519" 
d="M55 94q76 64 129.5 116.5t87.5 96t49.5 79t15.5 66.5q0 42 -26.5 67t-83.5 25q-38 0 -76.5 -10t-67.5 -21l-35 100q38 17 87 29t100 12q49 0 91.5 -13t73 -38t48 -62.5t17.5 -85.5q0 -50 -18.5 -95.5t-49.5 -87.5t-70.5 -81t-82.5 -77l1 -4h228v-110h-418v94z" />
    <glyph glyph-name="three" unicode="3" horiz-adv-x="484" 
d="M44 116q15 -3 34.5 -5.5t41 -5t43 -4t40.5 -1.5q58 0 86 19t28 70q0 45 -23 65.5t-74 20.5h-76v106h70q48 0 69.5 18.5t21.5 59.5q0 45 -24 64.5t-69 19.5q-34 0 -72 -8.5t-67 -18.5l-35 101q40 17 83 27t92 10q104 0 162 -47t58 -131q0 -57 -25 -89t-63 -46v-4
q45 -15 72.5 -51t27.5 -102q0 -96 -62.5 -145t-178.5 -49q-42 0 -90 5.5t-86 13.5z" />
    <glyph glyph-name="four" unicode="4" horiz-adv-x="545" 
d="M22 221q59 115 119.5 217.5t124.5 205.5h128q-62 -99 -120.5 -197.5t-115.5 -208.5h153l10 117h114v-117h94v-110h-94v-128h-124v128h-289v93z" />
    <glyph glyph-name="five" unicode="5" horiz-adv-x="519" 
d="M66 113q28 -4 71.5 -8.5t84.5 -4.5q66 0 98 20t32 78q0 52 -27.5 73.5t-90.5 21.5h-165l12 351h360v-110h-239l-4 -133h35q60 0 106 -10.5t77.5 -34.5t47.5 -62t16 -93q0 -111 -66.5 -161t-193.5 -50q-43 0 -85.5 4.5t-81.5 10.5z" />
    <glyph glyph-name="six" unicode="6" horiz-adv-x="540" 
d="M280 -10q-122 0 -179.5 78t-57.5 242q0 76 13 139t44 108.5t83 71t129 25.5q39 0 76 -5.5t71 -13.5l-18 -107q-29 5 -64.5 10.5t-64.5 5.5q-38 0 -64 -11.5t-42.5 -33t-24.5 -52.5t-10 -71q32 15 66 21.5t67 6.5q100 0 152.5 -52.5t52.5 -145.5q0 -49 -15 -88.5t-44 -68
t-71.5 -44t-98.5 -15.5zM285 100q47 0 71.5 26t24.5 75q0 99 -105 99q-20 0 -48 -4.5t-57 -15.5q1 -41 7 -74t18.5 -56.5t34 -36.5t54.5 -13z" />
    <glyph glyph-name="seven" unicode="7" horiz-adv-x="472" 
d="M107 0q61 139 116.5 275t100.5 259h-295v110h432v-70q-17 -50 -41.5 -116.5t-54.5 -142.5t-63 -156.5t-66 -158.5h-129v0z" />
    <glyph glyph-name="eight" unicode="8" horiz-adv-x="548" 
d="M42 180q0 33 8.5 58t23 43.5t32.5 31t38 19.5v4q-16 5 -32.5 16.5t-29.5 28.5t-21 39.5t-8 51.5q0 38 13 71t40 58t69 39t99 14t99 -14t69 -39t40 -58t13 -71q0 -29 -8 -51.5t-21 -39.5t-29.5 -28.5t-32.5 -16.5v-4q19 -7 37.5 -19.5t33 -31t23 -43.5t8.5 -58
q0 -91 -57 -140.5t-175 -49.5t-175 49.5t-57 140.5zM274 385q43 0 68 17t25 61q0 45 -24 62.5t-69 17.5t-69 -17.5t-24 -62.5q0 -44 25 -61t68 -17zM170 190q0 -48 26.5 -68.5t77.5 -20.5t77.5 20.5t26.5 68.5q0 46 -26.5 67.5t-77.5 21.5t-77.5 -21.5t-26.5 -67.5z" />
    <glyph glyph-name="nine" unicode="9" horiz-adv-x="541" 
d="M97 115q29 -6 62.5 -10.5t61.5 -4.5q41 0 68 11t44 32t25 52t10 71q-32 -15 -66 -20.5t-63 -5.5q-103 0 -155 52t-52 145q0 49 15 89t44 68.5t72 44t99 15.5q125 0 180 -80.5t55 -243.5q0 -80 -13.5 -143t-45.5 -106.5t-84.5 -67t-131.5 -23.5q-39 0 -75.5 5t-69.5 13z
M265 344q19 0 46.5 4t56.5 15q-3 87 -26.5 134t-86.5 47q-44 0 -69.5 -24.5t-25.5 -77.5q0 -50 25.5 -74t79.5 -24z" />
    <glyph glyph-name="colon" unicode=":" horiz-adv-x="230" 
d="M58 116h114v-116h-114v116zM58 462h114v-116h-114v116z" />
    <glyph glyph-name="semicolon" unicode=";" horiz-adv-x="230" 
d="M73 1q0 50 -11 102l111 6q2 -9 2 -18v-18q0 -56 -19 -106t-46 -88l-53 5q8 29 12 58.5t4 58.5zM58 462h114v-116h-114v116z" />
    <glyph glyph-name="less" unicode="&#x3c;" horiz-adv-x="588" 
d="M64 266l460 202v-112l-292 -123v-4l292 -123v-112l-460 202v70z" />
    <glyph glyph-name="equal" unicode="=" horiz-adv-x="588" 
d="M64 362h460v-94h-460v94zM64 194h460v-94h-460v94z" />
    <glyph glyph-name="greater" unicode="&#x3e;" horiz-adv-x="588" 
d="M64 106l292 123v4l-292 123v112l460 -202v-70l-460 -202v112z" />
    <glyph glyph-name="question" unicode="?" horiz-adv-x="448" 
d="M142 197q0 35 4 60t12 45.5t21.5 37.5t33.5 35q26 24 46.5 46t20.5 57q0 34 -21.5 50t-58.5 16q-34 0 -71 -11.5t-69 -26.5l-41 97q46 24 94.5 37.5t94.5 13.5q42 0 78 -11.5t62.5 -34t41 -55t14.5 -73.5q0 -30 -8 -54t-21.5 -44t-31.5 -38t-39 -37q-15 -14 -25.5 -25.5
t-17 -24t-9.5 -27t-3 -33.5h-107zM139 116h113v-116h-113v116z" />
    <glyph glyph-name="at" unicode="@" horiz-adv-x="747" 
d="M41 322q0 83 23.5 145t67 103.5t105.5 62.5t138 21t137.5 -22t104.5 -63.5t66 -101.5t23 -136q0 -40 -10 -75t-29.5 -60.5t-50 -40t-70.5 -14.5q-61 0 -94 36q-17 -14 -44.5 -25t-57.5 -11q-66 0 -100 46.5t-34 131.5q0 98 41 141t118 43q35 0 69 -8.5t64 -20.5v-196
q0 -28 12 -44.5t36 -16.5q14 0 26.5 5t22 18t15 34.5t5.5 54.5q0 121 -65 186t-186 65q-120 0 -186 -64t-66 -194t66.5 -194t185.5 -64q47 0 84 8t66 16l23 -71q-35 -12 -79.5 -19.5t-92.5 -7.5q-76 0 -138 20.5t-105.5 62t-67 104t-23.5 145.5zM370 220q13 0 27 3.5
t25 11.5q-4 17 -4 41v145q-23 5 -42 5q-35 0 -51 -21.5t-16 -80.5t14.5 -81.5t46.5 -22.5z" />
    <glyph glyph-name="A" unicode="A" horiz-adv-x="592" 
d="M16 0q21 81 44.5 164.5t48.5 166t51.5 162t52.5 151.5h166q26 -72 52.5 -151.5t51.5 -162t48.5 -166t44.5 -164.5h-129l-35 138h-234l-35 -138h-127zM382 246q-20 75 -42 146.5t-43 136.5h-4q-21 -65 -43 -136.5t-43 -146.5h175z" />
    <glyph glyph-name="B" unicode="B" horiz-adv-x="579" 
d="M75 637q46 7 102 12t100 5q55 0 100 -10t77 -31t50 -54t18 -80q0 -57 -25 -90t-66 -48v-4q55 -17 80.5 -54t25.5 -100q0 -53 -17.5 -89.5t-51 -59.5t-81.5 -33.5t-109 -10.5q-21 0 -46.5 1t-52.5 3t-54 5t-50 6v632zM297 379q48 0 72.5 18t24.5 64q0 26 -8.5 42.5
t-23.5 25.5t-37 12t-49 3q-15 0 -34 -1t-41 -3v-161h96zM201 103q23 -2 43 -3t36 -1q30 0 53.5 3.5t40.5 13t26 27t9 46.5q0 50 -27.5 70t-79.5 20h-101v-176z" />
    <glyph glyph-name="C" unicode="C" horiz-adv-x="534" 
d="M327 -10q-76 0 -130 22t-88 64.5t-49.5 104.5t-15.5 142q0 77 15.5 138.5t50 104t90 65.5t135.5 23q41 0 81 -5t75 -12l-17 -108q-29 5 -68 10t-70 5q-50 0 -82 -15t-50 -44t-25 -71.5t-7 -96.5q0 -45 5.5 -84t23 -68.5t48.5 -46t82 -16.5q38 0 76 8.5t74 22.5l36 -103
q-47 -20 -92 -30t-98 -10z" />
    <glyph glyph-name="D" unicode="D" horiz-adv-x="623" 
d="M75 636q50 8 101.5 13t93.5 5q165 0 238.5 -83t73.5 -249q0 -84 -18 -146t-56.5 -103.5t-99 -62t-144.5 -20.5q-16 0 -38 1t-47.5 2.5t-52 4t-51.5 5.5v633zM201 104q34 -3 62 -3q56 0 93 13t58.5 39.5t30.5 68t9 98.5t-9 99t-30.5 69.5t-57 41t-89.5 13.5
q-13 0 -31.5 -1t-35.5 -3v-435z" />
    <glyph glyph-name="E" unicode="E" 
d="M75 644h392v-110h-266v-150h226v-108h-226v-166h266v-110h-392v644z" />
    <glyph glyph-name="F" unicode="F" 
d="M75 644h396v-110h-270v-161h227v-108h-227v-265h-126v644z" />
    <glyph glyph-name="G" unicode="G" horiz-adv-x="610" 
d="M329 -10q-77 0 -130.5 24t-87 68.5t-49 106.5t-15.5 137q0 76 16 137t52 103.5t94.5 65t143.5 22.5q44 0 87.5 -5.5t83.5 -13.5l-16 -107q-35 6 -78 11t-77 5q-56 0 -91 -15.5t-54.5 -44t-26 -68.5t-6.5 -89q0 -47 6.5 -88t23.5 -72t47.5 -48.5t78.5 -17.5q19 0 44.5 3
t45.5 9v224h126v-299q-45 -22 -102.5 -35t-115.5 -13z" />
    <glyph glyph-name="H" unicode="H" horiz-adv-x="653" 
d="M75 644h126v-259h251v259h126v-644h-126v275h-251v-275h-126v644z" />
    <glyph glyph-name="I" unicode="I" horiz-adv-x="276" 
d="M75 644h126v-644h-126v644z" />
    <glyph glyph-name="J" unicode="J" horiz-adv-x="426" 
d="M28 111q23 -4 56 -7.5t56 -3.5q50 0 69 23.5t19 80.5v440h126v-438q0 -116 -54.5 -166t-160.5 -50q-35 0 -68.5 4.5t-57.5 9.5z" />
    <glyph glyph-name="K" unicode="K" horiz-adv-x="585" 
d="M75 644h126v-285l3 -1q58 69 116 141.5t112 144.5h151l2 -3q-57 -73 -118.5 -147.5t-122.5 -143.5q57 -85 119.5 -172.5t128.5 -174.5l-2 -3h-158q-52 72 -101.5 144.5t-96.5 144.5h-33v-289h-126v644z" />
    <glyph glyph-name="L" unicode="L" horiz-adv-x="481" 
d="M75 644h126v-534h262v-110h-388v644z" />
    <glyph glyph-name="M" unicode="M" horiz-adv-x="775" 
d="M61 0q2 80 5.5 171.5t8 179t9.5 165t10 128.5h167l125 -381h5l123 381h167q5 -51 10 -128.5t9.5 -165t8 -179t5.5 -171.5h-126q-2 115 -6.5 232.5t-10.5 231.5h-4l-118 -363h-126l-119 363h-4q-6 -114 -10.5 -231.5t-6.5 -232.5h-122v0z" />
    <glyph glyph-name="N" unicode="N" horiz-adv-x="681" 
d="M75 644h171l232 -460h4v460h124v-644h-171l-232 460h-4v-460h-124v644z" />
    <glyph glyph-name="O" unicode="O" horiz-adv-x="652" 
d="M45 322q0 80 15 142t48.5 104t87 64t130.5 22t130.5 -22t87 -64t48.5 -104t15 -142t-15 -142t-48.5 -104t-87 -64t-130.5 -22t-130.5 22t-87 64t-48.5 104t-15 142zM173 322q0 -54 6.5 -95.5t23.5 -69.5t46.5 -42.5t76.5 -14.5q46 0 76 14.5t47 42.5t23.5 69.5t6.5 95.5
t-6.5 95.5t-23.5 69.5t-47 42.5t-76 14.5q-47 0 -76.5 -14.5t-46.5 -42.5t-23.5 -69.5t-6.5 -95.5z" />
    <glyph glyph-name="P" unicode="P" horiz-adv-x="571" 
d="M75 638q51 8 107 12t95 4q56 0 104 -10.5t83.5 -35t56 -66t20.5 -103.5t-20.5 -104t-55.5 -68t-83 -37t-102 -11q-15 0 -36 1t-43 3v-223h-126v638zM201 330q17 -2 39 -3t36 -1q33 0 58.5 5t43 17t26.5 33t9 54q0 32 -9 53t-26.5 33.5t-42.5 17.5t-57 5q-19 0 -39.5 -1
t-37.5 -3v-210z" />
    <glyph glyph-name="Q" unicode="Q" horiz-adv-x="652" 
d="M176 19q-27 16 -51 39t-41.5 57.5t-28 84.5t-10.5 121q0 80 15 142t48 104.5t86.5 64.5t130.5 22t130.5 -22t87.5 -63.5t49 -102t15 -137.5q0 -68 -12 -125t-41 -98t-77.5 -64.5t-121.5 -25.5v-4q50 -8 97 -20.5t91 -30.5l-49 -105q-41 24 -82.5 44.5t-82.5 40t-80 38.5
t-73 40zM326 100q46 0 76 14.5t47 42.5t23.5 69.5t6.5 95.5t-6.5 95.5t-23.5 69.5t-47 42.5t-76 14.5q-47 0 -76.5 -14.5t-46.5 -42.5t-23.5 -69.5t-6.5 -95.5t6.5 -95.5t23.5 -69.5t46.5 -42.5t76.5 -14.5z" />
    <glyph glyph-name="R" unicode="R" horiz-adv-x="579" 
d="M75 635q19 3 44 6t52.5 6t55.5 4.5t53 1.5q54 0 99.5 -10t79 -33t52 -61.5t18.5 -95.5q0 -78 -33 -122t-86 -64q29 -60 68 -129.5t78 -135.5l-1 -2h-148q-34 61 -67 125.5t-60 121.5q-23 0 -42.5 1.5t-36.5 3.5v-252h-126v635zM201 349q18 -2 40 -3t35 -1q60 0 92.5 20.5
t32.5 79.5q0 29 -8.5 48t-24 30.5t-38.5 16t-52 4.5q-18 0 -39 -1t-38 -3v-191z" />
    <glyph glyph-name="S" unicode="S" horiz-adv-x="496" 
d="M47 118q16 -3 37.5 -6t44 -6t45 -4.5t41.5 -1.5q68 0 98.5 22t30.5 62q0 18 -6.5 30.5t-22.5 23t-41.5 21t-63.5 24.5q-33 12 -64.5 26.5t-56 35t-39 49.5t-14.5 72q0 85 62 136.5t183 51.5q39 0 81 -5.5t84 -13.5l-16 -109q-15 3 -34 6t-40 5.5t-42 4.5t-39 2
q-21 0 -41 -3t-35.5 -11t-24.5 -21t-9 -33q0 -21 10.5 -35t29 -24.5t44 -19.5t56.5 -20t61 -26t53.5 -36.5t38 -53t14.5 -75.5q0 -89 -64.5 -142.5t-194.5 -53.5q-43 0 -92 5.5t-91 12.5z" />
    <glyph glyph-name="T" unicode="T" horiz-adv-x="518" 
d="M196 534h-180v110h486v-110h-180v-534h-126v534z" />
    <glyph glyph-name="U" unicode="U" horiz-adv-x="623" 
d="M60 644h126v-408q0 -71 28.5 -103.5t97.5 -32.5q70 0 98.5 32.5t28.5 103.5v408h124v-426q0 -60 -17.5 -103.5t-50 -71t-79.5 -40.5t-105 -13t-104.5 13t-79 40.5t-50 71t-17.5 103.5v426z" />
    <glyph glyph-name="V" unicode="V" horiz-adv-x="580" 
d="M207 0q-23 61 -48.5 138t-51 161.5t-49.5 173t-45 171.5h133q15 -62 33 -131.5t37 -139t38 -135.5t35 -120h4q16 54 35.5 120t38.5 136t37.5 139.5t33.5 130.5h129q-21 -83 -45 -171.5t-49.5 -173t-51 -161.5t-48.5 -138h-166v0z" />
    <glyph glyph-name="W" unicode="W" horiz-adv-x="897" 
d="M178 0q-20 61 -41 138t-41 161.5t-39 173t-34 171.5h129q11 -62 24.5 -131.5t28 -139t29 -135.5t27.5 -120h4q11 54 23.5 120t25 135.5t24 139t20.5 131.5h185q9 -62 20.5 -131.5t24 -139t25 -135.5t23.5 -120h4q13 54 27.5 120t29 135.5t28 139t24.5 131.5h125
q-15 -83 -34 -171.5t-39 -173t-41 -161.5t-41 -138h-173q-11 53 -23.5 117t-25 131t-24.5 134.5t-22 128.5h-4q-10 -61 -22 -128.5t-24.5 -134.5t-25 -131t-23.5 -117h-174v0z" />
    <glyph glyph-name="X" unicode="X" horiz-adv-x="611" 
d="M13 0q25 44 52.5 88.5t55 87.5t54.5 83.5t51 75.5q-48 67 -98 145t-100 164h144q32 -56 67 -111.5t67 -104.5h4q32 49 66.5 104.5t66.5 111.5h139q-50 -86 -100 -164t-97 -145q49 -71 105 -159t108 -176h-144q-17 29 -36 60.5t-38.5 63t-38.5 61.5t-36 56h-4
q-17 -26 -36 -56t-38.5 -61.5t-38.5 -63t-36 -60.5h-139v0z" />
    <glyph glyph-name="Y" unicode="Y" horiz-adv-x="619" 
d="M247 241q-61 97 -116.5 196t-105.5 207h137q34 -75 71 -145.5t77 -139.5h4q40 69 77 139.5t71 145.5h132q-50 -108 -105 -207t-116 -196v-241h-126v241z" />
    <glyph glyph-name="Z" unicode="Z" horiz-adv-x="511" 
d="M32 92l285 442h-276v110h436v-92l-285 -442h291v-110h-451v92z" />
    <glyph glyph-name="bracketleft" unicode="[" horiz-adv-x="299" 
d="M273 -67v-89h-201v800h201v-89h-103v-622h103z" />
    <glyph glyph-name="backslash" unicode="\" horiz-adv-x="403" 
d="M12 664h99l280 -684h-99z" />
    <glyph glyph-name="bracketright" unicode="]" horiz-adv-x="299" 
d="M129 -67v622h-103v89h201v-800h-201v89h103z" />
    <glyph glyph-name="asciicircum" unicode="^" horiz-adv-x="492" 
d="M202 549h88l177 -316h-104l-115 196h-4l-115 -196h-104z" />
    <glyph glyph-name="underscore" unicode="_" horiz-adv-x="520" 
d="M520 -67v-60h-520v60h520z" />
    <glyph glyph-name="grave" unicode="`" horiz-adv-x="330" 
d="M50 614l67 78l123 -124l-45 -52z" />
    <glyph glyph-name="a" unicode="a" horiz-adv-x="472" 
d="M32 136q0 71 50 109t145 38q19 0 35 -1.5t34 -3.5v16q0 39 -18 56.5t-65 17.5q-28 0 -64 -5t-63 -11l-19 100q32 7 72.5 13.5t83.5 6.5q93 0 142 -40t49 -124v-308h-84l-12 35q-20 -16 -52 -30.5t-76 -14.5q-32 0 -61 9.5t-50.5 28t-34 45.5t-12.5 63zM152 141
q0 -27 17 -41.5t46 -14.5q24 0 45.5 8.5t35.5 18.5v83q-16 2 -34.5 3t-30.5 1q-38 0 -58.5 -14.5t-20.5 -43.5z" />
    <glyph glyph-name="b" unicode="b" horiz-adv-x="493" 
d="M62 644h118v-193q21 10 46.5 15.5t54.5 5.5q91 0 134.5 -62.5t43.5 -180.5q0 -128 -51.5 -183.5t-160.5 -55.5q-53 0 -100 10.5t-85 23.5v620zM180 99q15 -3 33.5 -5.5t35.5 -2.5q50 0 70 31t20 109q0 74 -19 105.5t-69 31.5q-19 0 -36.5 -3.5t-34.5 -9.5v-256z" />
    <glyph glyph-name="c" unicode="c" horiz-adv-x="412" 
d="M32 232q0 58 12 103t39 75.5t70.5 46t105.5 15.5q29 0 57.5 -3.5t58.5 -10.5l-13 -100q-24 4 -51 7t-50 3q-32 0 -52.5 -7t-33.5 -23t-18 -42.5t-5 -65.5q0 -34 4 -59.5t14.5 -42.5t28.5 -25.5t46 -8.5q30 0 64 7.5t58 15.5l29 -97q-35 -14 -74 -22t-81 -8
q-109 0 -159 60.5t-50 181.5z" />
    <glyph glyph-name="d" unicode="d" horiz-adv-x="492" 
d="M215 -10q-85 0 -133 58t-48 179q0 123 51 184t148 61q21 0 41.5 -2.5t37.5 -5.5v180h118v-644h-85l-12 31q-23 -18 -50.5 -29.5t-67.5 -11.5zM235 92q22 0 42 6t35 15v251q-15 3 -32 5t-32 2q-53 0 -73.5 -33t-20.5 -109q0 -75 18 -106t63 -31z" />
    <glyph glyph-name="e" unicode="e" horiz-adv-x="451" 
d="M31 229q0 118 51.5 180.5t149.5 62.5q90 0 138 -52.5t48 -152.5q0 -17 -1.5 -39.5t-5.5 -39.5h-259q5 -49 29.5 -71.5t70.5 -22.5q32 0 66.5 8.5t60.5 17.5l33 -96q-36 -15 -77.5 -24.5t-86.5 -9.5q-106 0 -161.5 59t-55.5 180zM301 280q-2 44 -19 66t-53 22
q-38 0 -55.5 -23.5t-21.5 -64.5h149z" />
    <glyph glyph-name="f" unicode="f" horiz-adv-x="333" 
d="M94 364h-70v88l70 4v36q0 83 44 122.5t128 39.5q20 0 38.5 -2t35.5 -4l-7 -102q-13 2 -29 3t-29 1q-35 0 -49 -12.5t-14 -45.5v-30h98v-98h-98v-364h-118v364z" />
    <glyph glyph-name="g" unicode="g" horiz-adv-x="490" 
d="M97 -76q23 -4 57.5 -8t64.5 -4q17 0 33.5 2.5t29 10t20.5 22t8 38.5v32q-20 -8 -43 -13.5t-52 -5.5q-93 0 -137 61.5t-44 171.5q0 128 55.5 184.5t159.5 56.5q52 0 98.5 -11t80.5 -22v-445q0 -55 -15.5 -91t-43.5 -57t-67 -29.5t-86 -8.5q-37 0 -68.5 4t-63.5 10z
M240 102q38 0 70 15v247q-14 3 -30.5 5t-30.5 2q-52 0 -73.5 -31t-21.5 -108q0 -70 18.5 -100t67.5 -30z" />
    <glyph glyph-name="h" unicode="h" 
d="M62 644h118v-202q26 14 55 22t61 8q41 0 70 -12.5t48 -34t27.5 -50.5t8.5 -63v-312h-118v297q0 34 -15 52.5t-52 18.5q-23 0 -45.5 -7t-39.5 -15v-346h-118v644z" />
    <glyph glyph-name="i" unicode="i" horiz-adv-x="242" 
d="M62 644h118v-112h-118v112zM62 462h118v-462h-118v462z" />
    <glyph glyph-name="j" unicode="j" horiz-adv-x="244" 
d="M64 644h118v-112h-118v112zM64 462h118v-360q0 -98 -12 -165.5t-46 -118.5h-112q15 34 25 64.5t16 63.5t8.5 70t2.5 84v362z" />
    <glyph glyph-name="k" unicode="k" horiz-adv-x="490" 
d="M62 644h118v-379l4 -1q46 53 84 102.5t72 95.5h140l1 -2q-38 -51 -81 -102.5t-88 -102.5q34 -54 81.5 -121t97.5 -132l-1 -2h-147q-34 45 -67.5 96.5t-64.5 102.5h-31v-199h-118v644z" />
    <glyph glyph-name="l" unicode="l" horiz-adv-x="242" 
d="M62 644h118v-644h-118v644z" />
    <glyph glyph-name="m" unicode="m" horiz-adv-x="751" 
d="M62 462h84l10 -33q20 14 52 28.5t78 14.5q39 0 67.5 -13t47.5 -36q31 21 64 35t78 14q38 0 66.5 -12.5t47 -34t28 -51.5t9.5 -66v-308h-118v294q0 35 -15.5 54.5t-48.5 19.5q-38 0 -78 -23q3 -18 3 -37v-308h-118v294q0 35 -15.5 54.5t-48.5 19.5q-20 0 -40 -6.5
t-35 -14.5v-347h-118v462z" />
    <glyph glyph-name="n" unicode="n" 
d="M62 462h84l10 -34q30 21 66 32.5t74 11.5q41 0 70 -12.5t48 -34t27.5 -50.5t8.5 -63v-312h-118v297q0 34 -15 52.5t-52 18.5q-23 0 -45.5 -7t-39.5 -15v-346h-118v462z" />
    <glyph glyph-name="o" unicode="o" horiz-adv-x="486" 
d="M32 231q0 55 11 100t36 76t65.5 48t98.5 17t98.5 -17t65.5 -48t36 -76t11 -100q0 -56 -11 -100.5t-36 -75.5t-65.5 -48t-98.5 -17t-98.5 17t-65.5 48t-36 75.5t-11 100.5zM152 231q0 -29 3 -53.5t12.5 -43.5t27.5 -29.5t48 -10.5t48 10.5t27.5 29.5t12.5 43.5t3 53.5
q0 28 -3 53t-12.5 44t-27.5 29.5t-48 10.5t-48 -10.5t-27.5 -29.5t-12.5 -44t-3 -53z" />
    <glyph glyph-name="p" unicode="p" horiz-adv-x="493" 
d="M180 -182h-118v644h84l12 -32q22 16 51.5 29t73.5 13q85 0 130.5 -59t45.5 -179q0 -125 -50.5 -184.5t-147.5 -59.5q-22 0 -43 2.5t-38 6.5v-181zM180 99q16 -5 33 -7t32 -2q55 0 74.5 32t19.5 106q0 77 -18 108.5t-63 31.5q-24 0 -43.5 -6t-34.5 -14v-249z" />
    <glyph glyph-name="q" unicode="q" horiz-adv-x="492" 
d="M34 227q0 130 56 187.5t160 57.5q53 0 100 -11t80 -23v-620h-118v192q-20 -9 -43.5 -14.5t-52.5 -5.5q-94 0 -138 62.5t-44 174.5zM242 94q38 0 70 15v255q-14 3 -30.5 5t-31.5 2q-26 0 -44.5 -7.5t-30 -24.5t-16.5 -44.5t-5 -67.5q0 -72 19 -102.5t69 -30.5z" />
    <glyph glyph-name="r" unicode="r" horiz-adv-x="351" 
d="M62 462h84l13 -52q56 62 132 62q12 0 27 -1.5t27 -3.5l-8 -108q-15 2 -27 3t-23 1q-38 0 -62.5 -9.5t-44.5 -28.5v-325h-118v462z" />
    <glyph glyph-name="s" unicode="s" horiz-adv-x="403" 
d="M45 108q29 -5 64.5 -9.5t67.5 -4.5q38 0 60 8.5t22 28.5q0 21 -27.5 30.5t-77.5 26.5q-29 10 -52 22t-39.5 28.5t-25.5 38t-9 50.5q0 69 50.5 107t144.5 38q32 0 66.5 -4t64.5 -10l-14 -102q-26 5 -58.5 8.5t-59.5 3.5q-74 0 -74 -34q0 -11 8 -18t22 -13t33 -11.5
t41 -13.5q30 -11 54 -23.5t40 -29t24.5 -38t8.5 -50.5q0 -69 -49 -108t-156 -39q-35 0 -74 4t-70 11z" />
    <glyph glyph-name="t" unicode="t" horiz-adv-x="349" 
d="M80 364h-70v88l75 4l8 134h105v-128h115v-98h-115v-227q0 -25 8.5 -34t28.5 -9q16 0 34 4t33 9l25 -94q-23 -9 -51.5 -15.5t-60.5 -6.5q-60 0 -97.5 33t-37.5 106v234z" />
    <glyph glyph-name="u" unicode="u" 
d="M57 462h118v-297q0 -34 15 -52.5t52 -18.5q23 0 45.5 7t39.5 15v346h118v-462h-84l-10 34q-29 -21 -65.5 -32.5t-74.5 -11.5q-41 0 -70 12.5t-48 34t-27.5 50.5t-8.5 63v312z" />
    <glyph glyph-name="v" unicode="v" horiz-adv-x="481" 
d="M163 0q-16 38 -35 93.5t-37.5 118.5t-36.5 128t-31 122h118q10 -44 22 -90.5t25 -92.5t26 -90t26 -83h4q13 39 26 83t26 90t24.5 92.5t21.5 90.5h116q-14 -57 -31.5 -122t-36 -128t-37.5 -118.5t-35 -93.5h-155v0z" />
    <glyph glyph-name="w" unicode="w" horiz-adv-x="699" 
d="M129 0q-13 38 -28 93.5t-29.5 118.5t-27.5 128t-22 122h116q14 -88 33.5 -180.5t39.5 -170.5h4q17 78 33 170.5t29 180.5h152q12 -88 27.5 -180.5t32.5 -170.5h4q20 78 39 170.5t33 180.5h112q-9 -57 -22 -122t-27 -128t-29.5 -118.5t-28.5 -93.5h-153q-17 79 -34 172
t-31 186h-4q-14 -93 -31 -186t-34 -172h-154v0z" />
    <glyph glyph-name="x" unicode="x" horiz-adv-x="476" 
d="M17 0q17 29 36.5 60.5t39 62.5t38.5 60t36 53q-34 48 -71.5 107t-72.5 119h125q20 -38 43.5 -74t46.5 -69h4q23 33 46 69t44 74h121q-36 -60 -73.5 -119t-70.5 -107q17 -24 36 -53t38.5 -60t39 -62.5t36.5 -60.5h-126q-20 36 -45.5 76.5t-48.5 76.5h-4q-24 -36 -49 -76.5
t-46 -76.5h-123v0z" />
    <glyph glyph-name="y" unicode="y" horiz-adv-x="481" 
d="M154 0q-15 38 -33 93.5t-35.5 118.5t-34 128t-28.5 122h118q19 -88 43 -182t49 -172h4q28 86 54.5 175.5t50.5 178.5h116q-23 -84 -48 -170t-51.5 -168.5t-53.5 -160.5t-54 -145h-116q17 42 33.5 87.5t33.5 94.5h-48v0z" />
    <glyph glyph-name="z" unicode="z" horiz-adv-x="416" 
d="M32 72l192 285h-189v105h349v-72l-192 -285h195v-105h-355v72z" />
    <glyph glyph-name="braceleft" unicode="{" horiz-adv-x="295" 
d="M92 116q0 40 -15.5 68t-50.5 60q35 32 50.5 60t15.5 68v137q0 70 42.5 107.5t133.5 37.5v-65q-19 -1 -33.5 -3.5t-24.5 -11t-15 -24.5t-5 -44v-137q0 -40 -16 -69t-48 -56q32 -27 48 -56t16 -69v-137q0 -28 5 -44t15 -24.5t24.5 -11t33.5 -3.5v-65q-91 0 -133.5 37.5
t-42.5 107.5v137z" />
    <glyph glyph-name="bar" unicode="|" horiz-adv-x="296" 
d="M99 664h98v-866h-98v866z" />
    <glyph glyph-name="braceright" unicode="}" horiz-adv-x="295" 
d="M27 -101q19 1 33.5 3.5t24.5 11t15 24.5t5 44v137q0 40 16 69t48 56q-32 27 -48 56t-16 69v137q0 28 -5 44t-15 24.5t-24.5 11t-33.5 3.5v65q91 0 133.5 -37.5t42.5 -107.5v-137q0 -40 15.5 -68t50.5 -60q-35 -32 -50.5 -60t-15.5 -68v-137q0 -70 -42.5 -107.5
t-133.5 -37.5v65v0z" />
    <glyph glyph-name="asciitilde" unicode="~" horiz-adv-x="429" 
d="M29 275q2 21 9 40.5t19.5 34t30.5 23.5t42 9q21 0 43 -5t49 -14t42.5 -13.5t26.5 -4.5q20 0 32 10.5t16 28.5l61 -15q-2 -21 -9 -40.5t-19.5 -34t-30.5 -23.5t-42 -9q-21 0 -43 5t-49 14t-42.5 13.5t-26.5 4.5q-20 0 -32 -10.5t-16 -28.5z" />
    <glyph glyph-name="uni00A0" unicode="&#xa0;" horiz-adv-x="251" 
 />
    <glyph glyph-name="exclamdown" unicode="&#xa1;" horiz-adv-x="265" 
d="M76 462h113v-116h-113v116zM95 265h75l30 -447h-135z" />
    <glyph glyph-name="cent" unicode="&#xa2;" horiz-adv-x="449" 
d="M203 85q-81 14 -119 73t-38 165q0 100 35.5 158.5t121.5 75.5v101h88v-95q24 -2 48 -5.5t50 -8.5l-13 -98q-24 4 -51 7t-50 3q-32 0 -52.5 -7t-33.5 -23.5t-18 -43t-5 -65.5q0 -34 4 -59.5t14.5 -42t28.5 -25t46 -8.5q30 0 64 7.5t58 15.5l29 -99q-27 -11 -57 -18.5
t-62 -10.5v-94h-88v97z" />
    <glyph glyph-name="sterling" unicode="&#xa3;" horiz-adv-x="480" 
d="M42 81q35 17 59.5 48t24.5 72q0 16 -2.5 31.5t-6.5 30.5h-85v89l53 4q-9 26 -15 53t-6 58q0 95 56 141t165 46q37 0 80.5 -5.5t81.5 -13.5l-16 -107q-29 5 -71 10.5t-76 5.5q-15 0 -31.5 -2.5t-30 -10.5t-22 -23t-8.5 -41t5 -51t13 -50h153v-103h-121q3 -15 5 -30t2 -30
q0 -27 -9 -49.5t-24 -39.5l2 -4h240v-110h-416v81z" />
    <glyph glyph-name="currency" unicode="&#xa4;" horiz-adv-x="458" 
d="M35 154l56 67q-10 20 -14 46t-4 55t4 55t14 46l-56 67l61 47l47 -56q17 9 38 14t48 5t48 -5t38 -14l47 56l61 -47l-56 -67q10 -20 14 -46t4 -55t-4 -55t-14 -46l56 -67l-61 -47l-47 56q-17 -9 -38 -14t-48 -5t-48 5t-38 14l-47 -56zM229 221q22 0 36 8t21 21.5t9.5 32
t2.5 39.5t-2.5 39.5t-9.5 32t-21 21.5t-36 8q-23 0 -36.5 -8t-20.5 -21.5t-9.5 -32t-2.5 -39.5t2.5 -39.5t9.5 -32t20.5 -21.5t36.5 -8z" />
    <glyph glyph-name="yen" unicode="&#xa5;" horiz-adv-x="580" 
d="M79 215h148v49h-148v92h96q-42 69 -81 140.5t-75 147.5h137q61 -130 134 -254h4q35 61 69 124.5t65 129.5h131q-35 -76 -73.5 -147.5t-80.5 -140.5h96v-92h-148v-49h148v-92h-148v-123h-126v123h-148v92z" />
    <glyph glyph-name="brokenbar" unicode="&#xa6;" horiz-adv-x="296" 
d="M99 664h98v-338h-98v338zM197 136v-338h-98v338h98z" />
    <glyph glyph-name="section" unicode="&#xa7;" horiz-adv-x="561" 
d="M113 -15q27 -5 60 -9t60 -4q64 0 93.5 27.5t37.5 84.5q-24 -3 -50 -3q-65 0 -111.5 18.5t-76.5 55t-44 90t-14 123.5q0 68 13.5 121t44.5 90t80.5 56t120.5 19q35 0 69 -4.5t67 -11.5l-15 -103q-27 5 -60 9t-60 4q-64 0 -93.5 -27.5t-38.5 -84.5q25 3 51 3q130 0 188 -74
t58 -213q0 -68 -14 -121t-44.5 -90t-80 -56t-120.5 -19q-35 0 -69 4.5t-67 11.5zM318 190q12 0 24.5 1t25.5 3q-2 31 -9 56.5t-21.5 43t-37.5 27t-57 9.5q-22 0 -50 -5q2 -31 9 -56t21 -42.5t37 -27t58 -9.5z" />
    <glyph glyph-name="dieresis" unicode="&#xa8;" horiz-adv-x="330" 
d="M211 625h94v-95h-94v95zM25 625h94v-95h-94v95z" />
    <glyph glyph-name="copyright" unicode="&#xa9;" horiz-adv-x="734" 
d="M51 322q0 76 21.5 137.5t62 105t99.5 66.5t133 23t133 -23t99.5 -66.5t62 -105t21.5 -137.5q0 -77 -21.5 -138t-62 -104.5t-99.5 -66.5t-133 -23t-133 23t-99.5 66.5t-62 104.5t-21.5 138zM131 322q0 -127 60.5 -192.5t175.5 -65.5t175.5 65.5t60.5 192.5t-60.5 192.5
t-175.5 65.5t-175.5 -65.5t-60.5 -192.5zM371 139q-81 0 -118.5 48.5t-37.5 131.5q0 93 39 139.5t127 46.5q20 0 43.5 -2t46.5 -7l-8 -74q-19 2 -37.5 4t-35.5 2q-25 0 -41 -5.5t-25.5 -18t-13.5 -33t-4 -50.5q0 -21 2.5 -39.5t10.5 -32t23 -21.5t39 -8q22 0 45.5 5.5
t41.5 12.5l24 -73q-26 -11 -57.5 -18.5t-63.5 -7.5z" />
    <glyph glyph-name="ordfeminine" unicode="&#xaa;" horiz-adv-x="340" 
d="M141 362q-39 0 -67.5 23t-28.5 66q0 42 30 66t90 24q10 0 17 -0.5t16 -1.5v8q0 17 -9.5 25t-35.5 8q-15 0 -36.5 -3t-38.5 -6l-12 72q20 5 46 8t49 3q62 0 89.5 -26t27.5 -76v-184h-55l-8 19q-11 -8 -29 -16.5t-45 -8.5zM161 429q23 0 37 12v38q-14 3 -30 3
q-20 0 -29.5 -8t-9.5 -19t8.5 -18.5t23.5 -7.5z" />
    <glyph glyph-name="guillemotleft" unicode="&#xab;" horiz-adv-x="475" 
d="M33 228q0 19 7.5 37t26.5 40t54.5 55t73.5 68l59 -60q-11 -9 -24 -20.5t-26 -23.5t-25 -23t-20 -19q-18 -18 -25.5 -30.5t-7.5 -23.5t7.5 -23.5t25.5 -30.5q8 -8 20 -19t25 -23t26 -23.5t24 -20.5l-59 -60q-38 35 -73.5 68t-54.5 55t-26.5 40t-7.5 37zM215 228
q0 19 7.5 37t26.5 40t54.5 55t73.5 68l59 -60q-11 -9 -24 -20.5t-26 -23.5t-25 -23t-20 -19q-18 -18 -25.5 -30.5t-7.5 -23.5t7.5 -23.5t25.5 -30.5q8 -8 20 -19t25 -23t26 -23.5t24 -20.5l-59 -60q-38 35 -73.5 68t-54.5 55t-26.5 40t-7.5 37z" />
    <glyph glyph-name="logicalnot" unicode="&#xac;" horiz-adv-x="588" 
d="M64 370h460v-278h-98v184h-362v94z" />
    <glyph glyph-name="uni00AD" unicode="&#xad;" horiz-adv-x="288" 
d="M32 293h224v-88h-224v88z" />
    <glyph glyph-name="registered" unicode="&#xae;" horiz-adv-x="412" 
d="M206 322q-75 0 -116.5 44.5t-41.5 121.5t41.5 121.5t116.5 44.5t116.5 -44.5t41.5 -121.5t-41.5 -121.5t-116.5 -44.5zM206 359q57 0 87.5 33t30.5 96t-30.5 96t-87.5 33t-87.5 -33t-30.5 -96t30.5 -96t87.5 -33zM280 401h-47q-17 33 -30 66h-19v-66h-41v178q13 2 28.5 3
t28.5 1q30 0 52 -13t22 -45q0 -17 -7 -30.5t-24 -20.5q8 -17 17.5 -35.5t20.5 -36.5zM184 499q5 -1 8.5 -1h6.5q13 0 23.5 4.5t10.5 21.5q0 14 -9 18.5t-22 4.5h-8t-10 -1v-47z" />
    <glyph glyph-name="macron" unicode="&#xaf;" horiz-adv-x="330" 
d="M53 615h224v-76h-224v76z" />
    <glyph glyph-name="degree" unicode="&#xb0;" horiz-adv-x="328" 
d="M164 408q-27 0 -50 9t-40 25.5t-26.5 39t-9.5 49.5t9.5 49.5t26.5 39t40 25.5t50 9t50 -9t40 -25.5t26.5 -39t9.5 -49.5t-9.5 -49.5t-26.5 -39t-40 -25.5t-50 -9zM164 462q30 0 50 20t20 49t-20 49t-50 20t-50 -20t-20 -49t20 -49t50 -20z" />
    <glyph glyph-name="plusminus" unicode="&#xb1;" horiz-adv-x="588" 
d="M245 297h-161v94h161v154h98v-154h161v-94h-161v-154h-98v154zM84 94h420v-94h-420v94z" />
    <glyph glyph-name="uni00B2" unicode="&#xb2;" horiz-adv-x="356" 
d="M55 357q45 37 74 65t45.5 50t23 38t6.5 28q0 18 -13 31t-45 13q-21 0 -40.5 -5t-33.5 -10l-23 66q20 9 47.5 15t55.5 6q57 0 94.5 -29t37.5 -85q0 -26 -9 -49.5t-23.5 -45t-33 -40.5t-37.5 -37l2 -4h104v-71h-232v64z" />
    <glyph glyph-name="uni00B3" unicode="&#xb3;" horiz-adv-x="320" 
d="M58 370q22 -4 45.5 -6.5t41.5 -2.5q30 0 43 9.5t13 33.5q0 14 -7 24.5t-33 10.5h-48v68h43q23 0 32 10t9 26q0 21 -12.5 30t-33.5 9q-17 0 -38.5 -4t-38.5 -10l-21 67q47 19 99 19q61 0 93 -27.5t32 -71.5q0 -30 -14 -47.5t-35 -25.5v-4q23 -8 38 -27t15 -54
q0 -51 -34 -79.5t-102 -28.5q-22 0 -49.5 2.5t-48.5 6.5z" />
    <glyph glyph-name="acute" unicode="&#xb4;" horiz-adv-x="330" 
d="M90 568l123 124l67 -78l-145 -98z" />
    <glyph glyph-name="mu" unicode="&#xb5;" horiz-adv-x="514" 
d="M64 462h118v-300q0 -33 16 -50.5t51 -17.5q23 0 45.5 7t39.5 15v346h118v-462h-84l-10 34q-29 -21 -65.5 -32.5t-74.5 -11.5q-24 0 -40 4q-5 -55 -18 -98t-36 -78h-112q15 34 25 64.5t16 63.5t8.5 70t2.5 84v362z" />
    <glyph glyph-name="paragraph" unicode="&#xb6;" horiz-adv-x="581" 
d="M215 302q-73 6 -112 48t-39 123q0 88 45.5 129.5t130.5 41.5h231v-826h-98v483h-60v-483h-98v484z" />
    <glyph glyph-name="periodcentered" unicode="&#xb7;" horiz-adv-x="231" 
d="M58 298h114v-116h-114v116z" />
    <glyph glyph-name="cedilla" unicode="&#xb8;" horiz-adv-x="330" 
d="M128 -38q66 0 89.5 -19t23.5 -52q0 -42 -29 -62.5t-73 -20.5q-11 0 -26 2t-23 4l11 46q5 -2 12.5 -3t17.5 -1q23 0 36 8t13 25q0 15 -12.5 22t-49.5 7l10 44v0z" />
    <glyph glyph-name="uni00B9" unicode="&#xb9;" horiz-adv-x="324" 
d="M132 559l-64 -27l-29 58l102 54h73v-351h-82v266z" />
    <glyph glyph-name="ordmasculine" unicode="&#xba;" horiz-adv-x="340" 
d="M170 362q-68 0 -99 38.5t-31 107.5t31 107.5t99 38.5t99 -38.5t31 -107.5t-31 -107.5t-99 -38.5zM170 436q29 0 38.5 20t9.5 52t-9.5 52t-38.5 20t-38.5 -20t-9.5 -52t9.5 -52t38.5 -20z" />
    <glyph glyph-name="guillemotright" unicode="&#xbb;" horiz-adv-x="475" 
d="M260 228q0 -19 -7.5 -37t-26.5 -40t-54.5 -55t-73.5 -68l-59 60q10 9 23.5 20.5t26.5 23.5t25 23t20 19q18 18 25.5 30.5t7.5 23.5t-7.5 23.5t-25.5 30.5q-8 8 -20 19t-25 23t-26.5 23.5t-23.5 20.5l59 60q38 -35 73.5 -68t54.5 -55t26.5 -40t7.5 -37zM442 228
q0 -19 -7.5 -37t-26.5 -40t-54.5 -55t-73.5 -68l-59 60q10 9 23.5 20.5t26.5 23.5t25 23t20 19q18 18 25.5 30.5t7.5 23.5t-7.5 23.5t-25.5 30.5q-8 8 -20 19t-25 23t-26.5 23.5t-23.5 20.5l59 60q38 -35 73.5 -68t54.5 -55t26.5 -40t7.5 -37z" />
    <glyph glyph-name="onequarter" unicode="&#xbc;" horiz-adv-x="720" 
d="M403 124q35 68 66.5 122t63.5 105h84q-32 -50 -62.5 -102t-63.5 -116h65l5 62h75v-62h45v-71h-45v-62h-80v62h-153v62zM133 559l-64 -27l-29 58l102 54h73v-351h-82v266zM515 644h82l-402 -644h-82z" />
    <glyph glyph-name="onehalf" unicode="&#xbd;" horiz-adv-x="751" 
d="M471 64q45 37 74 65t45.5 50t23 38t6.5 28q0 18 -13 31t-45 13q-21 0 -40.5 -5t-33.5 -10l-23 66q20 9 47.5 15t55.5 6q57 0 94.5 -29t37.5 -85q0 -26 -9 -49.5t-23.5 -45t-33 -40.5t-37.5 -37l2 -4h104v-71h-232v64zM515 644h82l-402 -644h-82zM133 559l-64 -27l-29 58
l102 54h73v-351h-82v266z" />
    <glyph glyph-name="threequarters" unicode="&#xbe;" horiz-adv-x="744" 
d="M427 124q35 68 66.5 122t63.5 105h84q-32 -50 -62.5 -102t-63.5 -116h65l5 62h75v-62h45v-71h-45v-62h-80v62h-153v62zM55 370q22 -4 45.5 -6.5t41.5 -2.5q30 0 43 9.5t13 33.5q0 14 -7 24.5t-33 10.5h-48v68h43q23 0 32 10t9 26q0 21 -12.5 30t-33.5 9q-17 0 -38.5 -4
t-38.5 -10l-21 67q47 19 99 19q61 0 93 -27.5t32 -71.5q0 -30 -14 -47.5t-35 -25.5v-4q23 -8 38 -27t15 -54q0 -51 -34 -79.5t-102 -28.5q-22 0 -49.5 2.5t-48.5 6.5zM539 644h82l-402 -644h-82z" />
    <glyph glyph-name="questiondown" unicode="&#xbf;" horiz-adv-x="448" 
d="M189 462h113v-116h-113v116zM37 -18q0 30 8 54t21.5 44t31.5 38t39 37q15 14 25.5 25.5t17 24t9.5 26.5t3 34h107q0 -35 -4 -60t-12 -45.5t-22 -37.5t-33 -35q-26 -24 -46.5 -46t-20.5 -57q0 -34 21.5 -50t58.5 -16q34 0 71 11.5t69 26.5l41 -97q-46 -24 -94.5 -37.5
t-94.5 -13.5q-42 0 -78 11.5t-62.5 34t-41 55t-14.5 73.5z" />
    <glyph glyph-name="Agrave" unicode="&#xc0;" horiz-adv-x="592" 
d="M16 0q21 81 44.5 164.5t48.5 166t51.5 162t52.5 151.5h166q26 -72 52.5 -151.5t51.5 -162t48.5 -166t44.5 -164.5h-129l-35 138h-234l-35 -138h-127zM382 246q-20 75 -42 146.5t-43 136.5h-4q-21 -65 -43 -136.5t-43 -146.5h175zM183 790l67 78l123 -124l-45 -52z" />
    <glyph glyph-name="Aacute" unicode="&#xc1;" horiz-adv-x="592" 
d="M16 0q21 81 44.5 164.5t48.5 166t51.5 162t52.5 151.5h166q26 -72 52.5 -151.5t51.5 -162t48.5 -166t44.5 -164.5h-129l-35 138h-234l-35 -138h-127zM382 246q-20 75 -42 146.5t-43 136.5h-4q-21 -65 -43 -136.5t-43 -146.5h175zM223 744l123 124l67 -78l-145 -98z" />
    <glyph glyph-name="Acircumflex" unicode="&#xc2;" horiz-adv-x="592" 
d="M16 0q21 81 44.5 164.5t48.5 166t51.5 162t52.5 151.5h166q26 -72 52.5 -151.5t51.5 -162t48.5 -166t44.5 -164.5h-129l-35 138h-234l-35 -138h-127zM382 246q-20 75 -42 146.5t-43 136.5h-4q-21 -65 -43 -136.5t-43 -146.5h175zM166 724l90 106h84l90 -106l-41 -36
l-91 80l-91 -80z" />
    <glyph glyph-name="Atilde" unicode="&#xc3;" horiz-adv-x="592" 
d="M16 0q21 81 44.5 164.5t48.5 166t51.5 162t52.5 151.5h166q26 -72 52.5 -151.5t51.5 -162t48.5 -166t44.5 -164.5h-129l-35 138h-234l-35 -138h-127zM382 246q-20 75 -42 146.5t-43 136.5h-4q-21 -65 -43 -136.5t-43 -146.5h175zM150 726q9 51 33 71t56 20q16 0 33 -5
t32.5 -11.5t29.5 -11.5t25 -5t20.5 6t14.5 26l52 -15q-8 -51 -32.5 -71.5t-55.5 -20.5q-17 0 -34 5t-32.5 11.5t-29.5 11.5t-25 5t-20.5 -6.5t-15.5 -25.5z" />
    <glyph glyph-name="Adieresis" unicode="&#xc4;" horiz-adv-x="592" 
d="M16 0q21 81 44.5 164.5t48.5 166t51.5 162t52.5 151.5h166q26 -72 52.5 -151.5t51.5 -162t48.5 -166t44.5 -164.5h-129l-35 138h-234l-35 -138h-127zM382 246q-20 75 -42 146.5t-43 136.5h-4q-21 -65 -43 -136.5t-43 -146.5h175zM344 801h94v-95h-94v95zM158 801h94v-95
h-94v95z" />
    <glyph glyph-name="Aring" unicode="&#xc5;" horiz-adv-x="592" 
d="M16 0q21 81 44.5 164.5t48.5 166t51.5 162t52.5 151.5h166q26 -72 52.5 -151.5t51.5 -162t48.5 -166t44.5 -164.5h-129l-35 138h-234l-35 -138h-127zM382 246q-20 75 -42 146.5t-43 136.5h-4q-21 -65 -43 -136.5t-43 -146.5h175zM298 691q-42 0 -67 24.5t-25 66.5
t25 66.5t67 24.5t67 -24.5t25 -66.5t-25 -66.5t-67 -24.5zM298 733q23 0 34.5 14t11.5 35t-11.5 35t-34.5 14t-34.5 -14t-11.5 -35t11.5 -35t34.5 -14z" />
    <glyph glyph-name="AE" unicode="&#xc6;" horiz-adv-x="779" 
d="M6 0q31 81 65.5 164.5t70.5 166t73 162t74 151.5h450v-110h-246v-150h206v-108h-206v-166h246v-110h-372v138h-176l-53 -138h-132zM367 246v288h-4q-32 -69 -64.5 -141.5t-62.5 -146.5h131z" />
    <glyph glyph-name="Ccedilla" unicode="&#xc7;" horiz-adv-x="534" 
d="M327 -10q-76 0 -130 22t-88 64.5t-49.5 104.5t-15.5 142q0 77 15.5 138.5t50 104t90 65.5t135.5 23q41 0 81 -5t75 -12l-17 -108q-29 5 -68 10t-70 5q-50 0 -82 -15t-50 -44t-25 -71.5t-7 -96.5q0 -45 5.5 -84t23 -68.5t48.5 -46t82 -16.5q38 0 76 8.5t74 22.5l36 -103
q-47 -20 -92 -30t-98 -10zM279 -38q66 0 89.5 -19t23.5 -52q0 -42 -29 -62.5t-73 -20.5q-11 0 -26 2t-23 4l11 46q5 -2 12.5 -3t17.5 -1q23 0 36 8t13 25q0 15 -12.5 22t-49.5 7z" />
    <glyph glyph-name="Egrave" unicode="&#xc8;" 
d="M75 644h392v-110h-266v-150h226v-108h-226v-166h266v-110h-392v644zM157 790l67 78l123 -124l-45 -52z" />
    <glyph glyph-name="Eacute" unicode="&#xc9;" 
d="M75 644h392v-110h-266v-150h226v-108h-226v-166h266v-110h-392v644zM197 744l123 124l67 -78l-145 -98z" />
    <glyph glyph-name="Ecircumflex" unicode="&#xca;" 
d="M75 644h392v-110h-266v-150h226v-108h-226v-166h266v-110h-392v644zM140 724l90 106h84l90 -106l-41 -36l-91 80l-91 -80z" />
    <glyph glyph-name="Edieresis" unicode="&#xcb;" 
d="M75 644h392v-110h-266v-150h226v-108h-226v-166h266v-110h-392v644zM318 801h94v-95h-94v95zM132 801h94v-95h-94v95z" />
    <glyph glyph-name="Igrave" unicode="&#xcc;" horiz-adv-x="276" 
d="M75 644h126v-644h-126v644zM23 790l67 78l123 -124l-45 -52z" />
    <glyph glyph-name="Iacute" unicode="&#xcd;" horiz-adv-x="276" 
d="M75 644h126v-644h-126v644zM63 744l123 124l67 -78l-145 -98z" />
    <glyph glyph-name="Icircumflex" unicode="&#xce;" horiz-adv-x="276" 
d="M75 644h126v-644h-126v644zM6 724l90 106h84l90 -106l-41 -36l-91 80l-91 -80z" />
    <glyph glyph-name="Idieresis" unicode="&#xcf;" horiz-adv-x="276" 
d="M75 644h126v-644h-126v644zM184 801h94v-95h-94v95zM-2 801h94v-95h-94v95z" />
    <glyph glyph-name="Eth" unicode="&#xd0;" horiz-adv-x="627" 
d="M81 281h-64v98h64v257q50 8 101.5 13t93.5 5q165 0 238.5 -83t73.5 -249q0 -84 -18 -146t-56.5 -103.5t-99 -62t-144.5 -20.5q-16 0 -38 1t-47.5 2.5t-52 4t-51.5 5.5v278zM207 104q34 -3 62 -3q56 0 93 13t58.5 39.5t30.5 68t9 98.5t-9 99t-30.5 69.5t-57 41t-89.5 13.5
q-13 0 -31.5 -1t-35.5 -3v-160h122v-98h-122v-177z" />
    <glyph glyph-name="Ntilde" unicode="&#xd1;" horiz-adv-x="681" 
d="M75 644h171l232 -460h4v460h124v-644h-171l-232 460h-4v-460h-124v644zM192 726q9 51 33 71t56 20q16 0 33 -5t32.5 -11.5t29.5 -11.5t25 -5t20.5 6t14.5 26l52 -15q-8 -51 -32.5 -71.5t-55.5 -20.5q-17 0 -34 5t-32.5 11.5t-29.5 11.5t-25 5t-20.5 -6.5t-15.5 -25.5z
" />
    <glyph glyph-name="Ograve" unicode="&#xd2;" horiz-adv-x="652" 
d="M45 322q0 80 15 142t48.5 104t87 64t130.5 22t130.5 -22t87 -64t48.5 -104t15 -142t-15 -142t-48.5 -104t-87 -64t-130.5 -22t-130.5 22t-87 64t-48.5 104t-15 142zM173 322q0 -54 6.5 -95.5t23.5 -69.5t46.5 -42.5t76.5 -14.5q46 0 76 14.5t47 42.5t23.5 69.5t6.5 95.5
t-6.5 95.5t-23.5 69.5t-47 42.5t-76 14.5q-47 0 -76.5 -14.5t-46.5 -42.5t-23.5 -69.5t-6.5 -95.5zM211 790l67 78l123 -124l-45 -52z" />
    <glyph glyph-name="Oacute" unicode="&#xd3;" horiz-adv-x="652" 
d="M45 322q0 80 15 142t48.5 104t87 64t130.5 22t130.5 -22t87 -64t48.5 -104t15 -142t-15 -142t-48.5 -104t-87 -64t-130.5 -22t-130.5 22t-87 64t-48.5 104t-15 142zM173 322q0 -54 6.5 -95.5t23.5 -69.5t46.5 -42.5t76.5 -14.5q46 0 76 14.5t47 42.5t23.5 69.5t6.5 95.5
t-6.5 95.5t-23.5 69.5t-47 42.5t-76 14.5q-47 0 -76.5 -14.5t-46.5 -42.5t-23.5 -69.5t-6.5 -95.5zM251 744l123 124l67 -78l-145 -98z" />
    <glyph glyph-name="Ocircumflex" unicode="&#xd4;" horiz-adv-x="652" 
d="M45 322q0 80 15 142t48.5 104t87 64t130.5 22t130.5 -22t87 -64t48.5 -104t15 -142t-15 -142t-48.5 -104t-87 -64t-130.5 -22t-130.5 22t-87 64t-48.5 104t-15 142zM173 322q0 -54 6.5 -95.5t23.5 -69.5t46.5 -42.5t76.5 -14.5q46 0 76 14.5t47 42.5t23.5 69.5t6.5 95.5
t-6.5 95.5t-23.5 69.5t-47 42.5t-76 14.5q-47 0 -76.5 -14.5t-46.5 -42.5t-23.5 -69.5t-6.5 -95.5zM194 724l90 106h84l90 -106l-41 -36l-91 80l-91 -80z" />
    <glyph glyph-name="Otilde" unicode="&#xd5;" horiz-adv-x="652" 
d="M45 322q0 80 15 142t48.5 104t87 64t130.5 22t130.5 -22t87 -64t48.5 -104t15 -142t-15 -142t-48.5 -104t-87 -64t-130.5 -22t-130.5 22t-87 64t-48.5 104t-15 142zM173 322q0 -54 6.5 -95.5t23.5 -69.5t46.5 -42.5t76.5 -14.5q46 0 76 14.5t47 42.5t23.5 69.5t6.5 95.5
t-6.5 95.5t-23.5 69.5t-47 42.5t-76 14.5q-47 0 -76.5 -14.5t-46.5 -42.5t-23.5 -69.5t-6.5 -95.5zM178 726q9 51 33 71t56 20q16 0 33 -5t32.5 -11.5t29.5 -11.5t25 -5t20.5 6t14.5 26l52 -15q-8 -51 -32.5 -71.5t-55.5 -20.5q-17 0 -34 5t-32.5 11.5t-29.5 11.5t-25 5
t-20.5 -6.5t-15.5 -25.5z" />
    <glyph glyph-name="Odieresis" unicode="&#xd6;" horiz-adv-x="652" 
d="M45 322q0 80 15 142t48.5 104t87 64t130.5 22t130.5 -22t87 -64t48.5 -104t15 -142t-15 -142t-48.5 -104t-87 -64t-130.5 -22t-130.5 22t-87 64t-48.5 104t-15 142zM173 322q0 -54 6.5 -95.5t23.5 -69.5t46.5 -42.5t76.5 -14.5q46 0 76 14.5t47 42.5t23.5 69.5t6.5 95.5
t-6.5 95.5t-23.5 69.5t-47 42.5t-76 14.5q-47 0 -76.5 -14.5t-46.5 -42.5t-23.5 -69.5t-6.5 -95.5zM372 801h94v-95h-94v95zM186 801h94v-95h-94v95z" />
    <glyph glyph-name="multiply" unicode="&#xd7;" horiz-adv-x="588" 
d="M226 231l-125 125l68 68l125 -125l125 125l68 -68l-125 -125l125 -125l-68 -68l-125 125l-125 -125l-68 68z" />
    <glyph glyph-name="Oslash" unicode="&#xd8;" horiz-adv-x="652" 
d="M104 82q-31 42 -45 102.5t-14 137.5q0 80 15 142t48.5 104t87 64t130.5 22q97 0 159 -35l18 25h104l-59 -82q31 -42 45 -102.5t14 -137.5q0 -80 -15 -142t-48.5 -104t-87 -64t-130.5 -22q-97 0 -159 35l-18 -25h-104zM188 201l228 321q-32 22 -90 22q-47 0 -76.5 -14.5
t-46.5 -42.5t-23.5 -69.5t-6.5 -95.5q0 -37 3 -67.5t9 -52.5zM236 122q32 -22 90 -22q46 0 76 14.5t47 42.5t23.5 69.5t6.5 95.5q0 76 -12 120l-3 1z" />
    <glyph glyph-name="Ugrave" unicode="&#xd9;" horiz-adv-x="623" 
d="M60 644h126v-408q0 -71 28.5 -103.5t97.5 -32.5q70 0 98.5 32.5t28.5 103.5v408h124v-426q0 -60 -17.5 -103.5t-50 -71t-79.5 -40.5t-105 -13t-104.5 13t-79 40.5t-50 71t-17.5 103.5v426zM201 790l67 78l123 -124l-45 -52z" />
    <glyph glyph-name="Uacute" unicode="&#xda;" horiz-adv-x="623" 
d="M60 644h126v-408q0 -71 28.5 -103.5t97.5 -32.5q70 0 98.5 32.5t28.5 103.5v408h124v-426q0 -60 -17.5 -103.5t-50 -71t-79.5 -40.5t-105 -13t-104.5 13t-79 40.5t-50 71t-17.5 103.5v426zM241 744l123 124l67 -78l-145 -98z" />
    <glyph glyph-name="Ucircumflex" unicode="&#xdb;" horiz-adv-x="623" 
d="M60 644h126v-408q0 -71 28.5 -103.5t97.5 -32.5q70 0 98.5 32.5t28.5 103.5v408h124v-426q0 -60 -17.5 -103.5t-50 -71t-79.5 -40.5t-105 -13t-104.5 13t-79 40.5t-50 71t-17.5 103.5v426zM184 724l90 106h84l90 -106l-41 -36l-91 80l-91 -80z" />
    <glyph glyph-name="Udieresis" unicode="&#xdc;" horiz-adv-x="623" 
d="M60 644h126v-408q0 -71 28.5 -103.5t97.5 -32.5q70 0 98.5 32.5t28.5 103.5v408h124v-426q0 -60 -17.5 -103.5t-50 -71t-79.5 -40.5t-105 -13t-104.5 13t-79 40.5t-50 71t-17.5 103.5v426zM362 801h94v-95h-94v95zM176 801h94v-95h-94v95z" />
    <glyph glyph-name="Yacute" unicode="&#xdd;" horiz-adv-x="619" 
d="M247 241q-61 97 -116.5 196t-105.5 207h137q34 -75 71 -145.5t77 -139.5h4q40 69 77 139.5t71 145.5h132q-50 -108 -105 -207t-116 -196v-241h-126v241zM238 744l123 124l67 -78l-145 -98z" />
    <glyph glyph-name="Thorn" unicode="&#xde;" horiz-adv-x="571" 
d="M75 644h126v-104q42 3 76 3q56 0 104 -10.5t83.5 -35t56 -66t20.5 -103.5t-20.5 -104t-55.5 -68t-83 -37t-102 -11q-15 0 -36 1t-43 3v-112h-126v644zM201 219q17 -2 39 -3t36 -1q33 0 58.5 5t43 17t26.5 33t9 54q0 32 -9 53t-26.5 33.5t-42.5 17.5t-57 5q-19 0 -39.5 -1
t-37.5 -3v-210z" />
    <glyph glyph-name="germandbls" unicode="&#xdf;" horiz-adv-x="551" 
d="M62 471q0 89 54.5 136t155.5 47q38 0 72.5 -7.5t61 -23.5t42 -42.5t15.5 -63.5q0 -39 -17 -67t-47 -54q-23 -20 -38.5 -32t-15.5 -29q0 -10 6.5 -16.5t17.5 -12.5t26.5 -12t33.5 -14q47 -22 74.5 -53t27.5 -84q0 -66 -46.5 -109.5t-143.5 -43.5q-29 0 -63 4t-62 11
l17 102q21 -5 49.5 -9t53.5 -4q32 0 53.5 10t21.5 36q0 11 -4.5 18.5t-15 14.5t-27.5 14.5t-42 19.5q-22 10 -40 20.5t-30.5 23.5t-19.5 30.5t-7 42.5q0 33 13.5 57.5t42.5 50.5q23 20 42.5 37t19.5 40q0 21 -19 31t-52 10q-51 0 -71.5 -21t-20.5 -56v-473h-118v471z" />
    <glyph glyph-name="agrave" unicode="&#xe0;" horiz-adv-x="472" 
d="M32 136q0 71 50 109t145 38q19 0 35 -1.5t34 -3.5v16q0 39 -18 56.5t-65 17.5q-28 0 -64 -5t-63 -11l-19 100q32 7 72.5 13.5t83.5 6.5q93 0 142 -40t49 -124v-308h-84l-12 35q-20 -16 -52 -30.5t-76 -14.5q-32 0 -61 9.5t-50.5 28t-34 45.5t-12.5 63zM152 141
q0 -27 17 -41.5t46 -14.5q24 0 45.5 8.5t35.5 18.5v83q-16 2 -34.5 3t-30.5 1q-38 0 -58.5 -14.5t-20.5 -43.5zM121 614l67 78l123 -124l-45 -52z" />
    <glyph glyph-name="aacute" unicode="&#xe1;" horiz-adv-x="472" 
d="M32 136q0 71 50 109t145 38q19 0 35 -1.5t34 -3.5v16q0 39 -18 56.5t-65 17.5q-28 0 -64 -5t-63 -11l-19 100q32 7 72.5 13.5t83.5 6.5q93 0 142 -40t49 -124v-308h-84l-12 35q-20 -16 -52 -30.5t-76 -14.5q-32 0 -61 9.5t-50.5 28t-34 45.5t-12.5 63zM152 141
q0 -27 17 -41.5t46 -14.5q24 0 45.5 8.5t35.5 18.5v83q-16 2 -34.5 3t-30.5 1q-38 0 -58.5 -14.5t-20.5 -43.5zM161 568l123 124l67 -78l-145 -98z" />
    <glyph glyph-name="acircumflex" unicode="&#xe2;" horiz-adv-x="472" 
d="M32 136q0 71 50 109t145 38q19 0 35 -1.5t34 -3.5v16q0 39 -18 56.5t-65 17.5q-28 0 -64 -5t-63 -11l-19 100q32 7 72.5 13.5t83.5 6.5q93 0 142 -40t49 -124v-308h-84l-12 35q-20 -16 -52 -30.5t-76 -14.5q-32 0 -61 9.5t-50.5 28t-34 45.5t-12.5 63zM152 141
q0 -27 17 -41.5t46 -14.5q24 0 45.5 8.5t35.5 18.5v83q-16 2 -34.5 3t-30.5 1q-38 0 -58.5 -14.5t-20.5 -43.5zM104 548l90 106h84l90 -106l-41 -36l-91 80l-91 -80z" />
    <glyph glyph-name="atilde" unicode="&#xe3;" horiz-adv-x="472" 
d="M32 136q0 71 50 109t145 38q19 0 35 -1.5t34 -3.5v16q0 39 -18 56.5t-65 17.5q-28 0 -64 -5t-63 -11l-19 100q32 7 72.5 13.5t83.5 6.5q93 0 142 -40t49 -124v-308h-84l-12 35q-20 -16 -52 -30.5t-76 -14.5q-32 0 -61 9.5t-50.5 28t-34 45.5t-12.5 63zM152 141
q0 -27 17 -41.5t46 -14.5q24 0 45.5 8.5t35.5 18.5v83q-16 2 -34.5 3t-30.5 1q-38 0 -58.5 -14.5t-20.5 -43.5zM88 550q9 51 33 71t56 20q16 0 33 -5t32.5 -11.5t29.5 -11.5t25 -5t20.5 6t14.5 26l52 -15q-8 -51 -32.5 -71.5t-55.5 -20.5q-17 0 -34 5t-32.5 11.5t-29.5 11.5
t-25 5t-20.5 -6.5t-15.5 -25.5z" />
    <glyph glyph-name="adieresis" unicode="&#xe4;" horiz-adv-x="472" 
d="M32 136q0 71 50 109t145 38q19 0 35 -1.5t34 -3.5v16q0 39 -18 56.5t-65 17.5q-28 0 -64 -5t-63 -11l-19 100q32 7 72.5 13.5t83.5 6.5q93 0 142 -40t49 -124v-308h-84l-12 35q-20 -16 -52 -30.5t-76 -14.5q-32 0 -61 9.5t-50.5 28t-34 45.5t-12.5 63zM152 141
q0 -27 17 -41.5t46 -14.5q24 0 45.5 8.5t35.5 18.5v83q-16 2 -34.5 3t-30.5 1q-38 0 -58.5 -14.5t-20.5 -43.5zM282 625h94v-95h-94v95zM96 625h94v-95h-94v95z" />
    <glyph glyph-name="aring" unicode="&#xe5;" horiz-adv-x="472" 
d="M32 136q0 71 50 109t145 38q19 0 35 -1.5t34 -3.5v16q0 39 -18 56.5t-65 17.5q-28 0 -64 -5t-63 -11l-19 100q32 7 72.5 13.5t83.5 6.5q93 0 142 -40t49 -124v-308h-84l-12 35q-20 -16 -52 -30.5t-76 -14.5q-32 0 -61 9.5t-50.5 28t-34 45.5t-12.5 63zM152 141
q0 -27 17 -41.5t46 -14.5q24 0 45.5 8.5t35.5 18.5v83q-16 2 -34.5 3t-30.5 1q-38 0 -58.5 -14.5t-20.5 -43.5zM236 515q-42 0 -67 24.5t-25 66.5t25 66.5t67 24.5t67 -24.5t25 -66.5t-25 -66.5t-67 -24.5zM236 557q23 0 34.5 14t11.5 35t-11.5 35t-34.5 14t-34.5 -14
t-11.5 -35t11.5 -35t34.5 -14z" />
    <glyph glyph-name="ae" unicode="&#xe6;" horiz-adv-x="686" 
d="M32 136q0 73 49 110t137 37q17 0 33 -1.5t33 -3.5v16q0 40 -17.5 57t-61.5 17q-13 0 -29 -1.5t-32 -3.5t-31.5 -5t-28.5 -6l-19 100q32 8 71.5 14t79.5 6q43 0 77.5 -10t58.5 -32h4q23 20 52.5 31t67.5 11q85 0 131 -52.5t46 -149.5q0 -17 -1.5 -40.5t-5.5 -41.5h-245
q5 -50 27 -72t66 -22q30 0 62 8t58 18l33 -96q-35 -15 -75.5 -24.5t-82.5 -9.5q-102 0 -154 60q-29 -32 -67.5 -46t-82.5 -14q-31 0 -59 9t-49 27.5t-33 46t-12 63.5zM536 280q-1 88 -65 88q-35 0 -51 -23.5t-19 -64.5h135zM152 141q0 -28 16 -42t42 -14q48 0 87 37
q-9 33 -12 73q-14 2 -31.5 3t-28.5 1q-34 0 -53.5 -13.5t-19.5 -44.5z" />
    <glyph glyph-name="ccedilla" unicode="&#xe7;" horiz-adv-x="412" 
d="M32 232q0 58 12 103t39 75.5t70.5 46t105.5 15.5q29 0 57.5 -3.5t58.5 -10.5l-13 -100q-24 4 -51 7t-50 3q-32 0 -52.5 -7t-33.5 -23t-18 -42.5t-5 -65.5q0 -34 4 -59.5t14.5 -42.5t28.5 -25.5t46 -8.5q30 0 64 7.5t58 15.5l29 -97q-35 -14 -74 -22t-81 -8
q-109 0 -159 60.5t-50 181.5zM190 -38q66 0 89.5 -19t23.5 -52q0 -42 -29 -62.5t-73 -20.5q-11 0 -26 2t-23 4l11 46q5 -2 12.5 -3t17.5 -1q23 0 36 8t13 25q0 15 -12.5 22t-49.5 7z" />
    <glyph glyph-name="egrave" unicode="&#xe8;" horiz-adv-x="451" 
d="M31 229q0 118 51.5 180.5t149.5 62.5q90 0 138 -52.5t48 -152.5q0 -17 -1.5 -39.5t-5.5 -39.5h-259q5 -49 29.5 -71.5t70.5 -22.5q32 0 66.5 8.5t60.5 17.5l33 -96q-36 -15 -77.5 -24.5t-86.5 -9.5q-106 0 -161.5 59t-55.5 180zM301 280q-2 44 -19 66t-53 22
q-38 0 -55.5 -23.5t-21.5 -64.5h149zM116 614l67 78l123 -124l-45 -52z" />
    <glyph glyph-name="eacute" unicode="&#xe9;" horiz-adv-x="451" 
d="M31 229q0 118 51.5 180.5t149.5 62.5q90 0 138 -52.5t48 -152.5q0 -17 -1.5 -39.5t-5.5 -39.5h-259q5 -49 29.5 -71.5t70.5 -22.5q32 0 66.5 8.5t60.5 17.5l33 -96q-36 -15 -77.5 -24.5t-86.5 -9.5q-106 0 -161.5 59t-55.5 180zM301 280q-2 44 -19 66t-53 22
q-38 0 -55.5 -23.5t-21.5 -64.5h149zM156 568l123 124l67 -78l-145 -98z" />
    <glyph glyph-name="ecircumflex" unicode="&#xea;" horiz-adv-x="451" 
d="M31 229q0 118 51.5 180.5t149.5 62.5q90 0 138 -52.5t48 -152.5q0 -17 -1.5 -39.5t-5.5 -39.5h-259q5 -49 29.5 -71.5t70.5 -22.5q32 0 66.5 8.5t60.5 17.5l33 -96q-36 -15 -77.5 -24.5t-86.5 -9.5q-106 0 -161.5 59t-55.5 180zM301 280q-2 44 -19 66t-53 22
q-38 0 -55.5 -23.5t-21.5 -64.5h149zM99 548l90 106h84l90 -106l-41 -36l-91 80l-91 -80z" />
    <glyph glyph-name="edieresis" unicode="&#xeb;" horiz-adv-x="451" 
d="M31 229q0 118 51.5 180.5t149.5 62.5q90 0 138 -52.5t48 -152.5q0 -17 -1.5 -39.5t-5.5 -39.5h-259q5 -49 29.5 -71.5t70.5 -22.5q32 0 66.5 8.5t60.5 17.5l33 -96q-36 -15 -77.5 -24.5t-86.5 -9.5q-106 0 -161.5 59t-55.5 180zM301 280q-2 44 -19 66t-53 22
q-38 0 -55.5 -23.5t-21.5 -64.5h149zM277 625h94v-95h-94v95zM91 625h94v-95h-94v95z" />
    <glyph glyph-name="igrave" unicode="&#xec;" horiz-adv-x="242" 
d="M62 462h118v-462h-118v462zM6 614l67 78l123 -124l-45 -52z" />
    <glyph glyph-name="iacute" unicode="&#xed;" horiz-adv-x="242" 
d="M62 462h118v-462h-118v462zM46 568l123 124l67 -78l-145 -98z" />
    <glyph glyph-name="icircumflex" unicode="&#xee;" horiz-adv-x="242" 
d="M62 462h118v-462h-118v462zM-11 548l90 106h84l90 -106l-41 -36l-91 80l-91 -80z" />
    <glyph glyph-name="idieresis" unicode="&#xef;" horiz-adv-x="242" 
d="M62 462h118v-462h-118v462zM167 625h94v-95h-94v95zM-19 625h94v-95h-94v95z" />
    <glyph glyph-name="eth" unicode="&#xf0;" horiz-adv-x="489" 
d="M32 236q0 65 16 110t42 73t60 40.5t70 12.5q16 0 29.5 -1.5t31.5 -4.5q-23 41 -52 72l-73 -47l-43 68l57 36l-46 35l55 73q20 -10 40.5 -22.5t40.5 -27.5l77 49l43 -68l-59 -37q22 -23 41 -48.5t33 -51.5q32 -60 45.5 -128.5t13.5 -131.5q0 -59 -11 -104.5t-36 -77.5
t-65.5 -48.5t-98.5 -16.5q-59 0 -99.5 17t-65 48.5t-35.5 77t-11 103.5zM243 95q30 0 48 11t27.5 30t12.5 44t3 52q0 30 -2.5 59.5t-10.5 61.5q-18 6 -38.5 10t-39.5 4q-50 0 -70.5 -29.5t-20.5 -103.5q0 -29 3 -54t12.5 -44t27.5 -30t48 -11z" />
    <glyph glyph-name="ntilde" unicode="&#xf1;" 
d="M62 462h84l10 -34q30 21 66 32.5t74 11.5q41 0 70 -12.5t48 -34t27.5 -50.5t8.5 -63v-312h-118v297q0 34 -15 52.5t-52 18.5q-23 0 -45.5 -7t-39.5 -15v-346h-118v462zM108 550q9 51 33 71t56 20q16 0 33 -5t32.5 -11.5t29.5 -11.5t25 -5t20.5 6t14.5 26l52 -15
q-8 -51 -32.5 -71.5t-55.5 -20.5q-17 0 -34 5t-32.5 11.5t-29.5 11.5t-25 5t-20.5 -6.5t-15.5 -25.5z" />
    <glyph glyph-name="ograve" unicode="&#xf2;" horiz-adv-x="486" 
d="M32 231q0 55 11 100t36 76t65.5 48t98.5 17t98.5 -17t65.5 -48t36 -76t11 -100q0 -56 -11 -100.5t-36 -75.5t-65.5 -48t-98.5 -17t-98.5 17t-65.5 48t-36 75.5t-11 100.5zM152 231q0 -29 3 -53.5t12.5 -43.5t27.5 -29.5t48 -10.5t48 10.5t27.5 29.5t12.5 43.5t3 53.5
q0 28 -3 53t-12.5 44t-27.5 29.5t-48 10.5t-48 -10.5t-27.5 -29.5t-12.5 -44t-3 -53zM128 614l67 78l123 -124l-45 -52z" />
    <glyph glyph-name="oacute" unicode="&#xf3;" horiz-adv-x="486" 
d="M32 231q0 55 11 100t36 76t65.5 48t98.5 17t98.5 -17t65.5 -48t36 -76t11 -100q0 -56 -11 -100.5t-36 -75.5t-65.5 -48t-98.5 -17t-98.5 17t-65.5 48t-36 75.5t-11 100.5zM152 231q0 -29 3 -53.5t12.5 -43.5t27.5 -29.5t48 -10.5t48 10.5t27.5 29.5t12.5 43.5t3 53.5
q0 28 -3 53t-12.5 44t-27.5 29.5t-48 10.5t-48 -10.5t-27.5 -29.5t-12.5 -44t-3 -53zM168 568l123 124l67 -78l-145 -98z" />
    <glyph glyph-name="ocircumflex" unicode="&#xf4;" horiz-adv-x="486" 
d="M32 231q0 55 11 100t36 76t65.5 48t98.5 17t98.5 -17t65.5 -48t36 -76t11 -100q0 -56 -11 -100.5t-36 -75.5t-65.5 -48t-98.5 -17t-98.5 17t-65.5 48t-36 75.5t-11 100.5zM152 231q0 -29 3 -53.5t12.5 -43.5t27.5 -29.5t48 -10.5t48 10.5t27.5 29.5t12.5 43.5t3 53.5
q0 28 -3 53t-12.5 44t-27.5 29.5t-48 10.5t-48 -10.5t-27.5 -29.5t-12.5 -44t-3 -53zM111 548l90 106h84l90 -106l-41 -36l-91 80l-91 -80z" />
    <glyph glyph-name="otilde" unicode="&#xf5;" horiz-adv-x="486" 
d="M32 231q0 55 11 100t36 76t65.5 48t98.5 17t98.5 -17t65.5 -48t36 -76t11 -100q0 -56 -11 -100.5t-36 -75.5t-65.5 -48t-98.5 -17t-98.5 17t-65.5 48t-36 75.5t-11 100.5zM152 231q0 -29 3 -53.5t12.5 -43.5t27.5 -29.5t48 -10.5t48 10.5t27.5 29.5t12.5 43.5t3 53.5
q0 28 -3 53t-12.5 44t-27.5 29.5t-48 10.5t-48 -10.5t-27.5 -29.5t-12.5 -44t-3 -53zM95 550q9 51 33 71t56 20q16 0 33 -5t32.5 -11.5t29.5 -11.5t25 -5t20.5 6t14.5 26l52 -15q-8 -51 -32.5 -71.5t-55.5 -20.5q-17 0 -34 5t-32.5 11.5t-29.5 11.5t-25 5t-20.5 -6.5
t-15.5 -25.5z" />
    <glyph glyph-name="odieresis" unicode="&#xf6;" horiz-adv-x="486" 
d="M32 231q0 55 11 100t36 76t65.5 48t98.5 17t98.5 -17t65.5 -48t36 -76t11 -100q0 -56 -11 -100.5t-36 -75.5t-65.5 -48t-98.5 -17t-98.5 17t-65.5 48t-36 75.5t-11 100.5zM152 231q0 -29 3 -53.5t12.5 -43.5t27.5 -29.5t48 -10.5t48 10.5t27.5 29.5t12.5 43.5t3 53.5
q0 28 -3 53t-12.5 44t-27.5 29.5t-48 10.5t-48 -10.5t-27.5 -29.5t-12.5 -44t-3 -53zM289 625h94v-95h-94v95zM103 625h94v-95h-94v95z" />
    <glyph glyph-name="divide" unicode="&#xf7;" horiz-adv-x="588" 
d="M238 462h112v-115h-112v115zM64 278h460v-94h-460v94zM238 115h112v-115h-112v115z" />
    <glyph glyph-name="oslash" unicode="&#xf8;" horiz-adv-x="486" 
d="M75 61q-23 31 -33 73.5t-10 96.5q0 55 11 100t36 76t65.5 48t98.5 17q64 0 110 -22l8 12h93l-43 -61q23 -31 33 -73.5t10 -96.5q0 -56 -11 -100.5t-36 -75.5t-65.5 -48t-98.5 -17q-64 0 -110 22l-8 -12h-93zM159 178l129 181q-18 9 -45 9q-30 0 -48 -10.5t-27.5 -29.5
t-12.5 -44t-3 -53q0 -15 0.5 -29t2.5 -23zM198 103q18 -9 45 -9q30 0 48 10.5t27.5 29.5t12.5 43.5t3 53.5q0 15 -0.5 29t-2.5 23l-4 1z" />
    <glyph glyph-name="ugrave" unicode="&#xf9;" 
d="M57 462h118v-297q0 -34 15 -52.5t52 -18.5q23 0 45.5 7t39.5 15v346h118v-462h-84l-10 34q-29 -21 -65.5 -32.5t-74.5 -11.5q-41 0 -70 12.5t-48 34t-27.5 50.5t-8.5 63v312zM136 614l67 78l123 -124l-45 -52z" />
    <glyph glyph-name="uacute" unicode="&#xfa;" 
d="M57 462h118v-297q0 -34 15 -52.5t52 -18.5q23 0 45.5 7t39.5 15v346h118v-462h-84l-10 34q-29 -21 -65.5 -32.5t-74.5 -11.5q-41 0 -70 12.5t-48 34t-27.5 50.5t-8.5 63v312zM176 568l123 124l67 -78l-145 -98z" />
    <glyph glyph-name="ucircumflex" unicode="&#xfb;" 
d="M57 462h118v-297q0 -34 15 -52.5t52 -18.5q23 0 45.5 7t39.5 15v346h118v-462h-84l-10 34q-29 -21 -65.5 -32.5t-74.5 -11.5q-41 0 -70 12.5t-48 34t-27.5 50.5t-8.5 63v312zM119 548l90 106h84l90 -106l-41 -36l-91 80l-91 -80z" />
    <glyph glyph-name="udieresis" unicode="&#xfc;" 
d="M57 462h118v-297q0 -34 15 -52.5t52 -18.5q23 0 45.5 7t39.5 15v346h118v-462h-84l-10 34q-29 -21 -65.5 -32.5t-74.5 -11.5q-41 0 -70 12.5t-48 34t-27.5 50.5t-8.5 63v312zM297 625h94v-95h-94v95zM111 625h94v-95h-94v95z" />
    <glyph glyph-name="yacute" unicode="&#xfd;" horiz-adv-x="481" 
d="M154 0q-15 38 -33 93.5t-35.5 118.5t-34 128t-28.5 122h118q19 -88 43 -182t49 -172h4q28 86 54.5 175.5t50.5 178.5h116q-23 -84 -48 -170t-51.5 -168.5t-53.5 -160.5t-54 -145h-116q17 42 33.5 87.5t33.5 94.5h-48zM165 568l123 124l67 -78l-145 -98z" />
    <glyph glyph-name="thorn" unicode="&#xfe;" horiz-adv-x="493" 
d="M180 -182h-118v826h118v-200q20 11 44.5 19.5t58.5 8.5q85 0 130.5 -59t45.5 -179q0 -125 -50.5 -184.5t-147.5 -59.5q-22 0 -43 2.5t-38 6.5v-181zM180 99q16 -5 33 -7t32 -2q55 0 74.5 32t19.5 106q0 77 -18 108.5t-63 31.5q-24 0 -43.5 -6t-34.5 -14v-249z" />
    <glyph glyph-name="ydieresis" unicode="&#xff;" horiz-adv-x="481" 
d="M154 0q-15 38 -33 93.5t-35.5 118.5t-34 128t-28.5 122h118q19 -88 43 -182t49 -172h4q28 86 54.5 175.5t50.5 178.5h116q-23 -84 -48 -170t-51.5 -168.5t-53.5 -160.5t-54 -145h-116q17 42 33.5 87.5t33.5 94.5h-48zM286 625h94v-95h-94v95zM100 625h94v-95h-94v95z" />
    <glyph glyph-name="dotlessi" unicode="&#x131;" horiz-adv-x="242" 
d="M62 462h118v-462h-118v462z" />
    <glyph glyph-name="OE" unicode="&#x152;" horiz-adv-x="803" 
d="M45 322q0 77 15 137t50.5 101t94.5 62.5t148 21.5h410v-110h-246v-150h206v-108h-206v-166h246v-110h-410q-89 0 -148 21.5t-94.5 62.5t-50.5 101t-15 137zM391 110v424h-47q-51 0 -84 -12t-52.5 -37.5t-27 -65.5t-7.5 -97t7.5 -97t27 -65.5t52.5 -37.5t84 -12h47z" />
    <glyph glyph-name="oe" unicode="&#x153;" horiz-adv-x="722" 
d="M32 231q0 56 10.5 100.5t34.5 76t62.5 48t94.5 16.5q48 0 83 -13t59 -39h4q24 25 57 38.5t75 13.5q85 0 131 -52.5t46 -149.5q0 -17 -1.5 -40.5t-5.5 -41.5h-245q5 -50 27 -72t66 -22q30 0 62 8t58 18l32 -96q-35 -15 -75 -24.5t-83 -9.5q-93 0 -145 50h-4
q-23 -25 -57.5 -37.5t-83.5 -12.5q-56 0 -94.5 16.5t-62.5 48t-34.5 76t-10.5 100.5zM572 280q-2 45 -17.5 66.5t-48.5 21.5q-35 0 -50.5 -23.5t-19.5 -64.5h136zM234 94q27 0 43.5 10.5t25.5 28.5t11.5 43t2.5 55t-2.5 55t-11.5 43t-25.5 28.5t-43.5 10.5t-43 -10.5
t-25 -28.5t-11.5 -43t-2.5 -55t2.5 -55t11.5 -43t25 -28.5t43 -10.5z" />
    <glyph glyph-name="Scaron" unicode="&#x160;" horiz-adv-x="496" 
d="M47 118q16 -3 37.5 -6t44 -6t45 -4.5t41.5 -1.5q68 0 98.5 22t30.5 62q0 18 -6.5 30.5t-22.5 23t-41.5 21t-63.5 24.5q-33 12 -64.5 26.5t-56 35t-39 49.5t-14.5 72q0 85 62 136.5t183 51.5q39 0 81 -5.5t84 -13.5l-16 -109q-15 3 -34 6t-40 5.5t-42 4.5t-39 2
q-21 0 -41 -3t-35.5 -11t-24.5 -21t-9 -33q0 -21 10.5 -35t29 -24.5t44 -19.5t56.5 -20t61 -26t53.5 -36.5t38 -53t14.5 -75.5q0 -89 -64.5 -142.5t-194.5 -53.5q-43 0 -92 5.5t-91 12.5zM111 803l41 36l91 -80l91 80l41 -36l-90 -106h-84z" />
    <glyph glyph-name="scaron" unicode="&#x161;" horiz-adv-x="403" 
d="M45 108q29 -5 64.5 -9.5t67.5 -4.5q38 0 60 8.5t22 28.5q0 21 -27.5 30.5t-77.5 26.5q-29 10 -52 22t-39.5 28.5t-25.5 38t-9 50.5q0 69 50.5 107t144.5 38q32 0 66.5 -4t64.5 -10l-14 -102q-26 5 -58.5 8.5t-59.5 3.5q-74 0 -74 -34q0 -11 8 -18t22 -13t33 -11.5
t41 -13.5q30 -11 54 -23.5t40 -29t24.5 -38t8.5 -50.5q0 -69 -49 -108t-156 -39q-35 0 -74 4t-70 11zM71 627l41 36l91 -80l91 80l41 -36l-90 -106h-84z" />
    <glyph glyph-name="Ydieresis" unicode="&#x178;" horiz-adv-x="619" 
d="M247 241q-61 97 -116.5 196t-105.5 207h137q34 -75 71 -145.5t77 -139.5h4q40 69 77 139.5t71 145.5h132q-50 -108 -105 -207t-116 -196v-241h-126v241zM359 801h94v-95h-94v95zM173 801h94v-95h-94v95z" />
    <glyph glyph-name="Zcaron" unicode="&#x17d;" horiz-adv-x="511" 
d="M32 92l285 442h-276v110h436v-92l-285 -442h291v-110h-451v92zM127 803l41 36l91 -80l91 80l41 -36l-90 -106h-84z" />
    <glyph glyph-name="zcaron" unicode="&#x17e;" horiz-adv-x="416" 
d="M32 72l192 285h-189v105h349v-72l-192 -285h195v-105h-355v72zM77 627l41 36l91 -80l91 80l41 -36l-90 -106h-84z" />
    <glyph glyph-name="florin" unicode="&#x192;" horiz-adv-x="373" 
d="M117 364h-70v88l70 5v35q0 83 44 122.5t128 39.5q20 0 38.5 -2t35.5 -4l-7 -102q-13 2 -29 3t-29 1q-35 0 -49 -12.5t-14 -45.5v-30h98v-98h-98v-406q0 -78 -40.5 -114t-112.5 -36q-26 0 -49.5 4t-43.5 10l16 98q14 -4 31 -6.5t31 -2.5q28 0 39 11t11 40v402z" />
    <glyph glyph-name="uni0237" unicode="&#x237;" horiz-adv-x="244" 
d="M64 462h118v-360q0 -98 -12 -165.5t-46 -118.5h-112q15 34 25 64.5t16 63.5t8.5 70t2.5 84v362z" />
    <glyph glyph-name="circumflex" unicode="&#x2c6;" horiz-adv-x="330" 
d="M33 548l90 106h84l90 -106l-41 -36l-91 80l-91 -80z" />
    <glyph glyph-name="tilde" unicode="&#x2dc;" horiz-adv-x="330" 
d="M17 550q9 51 33 71t56 20q16 0 33 -5t32.5 -11.5t29.5 -11.5t25 -5t20.5 6t14.5 26l52 -15q-8 -51 -32.5 -71.5t-55.5 -20.5q-17 0 -34 5t-32.5 11.5t-29.5 11.5t-25 5t-20.5 -6.5t-15.5 -25.5z" />
    <glyph glyph-name="endash" unicode="&#x2013;" horiz-adv-x="635" 
d="M64 292h507v-84h-507v84z" />
    <glyph glyph-name="emdash" unicode="&#x2014;" horiz-adv-x="718" 
d="M28 290h662v-80h-662v80z" />
    <glyph glyph-name="quoteleft" unicode="&#x2018;" horiz-adv-x="220" 
d="M62 438q-3 25 -3 48q0 45 13 91.5t36 85.5l48 -6q-4 -29 -6 -59.5t-2 -63.5q0 -21 1 -44.5t3 -47.5l-90 -4v0z" />
    <glyph glyph-name="quoteright" unicode="&#x2019;" horiz-adv-x="220" 
d="M64 439q4 29 6 59.5t2 63.5q0 21 -1 44.5t-3 47.5l90 4q3 -26 3 -48q0 -45 -13 -91.5t-36 -85.5l-48 6v0z" />
    <glyph glyph-name="quotesinglbase" unicode="&#x201a;" horiz-adv-x="220" 
d="M64 -134q4 29 6 59.5t2 63.5q0 21 -1 44.5t-3 47.5l90 4q3 -26 3 -48q0 -45 -13 -91.5t-36 -85.5l-48 6v0z" />
    <glyph glyph-name="quotedblleft" unicode="&#x201c;" horiz-adv-x="364" 
d="M62 438q-3 25 -3 48q0 45 13 91.5t36 85.5l48 -6q-4 -29 -6 -59.5t-2 -63.5q0 -21 1 -44.5t3 -47.5zM206 438q-3 25 -3 48q0 45 13 91.5t36 85.5l48 -6q-4 -29 -6 -59.5t-2 -63.5q0 -21 1 -44.5t3 -47.5z" />
    <glyph glyph-name="quotedblright" unicode="&#x201d;" horiz-adv-x="364" 
d="M64 439q4 29 6 59.5t2 63.5q0 21 -1 44.5t-3 47.5l90 4q3 -26 3 -48q0 -45 -13 -91.5t-36 -85.5zM208 439q4 29 6 59.5t2 63.5q0 21 -1 44.5t-3 47.5l90 4q3 -26 3 -48q0 -45 -13 -91.5t-36 -85.5z" />
    <glyph glyph-name="quotedblbase" unicode="&#x201e;" horiz-adv-x="364" 
d="M64 -134q4 29 6 59.5t2 63.5q0 21 -1 44.5t-3 47.5l90 4q3 -26 3 -48q0 -45 -13 -91.5t-36 -85.5zM208 -134q4 29 6 59.5t2 63.5q0 21 -1 44.5t-3 47.5l90 4q3 -26 3 -48q0 -45 -13 -91.5t-36 -85.5z" />
    <glyph glyph-name="dagger" unicode="&#x2020;" horiz-adv-x="502" 
d="M202 399h-142v94h142v151h98v-151h142v-94h-142v-399h-98v399z" />
    <glyph glyph-name="daggerdbl" unicode="&#x2021;" horiz-adv-x="502" 
d="M60 245h142v154h-142v94h142v151h98v-151h142v-94h-142v-154h142v-94h-142v-151h-98v151h-142v94z" />
    <glyph glyph-name="bullet" unicode="&#x2022;" horiz-adv-x="362" 
d="M181 211q-117 0 -117 115t117 115t117 -115t-117 -115z" />
    <glyph glyph-name="ellipsis" unicode="&#x2026;" horiz-adv-x="636" 
d="M261 116h114v-116h-114v116zM464 116h114v-116h-114v116zM58 116h114v-116h-114v116z" />
    <glyph glyph-name="perthousand" unicode="&#x2030;" horiz-adv-x="1109" 
d="M185 336q-75 0 -111 44t-36 115t36 115t111 44t111 -44t36 -115t-36 -115t-111 -44zM185 413q35 0 45.5 22t10.5 58t-10.5 60t-45.5 24t-45.5 -22t-10.5 -58t10.5 -60t45.5 -24zM544 644h82l-402 -644h-82zM583 308q75 0 111 -44t36 -115t-36 -115t-111 -44t-111 44
t-36 115t36 115t111 44zM583 231q-35 0 -45.5 -22t-10.5 -58t10.5 -60t45.5 -24t45.5 22t10.5 58t-10.5 60t-45.5 24zM924 308q75 0 111 -44t36 -115t-36 -115t-111 -44t-111 44t-36 115t36 115t111 44zM924 231q-35 0 -45.5 -22t-10.5 -58t10.5 -60t45.5 -24t45.5 22
t10.5 58t-10.5 60t-45.5 24z" />
    <glyph glyph-name="guilsinglleft" unicode="&#x2039;" horiz-adv-x="293" 
d="M33 231q0 19 7.5 37t26.5 40t54.5 55t73.5 68l59 -60q-11 -9 -24 -20.5t-26 -23.5t-25 -23t-20 -19q-18 -18 -25.5 -30.5t-7.5 -23.5t7.5 -23.5t25.5 -30.5q8 -8 20 -19t25 -23t26 -23.5t24 -20.5l-59 -60q-38 35 -73.5 68t-54.5 55t-26.5 40t-7.5 37z" />
    <glyph glyph-name="guilsinglright" unicode="&#x203a;" horiz-adv-x="293" 
d="M260 231q0 -19 -7.5 -37t-26.5 -40t-54.5 -55t-73.5 -68l-59 60q10 9 23.5 20.5t26.5 23.5t25 23t20 19q18 18 25.5 30.5t7.5 23.5t-7.5 23.5t-25.5 30.5q-8 8 -20 19t-25 23t-26.5 23.5t-23.5 20.5l59 60q38 -35 73.5 -68t54.5 -55t26.5 -40t7.5 -37z" />
    <glyph glyph-name="Euro" unicode="&#x20ac;" horiz-adv-x="602" 
d="M43 300h59q-2 24 0 49h-57v92h68q20 100 85.5 156.5t190.5 56.5q40 0 79 -5t74 -12l-17 -108q-29 5 -67 10t-68 5q-66 0 -99.5 -26t-47.5 -77h196v-92h-209q-2 -25 0 -49h209v-92h-198q13 -48 45.5 -77t98.5 -29q38 0 75 8.5t72 22.5l36 -103q-45 -20 -90 -30t-97 -10
q-122 0 -186 56t-84 162h-68v92z" />
    <glyph glyph-name="trademark" unicode="&#x2122;" horiz-adv-x="739" 
d="M328 286q0 47 0.5 96.5t1.5 96.5t3 89.5t5 75.5h102l70 -187h4l72 187h96q3 -33 5 -75.5t3 -89.5t1.5 -96.5t0.5 -96.5h-78v56t-0.5 63t-1 62.5t-0.5 55.5h-4l-64 -165h-72l-62 165h-4q-1 -25 -1.5 -56t-0.5 -63v-63v-55h-76zM122 573h-98v71h274v-71h-98v-287h-78v287z
" />
    </font>
</defs>
</svg>
