<svg xmlns="http://www.w3.org/2000/svg" viewBox="0 0 1927.64 1334.44"><defs><style>.cls-1{fill:#f2f2f2;}.cls-2{fill:#e6e6e6;}.cls-3{fill:#ccc;}.cls-4{fill:#f8f7fc;}</style></defs><title>Asset 5</title><g id="Layer_2" data-name="Layer 2"><g id="Layer_1-2" data-name="Layer 1"><path class="cls-1" d="M.64,1323.94,0,538.36l512.69,70.87L713.4,759.72s95.68-64.48,147.74-65S1146,448.59,1259.28,512.38s156.2,109.18,156.2,109.18,61.25-218.48,171.5-192.18,189.88,224.73,189.88,224.73,92.67-100.53,150.46-32.55l.32,712.88Z"/><path class="cls-2" d="M0,885.74s789.73-3.57,911.19-31,188.84,1.23,244,0,269.51-48.68,401.2-32,371.29,6.62,371.29,6.62v505l-1927-9Z"/><path class="cls-3" d="M0,913.35s172.38-11.55,212.19-11.44,392,77.53,572.71,70,474.7-55.89,637-52.49,505.72,27.93,505.72,27.93v387.12L.64,1326Z"/><path class="cls-4" d="M478.33,151.5H464.46c-5.82-9.83-16.73-22.6-32.76-18.34,0,0-49.63-89.64-95.06-28,0,0-45.43-36.07-59.41,10.24,0,0-31.45-27.32-56.81,36.08H202c-4,0-7.32,3.78-7.32,8.4s3.3,8.4,7.32,8.4H478.33c4,0,7.31-3.78,7.31-8.4S482.35,151.5,478.33,151.5Z"/><path class="cls-4" d="M1839,156.81h-29.45c-12.34-22.68-35.5-52.13-69.55-42.3,0,0-105.37-206.82-201.82-64.55,0,0-96.45-83.24-126.12,23.6,0,0-66.79-63-120.64,83.25h-39.12c-8.54,0-15.53,8.72-15.53,19.38s7,19.39,15.53,19.39H1839c8.55,0,15.54-8.73,15.54-19.39S1847.52,156.81,1839,156.81Z"/><rect x="0.17" y="980" width="1922.88" height="121"/></g></g></svg>