<svg xmlns="http://www.w3.org/2000/svg" viewBox="0 0 613.39 768.83"><defs><style>.cls-1{fill:#b7b8b9;}.cls-2{fill:#9b9b9b;}.cls-10,.cls-11,.cls-14,.cls-2,.cls-8{opacity:0.5;}.cls-3{fill:gray;}.cls-4,.cls-8{fill:#848383;}.cls-5{fill:#999;}.cls-6{fill:#d3d4d5;}.cls-7{fill:#333;}.cls-9{fill:#f2f2f2;}.cls-10,.cls-13{fill:#cccdce;}.cls-12,.cls-14{fill:#b2b2b2;}.cls-15{fill:none;stroke:#fff;stroke-linecap:round;stroke-miterlimit:10;stroke-width:3.5px;}.cls-16{fill:#fff;}</style></defs><title>Asset 6</title><g id="Layer_2" data-name="Layer 2"><g id="Layer_1-2" data-name="Layer 1"><rect class="cls-1" x="204.96" y="181.63" width="199.99" height="514.95"/><path class="cls-2" d="M205,696.59v-515H405C268.81,255.08,218,449.14,205,696.59Z"/><path class="cls-3" d="M226.53,150.91H312c5.08,0,9.21-1.79,9.21-4s-4.13-4-9.21-4H239.8Z"/><path d="M281.87,117.23,239.8,142.69H312c5.08,0,9.21,1.8,9.21,4s-4.13,4-9.21,4H226.53l-23.87,14.44c-8.65,5.23-4.92,18.53,5.19,18.51l194.87-.36c9.14,0,12.16-12.25,4.08-16.52l-95.45-50.41A29.94,29.94,0,0,0,281.87,117.23Z"/><path class="cls-4" d="M299.59,267.39h12.76a10.7,10.7,0,0,1,10.7,10.7v89.53a0,0,0,0,1,0,0H288.89a0,0,0,0,1,0,0V278.09A10.7,10.7,0,0,1,299.59,267.39Z"/><path class="cls-4" d="M299.59,438.24h12.76a10.7,10.7,0,0,1,10.7,10.7v89.53a0,0,0,0,1,0,0H288.89a0,0,0,0,1,0,0V448.95a10.7,10.7,0,0,1,10.7-10.7Z"/><rect class="cls-5" x="275.56" y="367.62" width="60.81" height="13.51" rx="2.11"/><rect class="cls-5" x="275.56" y="535.49" width="60.81" height="13.51" rx="2.11"/><rect class="cls-6" x="374.59" y="263.92" width="17.78" height="9.58"/><rect class="cls-6" x="387.17" y="279.22" width="17.78" height="9.58"/><rect class="cls-6" x="205.04" y="280.26" width="17.78" height="9.58"/><rect class="cls-6" x="217.63" y="295.56" width="17.78" height="9.58"/><rect class="cls-6" x="204.96" y="194.76" width="17.78" height="9.58"/><rect class="cls-6" x="217.54" y="210.06" width="17.78" height="9.58"/><path d="M303.18,7.14a7.15,7.15,0,1,0-10,6.55V114.28a2.85,2.85,0,1,0,5.69,0V13.69A7.15,7.15,0,0,0,303.18,7.14Z"/><path class="cls-7" d="M291.48,28.54v71.89S324.41,76,355.9,90.81c37.16,17.42,63.23,0,63.23,0V20.54s-29.71,15.4-63.82,1.39C319.1,7.07,291.48,28.54,291.48,28.54Z"/><rect class="cls-8" x="205.39" y="183.74" width="199.56" height="6.94"/><path class="cls-6" d="M404.66,418.76v5.59a7,7,0,0,1-7,7H371.16a7,7,0,0,1-7-7v-5.59a7,7,0,0,0-7-7H333.29a7,7,0,0,0-7,7v5.59a7,7,0,0,1-7,7H289.85a7,7,0,0,1-7-7v-5.59a7,7,0,0,0-7-7H252a7,7,0,0,0-7,7v5.59a7,7,0,0,1-7,7H213.45a7,7,0,0,1-7-7v-5.59a7,7,0,0,0-7-7h-23.8a7,7,0,0,0-7,7V628.24h274V418.76a7,7,0,0,0-7-7H411.7A7,7,0,0,0,404.66,418.76Z"/><path class="cls-4" d="M254,469.12h6.36a5.34,5.34,0,0,1,5.34,5.34v22.62a0,0,0,0,1,0,0h-17a0,0,0,0,1,0,0V474.46A5.34,5.34,0,0,1,254,469.12Z"/><rect class="cls-5" x="242.04" y="497.08" width="30.33" height="3.77" rx="1.18"/><path class="cls-4" d="M348.18,469.12h6.36a5.34,5.34,0,0,1,5.34,5.34v22.62a0,0,0,0,1,0,0h-17a0,0,0,0,1,0,0V474.46A5.34,5.34,0,0,1,348.18,469.12Z"/><rect class="cls-5" x="336.2" y="497.08" width="30.33" height="3.77" rx="1.18"/><path class="cls-9" d="M405.51,548.32v5.56a7,7,0,0,1-7.05,7H372a7,7,0,0,1-7-7v-5.56a7,7,0,0,0-7.05-7.05H334.14a7,7,0,0,0-7.05,7.05v5.56a7,7,0,0,1-7,7H290.71a7,7,0,0,1-7-7v-5.56a7,7,0,0,0-7.05-7.05H252.83a7,7,0,0,0-7.05,7.05v5.56a7,7,0,0,1-7.05,7H214.31a7,7,0,0,1-7.05-7v-5.56a7,7,0,0,0-7-7.05h-23.5a7.32,7.32,0,0,0-7.32,7.32V757.78h274V548.51a7.24,7.24,0,0,0-7.25-7.24H412.56A7,7,0,0,0,405.51,548.32Z"/><path class="cls-10" d="M405.51,548.32v5.56a7,7,0,0,1-7.05,7H372a7,7,0,0,1-7-7v-5.56a7,7,0,0,0-7.05-7.05H334.14a7,7,0,0,0-7.05,7.05v5.56a7,7,0,0,1-7,7H290.71a7,7,0,0,1-7-7v-5.56a7,7,0,0,0-7.05-7.05H252.83a7,7,0,0,0-7.05,7.05v5.56a7,7,0,0,1-7.05,7H214.31a7,7,0,0,1-7.05-7v-5.56a7,7,0,0,0-7-7.05H176.44a7,7,0,0,0-7.05,7.05V757.78c40.56-96.73,130.77-162.17,274-194.2V548.32a7,7,0,0,0-7.05-7.05H412.56A7,7,0,0,0,405.51,548.32Z"/><path class="cls-6" d="M362.93,757.53,262,757.11l10.22-74.33c9.42-45.68,68.07-45.68,77.76,0Z"/><path class="cls-4" d="M355.2,757.28l-85.48-.59L278,694.41c8-38.68,57.64-38.68,65.85,0Z"/><g class="cls-11"><rect class="cls-12" x="191.12" y="582.47" width="17.78" height="9.58"/><rect class="cls-12" x="203.71" y="597.78" width="17.78" height="9.58"/></g><g class="cls-11"><rect class="cls-12" x="173.21" y="625.78" width="17.78" height="9.58"/><rect class="cls-12" x="185.8" y="641.09" width="17.78" height="9.58"/></g><g class="cls-11"><rect class="cls-12" x="371.09" y="646.96" width="17.78" height="9.58"/><rect class="cls-12" x="383.67" y="662.27" width="17.78" height="9.58"/></g><path d="M35.54,376.59a2.84,2.84,0,0,0-2.64-3,2.84,2.84,0,0,0-2.65,3,3,3,0,0,0,1.6,2.76v42.43a1.06,1.06,0,1,0,2.1,0V379.35A3,3,0,0,0,35.54,376.59Z"/><path class="cls-7" d="M31.22,382.09v23.4s19-12.73,37.93-12.22C69.15,393.27,49.73,378.64,31.22,382.09Z"/><rect class="cls-1" x="2.2" y="453.48" width="66.94" height="301.85"/><path class="cls-4" d="M32.86,496.14h5.64a4.73,4.73,0,0,1,4.73,4.73v45.25a0,0,0,0,1,0,0H28.13a0,0,0,0,1,0,0V500.87A4.73,4.73,0,0,1,32.86,496.14Z"/><rect class="cls-5" x="22.24" y="546.13" width="26.87" height="6.74" rx="2.11"/><path class="cls-4" d="M32.86,583.12h5.64a4.73,4.73,0,0,1,4.73,4.73V633.1a0,0,0,0,1,0,0H28.13a0,0,0,0,1,0,0V587.85A4.73,4.73,0,0,1,32.86,583.12Z"/><rect class="cls-5" x="22.24" y="633.1" width="26.87" height="6.74" rx="2.11"/><path class="cls-3" d="M13,435.48H37.71a2.37,2.37,0,1,0,0-4.71H16.79Z"/><path d="M27,418.15,16.79,430.66H37.71a2.37,2.37,0,1,1,0,4.7H13L.59,450.48a2.58,2.58,0,0,0,2,4.22l65.7-.25a2.58,2.58,0,0,0,1.88-4.34l-30.33-32.4A8.53,8.53,0,0,0,27,418.15Z"/><path class="cls-2" d="M2.87,755.33,2.2,454.72l67-.29C24.25,505.11,9.37,621.11,2.87,755.33Z"/><path d="M578.06,380.31a2.67,2.67,0,1,0-5.29,0,3.05,3.05,0,0,0,1.59,2.76V425.5a1.06,1.06,0,1,0,2.11,0V383.07A3.07,3.07,0,0,0,578.06,380.31Z"/><path class="cls-7" d="M573.73,385.81v23.4s19-12.73,37.93-12.23C611.66,397,592.24,382.36,573.73,385.81Z"/><rect class="cls-1" x="544.72" y="457.2" width="66.94" height="301.85"/><path class="cls-4" d="M575.37,499.86H581a4.73,4.73,0,0,1,4.73,4.73v45.25a0,0,0,0,1,0,0H570.64a0,0,0,0,1,0,0V504.59A4.73,4.73,0,0,1,575.37,499.86Z"/><rect class="cls-5" x="564.76" y="549.84" width="26.87" height="6.74" rx="2.11"/><path class="cls-4" d="M575.37,586.84H581a4.73,4.73,0,0,1,4.73,4.73v45.25a0,0,0,0,1,0,0H570.64a0,0,0,0,1,0,0V591.56a4.73,4.73,0,0,1,4.73-4.73Z"/><rect class="cls-5" x="564.76" y="636.82" width="26.87" height="6.74" rx="2.11"/><path class="cls-3" d="M555.46,439.19h24.77a2.37,2.37,0,1,0,0-4.7H559.3Z"/><path d="M569.53,421.86,559.3,434.37h20.93a2.37,2.37,0,1,1,0,4.71H555.46L543.1,454.2a2.58,2.58,0,0,0,2,4.21l65.71-.24a2.58,2.58,0,0,0,1.87-4.35l-30.33-32.39A8.53,8.53,0,0,0,569.53,421.86Z"/><path class="cls-2" d="M545.38,759.05l-.66-300.62,66.94-.28C566.76,508.83,551.88,624.82,545.38,759.05Z"/><path class="cls-13" d="M530.69,378v7.71a4.81,4.81,0,0,1-4.81,4.81h-5.51a4.81,4.81,0,0,1-4.81-4.81V378a4.81,4.81,0,0,0-4.81-4.81h-4.52a4.81,4.81,0,0,0-4.81,4.81v7.71a4.81,4.81,0,0,1-4.81,4.81H490a4.81,4.81,0,0,1-4.81-4.81V378a4.81,4.81,0,0,0-4.81-4.81h-4.52a4.81,4.81,0,0,0-4.81,4.81v7.71a4.81,4.81,0,0,1-4.81,4.81h-4.76a4.81,4.81,0,0,1-4.81-4.81V378a4.81,4.81,0,0,0-4.81-4.81h-4.52a4.81,4.81,0,0,0-4.81,4.81V760H544.83V378a4.81,4.81,0,0,0-4.81-4.81H535.5A4.81,4.81,0,0,0,530.69,378Z"/><path class="cls-14" d="M530.69,378v7.71a4.81,4.81,0,0,1-4.81,4.81h-5.51a4.81,4.81,0,0,1-4.81-4.81V378a4.81,4.81,0,0,0-4.81-4.81h-4.52a4.81,4.81,0,0,0-4.81,4.81v7.71a4.81,4.81,0,0,1-4.81,4.81H490a4.81,4.81,0,0,1-4.81-4.81V378a4.81,4.81,0,0,0-4.81-4.81h-4.52a4.81,4.81,0,0,0-4.81,4.81v7.71a4.81,4.81,0,0,1-4.81,4.81h-4.76a4.81,4.81,0,0,1-4.81-4.81V378a4.81,4.81,0,0,0-4.81-4.81h-4.52a4.81,4.81,0,0,0-4.81,4.81V760c10-158.06,33-297,102.29-367.16V378a4.81,4.81,0,0,0-4.81-4.81H535.5A4.81,4.81,0,0,0,530.69,378Z"/><path class="cls-4" d="M493.56,465.68h6.36a5.34,5.34,0,0,1,5.34,5.34v22.62a0,0,0,0,1,0,0h-17a0,0,0,0,1,0,0V471A5.34,5.34,0,0,1,493.56,465.68Z"/><rect class="cls-5" x="481.58" y="493.64" width="30.33" height="3.77" rx="1.18"/><path class="cls-4" d="M493.56,545.23h6.36a5.34,5.34,0,0,1,5.34,5.34v22.62a0,0,0,0,1,0,0h-17a0,0,0,0,1,0,0V550.57A5.34,5.34,0,0,1,493.56,545.23Z"/><rect class="cls-5" x="481.58" y="573.19" width="30.33" height="3.77" rx="1.18"/><g class="cls-11"><rect class="cls-12" x="463.32" y="653.95" width="17.78" height="9.58"/><rect class="cls-12" x="475.9" y="669.26" width="17.78" height="9.58"/></g><g class="cls-11"><rect class="cls-12" x="513.75" y="444.64" width="17.78" height="9.58"/><rect class="cls-12" x="526.33" y="459.95" width="17.78" height="9.58"/></g><path class="cls-13" d="M156,374.05v7.71a4.81,4.81,0,0,1-4.81,4.81h-5.52a4.81,4.81,0,0,1-4.81-4.81v-7.71a4.81,4.81,0,0,0-4.81-4.81h-4.52a4.81,4.81,0,0,0-4.81,4.81v7.71a4.81,4.81,0,0,1-4.81,4.81h-6.6a4.81,4.81,0,0,1-4.81-4.81v-7.71a4.81,4.81,0,0,0-4.81-4.81h-4.52a4.81,4.81,0,0,0-4.81,4.81v7.71a4.81,4.81,0,0,1-4.81,4.81H86.79A4.81,4.81,0,0,1,82,381.76v-7.71a4.81,4.81,0,0,0-4.81-4.81H72.65a4.81,4.81,0,0,0-4.81,4.81v382h102.3v-382a4.81,4.81,0,0,0-4.81-4.81h-4.52A4.81,4.81,0,0,0,156,374.05Z"/><path class="cls-14" d="M156,374.05v7.71a4.81,4.81,0,0,1-4.81,4.81h-5.52a4.81,4.81,0,0,1-4.81-4.81v-7.71a4.81,4.81,0,0,0-4.81-4.81h-4.52a4.81,4.81,0,0,0-4.81,4.81v7.71a4.81,4.81,0,0,1-4.81,4.81h-6.6a4.81,4.81,0,0,1-4.81-4.81v-7.71a4.81,4.81,0,0,0-4.81-4.81h-4.52a4.81,4.81,0,0,0-4.81,4.81v7.71a4.81,4.81,0,0,1-4.81,4.81H86.79A4.81,4.81,0,0,1,82,381.76v-7.71a4.81,4.81,0,0,0-4.81-4.81H72.65a4.81,4.81,0,0,0-4.81,4.81v382c10-158.06,33-297,102.3-367.16V374.05a4.81,4.81,0,0,0-4.81-4.81h-4.52A4.81,4.81,0,0,0,156,374.05Z"/><path class="cls-4" d="M118.87,461.71h6.36a5.34,5.34,0,0,1,5.34,5.34v22.62a0,0,0,0,1,0,0h-17a0,0,0,0,1,0,0V467A5.34,5.34,0,0,1,118.87,461.71Z"/><rect class="cls-5" x="106.89" y="489.67" width="30.33" height="3.77" rx="1.18"/><path class="cls-4" d="M118.87,541.27h6.36a5.34,5.34,0,0,1,5.34,5.34v22.62a0,0,0,0,1,0,0h-17a0,0,0,0,1,0,0V546.6A5.34,5.34,0,0,1,118.87,541.27Z"/><rect class="cls-5" x="106.89" y="569.23" width="30.33" height="3.77" rx="1.18"/><g class="cls-11"><rect class="cls-12" x="88.63" y="649.99" width="17.78" height="9.58"/><rect class="cls-12" x="101.21" y="665.29" width="17.78" height="9.58"/></g><g class="cls-11"><rect class="cls-12" x="139.05" y="440.67" width="17.78" height="9.58"/><rect class="cls-12" x="151.64" y="455.98" width="17.78" height="9.58"/></g><path class="cls-7" d="M410.73,768.83s-19.28-18.78,8.84-24c0,0-1.17-16.14,13.14-13.66,0,0,18.94-.15,16.63-12s20.07-9.88,23.37-3.29,10.53-9.22,21.72-1.32,0,12.27,0,12.27,21.07-.11,13.17,12.9,15.8-1.8,17.12,10.65-9.07,12.45-9.07,12.45l-2.73,6Z"/><path class="cls-7" d="M81.79,768.05s-19.28-18.78,8.84-24c0,0-1.18-16.14,13.14-13.66,0,0,18.93-.15,16.63-12s20.07-9.88,23.36-3.29,10.54-9.22,21.73-1.32,0,12.27,0,12.27,21.07-.11,13.17,12.9,15.8-1.8,17.11,10.65S186.7,762,186.7,762l-2.72,6Z"/><polyline class="cls-15" points="333.73 32.83 340.95 32.83 344.25 40.68 352.13 59.39"/><path class="cls-15" d="M375.43,68H350.92a4.14,4.14,0,0,1-4.15-4.14h0a4.14,4.14,0,0,1,3.51-4.09l26.32-4.11V40.75H344.21"/><circle class="cls-16" cx="354.35" cy="77.22" r="3.5"/><circle class="cls-16" cx="368.44" cy="77.34" r="3.5"/></g></g></svg>