<svg xmlns="http://www.w3.org/2000/svg" viewBox="0 0 210.01 73.09"><defs><style>.cls-1{fill:#ae1b46;}</style></defs><title>Asset 4</title><g id="Layer_2" data-name="Layer 2"><g id="Layer_1-2" data-name="Layer 1"><path class="cls-1" d="M72.6,30.55h-36l-2.89,9.93H62.18a25.94,25.94,0,1,1-4.44-18.91H69.88a36.54,36.54,0,1,0,3.21,15,37,37,0,0,0-.49-6"/><path class="cls-1" d="M89.55,62.63h22.32c7,0,10.55-5.89,10.55-11.57s-3.52-10.19-10.55-10.19H89.55Zm0-32.1h19.53c11.37,0,11.58-20.09.21-20.09H89.55Zm19.74-30c9.1,0,14.88,5.16,17.57,11.88,2.89,7.13,2,16.68-5.27,21.85,8.27,3.52,11.26,9.88,11.26,16.7,0,10.86-7.13,21.81-21,21.81H79.21V.52Z"/><path class="cls-1" d="M209.51,30.55h-36l-2.89,9.93H199.1a26,26,0,1,1-4.45-18.91H206.8a36.54,36.54,0,1,0,3.21,15,35.9,35.9,0,0,0-.5-6"/></g></g></svg>