<svg xmlns="http://www.w3.org/2000/svg" viewBox="0 0 716.4 731.82"><defs><style>.cls-1{fill:#ede7f7;}.cls-2{fill:#f8f7fc;}.cls-3{fill:#ae1b46;}</style></defs><title>Asset 2</title><g id="Layer_2" data-name="Layer 2"><g id="Layer_3" data-name="Layer 3"><path class="cls-1" d="M682.6,58.31,716,1.8c.89-1.51,0-2.34-1.45-1.41L659,35.29a102.84,102.84,0,0,0-18.66,15.22L150.56,543.81l37,36L667.88,77.36A102.37,102.37,0,0,0,682.6,58.31Z"/><path class="cls-2" d="M662.38,72.9l34.79-52.15c.93-1.39.3-2-1.07-1L644.88,55.84A127.79,127.79,0,0,0,627.3,71l-472,477.48,27.39,26.68,465-484.27A127.51,127.51,0,0,0,662.38,72.9Z"/><path class="cls-3" d="M83.31,560.68h28.83a11.4,11.4,0,0,1,11.4,11.4V709.38a0,0,0,0,1,0,0H71.92a0,0,0,0,1,0,0V572.08A11.4,11.4,0,0,1,83.31,560.68Z" transform="translate(-275.4 1158.09) rotate(-135.75)"/><rect class="cls-3" x="37.75" y="546.83" width="249.92" height="42.93" rx="9.48" transform="translate(-117.3 1088.89) rotate(-135.75)"/><circle class="cls-3" cx="33.67" cy="698.14" r="33.67"/><circle class="cls-2" cx="33.67" cy="698.14" r="17.31"/></g></g></svg>