<svg xmlns="http://www.w3.org/2000/svg" xmlns:xlink="http://www.w3.org/1999/xlink" viewBox="0 0 525.24 539.27"><defs><style>.cls-1{fill:url(#linear-gradient);}.cls-2{fill:#d2718f;}</style><linearGradient id="linear-gradient" x1="86.94" y1="274.79" x2="607.34" y2="274.79" gradientTransform="translate(-103.71 278.55) rotate(-42.5)" gradientUnits="userSpaceOnUse"><stop offset="0" stop-color="#b10932"/><stop offset="0.23" stop-color="#ac0a31"/><stop offset="0.51" stop-color="#9e0c2e"/><stop offset="0.8" stop-color="#871029"/><stop offset="1" stop-color="#721324"/></linearGradient></defs><title>Asset 3</title><g id="Layer_2" data-name="Layer 2"><g id="Layer_3" data-name="Layer 3"><path class="cls-1" d="M439.42,2.6a30,30,0,0,1,40.79,18.32C513.31,124.78,589.84,449.45,412,526.48c-174.1,75.4-350.15-203.25-407.6-298a30,30,0,0,1,13.74-43.19c79.69-33.83,126.52-81.69,159-148.36A30.33,30.33,0,0,1,213,21C285.13,42.13,350.12,42.43,439.42,2.6Z"/><path class="cls-2" d="M479,107.28C473.19,83,467.25,62.15,462.35,46.77a26.94,26.94,0,0,0-36.6-16.43c-75.11,33.49-131.06,35.35-191,19.86l59.4,137.15Z"/><path class="cls-2" d="M184,73.56C155.12,126.94,114.15,166,47.72,194.24A26.92,26.92,0,0,0,35.39,233c8.33,13.75,19.44,31.83,32.84,52.18l174.66-75.64Z"/><path class="cls-2" d="M97.09,327.09c67.65,93.73,170.45,204,275.71,182.38L262.74,255.35Z"/><path class="cls-2" d="M424.15,487.64c91.79-62.23,86.22-215.77,65.31-330.48l-175.52,76Z"/></g></g></svg>