<?xml version="1.0" standalone="no"?>
<!DOCTYPE svg PUBLIC "-//W3C//DTD SVG 1.1//EN" "http://www.w3.org/Graphics/SVG/1.1/DTD/svg11.dtd" >
<svg>
<metadata>
Created by FontForge 20120731 at Sat Jun 29 14:43:26 2019
 By www
Copyright (c) 2010 by Rui Abreu, Portugal. All rights reserved.
</metadata>
<defs>
<font id="GestaW01-Light" horiz-adv-x="510" >
  <font-face 
    font-family="GestaW01-Light"
    font-weight="300"
    font-stretch="normal"
    units-per-em="1000"
    panose-1="2 0 0 0 0 0 0 0 0 0"
    ascent="800"
    descent="-200"
    x-height="462"
    cap-height="644"
    bbox="-27 -202 972 868"
    underline-thickness="50"
    underline-position="-125"
    unicode-range="U+000D-2122"
  />
<missing-glyph horiz-adv-x="528" 
d="M80 644h370v-644h-370v644zM396 46v552h-264v-552h264z" />
    <glyph glyph-name=".notdef" horiz-adv-x="528" 
d="M80 644h370v-644h-370v644zM396 46v552h-264v-552h264z" />
    <glyph glyph-name="glyph1" horiz-adv-x="0" 
 />
    <glyph glyph-name="glyph1" horiz-adv-x="0" 
 />
    <glyph glyph-name="uni000D" unicode="&#xd;" horiz-adv-x="216" 
 />
    <glyph glyph-name="space" unicode=" " horiz-adv-x="216" 
 />
    <glyph glyph-name="exclam" unicode="!" horiz-adv-x="269" 
d="M102 644h65l-17 -447h-31zM103 74h63v-74h-63v74z" />
    <glyph glyph-name="quotedbl" unicode="&#x22;" horiz-adv-x="293" 
d="M68 444q-3 17 -5.5 41.5t-4.5 53t-3 59t-1 60.5h56q0 -30 -1 -60.5t-3 -59t-4.5 -53t-5.5 -41.5h-28zM197 444q-3 17 -5.5 41.5t-4.5 53t-3 59t-1 60.5h56q0 -30 -1 -60.5t-3 -59t-4.5 -53t-5.5 -41.5h-28z" />
    <glyph glyph-name="numbersign" unicode="#" horiz-adv-x="621" 
d="M166 207h-116l8 35h116l37 160h-117l8 35h117l47 207h37l-47 -207h162l47 207h37l-47 -207h116l-8 -35h-116l-37 -160h117l-8 -35h-117l-47 -207h-37l47 207h-162l-47 -207h-37zM373 242l37 160h-162l-37 -160h162z" />
    <glyph glyph-name="dollar" unicode="$" horiz-adv-x="519" 
d="M86 102q31 -8 73 -14.5t81 -6.5q32 0 59.5 6t47.5 19t31.5 34t11.5 51q0 28 -10 46.5t-28 31t-43 21.5t-56 19q-35 11 -66 22.5t-54 29t-37 42t-14 60.5q0 62 40 99t115 45v97h46v-95q32 -1 68 -6t66 -13l-9 -44q-29 7 -67.5 12.5t-70.5 5.5q-62 0 -99 -24t-37 -75
q0 -27 11 -44.5t31 -29.5t46.5 -20.5t58.5 -18.5q37 -12 67 -24.5t51 -30.5t32 -42.5t11 -60.5q0 -69 -41 -108t-118 -48v-96h-46v94q-42 0 -83 6t-78 14z" />
    <glyph glyph-name="percent" unicode="%" horiz-adv-x="694" 
d="M180 354q-66 0 -100 39t-34 111t34 111t100 39t100 -39t34 -111t-34 -111t-100 -39zM180 393q48 0 68.5 28.5t20.5 82.5t-20.5 82.5t-68.5 28.5t-68.5 -28.5t-20.5 -82.5t20.5 -82.5t68.5 -28.5zM380 140q0 72 34 111t100 39t100 -39t34 -111t-34 -111t-100 -39t-100 39
t-34 111zM425 140q0 -54 20.5 -82.5t68.5 -28.5t68.5 28.5t20.5 82.5t-20.5 82.5t-68.5 28.5t-68.5 -28.5t-20.5 -82.5zM511 644h49l-377 -644h-49z" />
    <glyph glyph-name="ampersand" unicode="&#x26;" horiz-adv-x="603" 
d="M55 176q0 67 32.5 108t85.5 52v4q-45 13 -73 47t-28 97q0 85 53.5 127.5t153.5 42.5q43 0 88 -6.5t82 -15.5l-9 -45q-30 7 -74 14t-87 7q-73 0 -113.5 -28t-40.5 -97q0 -68 40.5 -96t113.5 -28h302v-42h-110q8 -34 13 -68t5 -64q0 -54 -17 -91.5t-47 -60.5t-70.5 -33
t-86.5 -10q-103 0 -158 46t-55 140zM108 176q0 -77 42.5 -108.5t119.5 -31.5q85 0 126.5 36t41.5 114q0 29 -4.5 61.5t-12.5 69.5h-144q-78 0 -123.5 -32t-45.5 -109z" />
    <glyph glyph-name="quotesingle" unicode="'" horiz-adv-x="164" 
d="M68 444q-3 17 -5.5 41.5t-4.5 53t-3 59t-1 60.5h56q0 -30 -1 -60.5t-3 -59t-4.5 -53t-5.5 -41.5h-28v0z" />
    <glyph glyph-name="parenleft" unicode="(" horiz-adv-x="244" 
d="M42 244q0 118 32.5 224.5t101.5 202.5l30 -20q-52 -81 -85 -183.5t-33 -223.5t33 -223.5t85 -183.5l-30 -20q-69 96 -101.5 202.5t-32.5 224.5z" />
    <glyph glyph-name="parenright" unicode=")" horiz-adv-x="244" 
d="M38 -163q52 81 85 183.5t33 223.5t-33 223.5t-85 183.5l30 20q69 -96 101.5 -202.5t32.5 -224.5t-32.5 -224.5t-101.5 -202.5l-30 20v0z" />
    <glyph glyph-name="asterisk" unicode="*" horiz-adv-x="354" 
d="M163 488l-93 -53l-14 25l93 53l-93 53l14 25l93 -53v106h28v-106l93 53l14 -25l-93 -53l93 -53l-14 -25l-93 53v-106h-28v106z" />
    <glyph glyph-name="plus" unicode="+" horiz-adv-x="584" 
d="M61 251h210v211h42v-211h210v-40h-210v-211h-42v211h-210v40z" />
    <glyph glyph-name="comma" unicode="," horiz-adv-x="260" 
d="M106 -16q0 21 -1 43t-5 45l56 2q1 -10 1.5 -20t0.5 -20q0 -40 -7.5 -79.5t-24.5 -74.5l-28 5q4 24 6 49t2 50z" />
    <glyph glyph-name="hyphen" unicode="-" horiz-adv-x="308" 
d="M51 271h206v-46h-206v46z" />
    <glyph glyph-name="period" unicode="." horiz-adv-x="260" 
d="M98 74h64v-74h-64v74z" />
    <glyph glyph-name="slash" unicode="/" horiz-adv-x="350" 
d="M284 664h47l-265 -684h-47z" />
    <glyph glyph-name="zero" unicode="0" horiz-adv-x="590" 
d="M295 -10q-72 0 -116 24t-68 67.5t-32 104.5t-8 136t8 136t32 104.5t68 67.5t116 24t116 -24t68 -67.5t32 -104.5t8 -136t-8 -136t-32 -104.5t-68 -67.5t-116 -24zM295 36q58 0 92 20t51.5 57.5t22.5 90t5 118.5t-5 118.5t-22.5 90t-51.5 57.5t-92 20t-92 -20t-51.5 -57.5
t-22.5 -90t-5 -118.5t5 -118.5t22.5 -90t51.5 -57.5t92 -20z" />
    <glyph glyph-name="one" unicode="1" horiz-adv-x="383" 
d="M200 588l-144 -54l-15 39l168 71h43v-644h-52v588z" />
    <glyph glyph-name="two" unicode="2" horiz-adv-x="504" 
d="M42 38q62 55 121.5 110.5t106 110.5t75 109.5t28.5 109.5q0 63 -36.5 96.5t-103.5 33.5q-43 0 -89.5 -12.5t-81.5 -29.5l-18 41q38 18 88 32.5t101 14.5q41 0 76.5 -10.5t61.5 -32.5t40.5 -54.5t14.5 -76.5q0 -56 -24 -109t-65.5 -106t-96.5 -106.5t-118 -108.5l2 -4h323
v-46h-405v38z" />
    <glyph glyph-name="three" unicode="3" horiz-adv-x="477" 
d="M43 57q34 -8 77 -14.5t88 -6.5q35 0 66 6t53.5 22t35.5 44t13 71q0 42 -12 68t-34.5 40.5t-53.5 19.5t-68 5h-64v46h64q33 0 61.5 5.5t48.5 19.5t31.5 38t11.5 62q0 66 -35 95.5t-100 29.5q-44 0 -89 -11t-80 -26l-17 41q39 17 87.5 29.5t99.5 12.5q40 0 74 -9.5
t59.5 -30t40 -52.5t14.5 -77q0 -60 -25 -96t-67 -50v-4q50 -12 78 -51.5t28 -107.5q0 -51 -16 -86t-45.5 -57.5t-71 -32.5t-91.5 -10q-45 0 -89.5 6.5t-82.5 15.5z" />
    <glyph glyph-name="four" unicode="4" horiz-adv-x="547" 
d="M31 194q24 44 53.5 96.5t63.5 110.5t70.5 119.5t74.5 123.5h56q-37 -61 -73 -121t-69 -116.5t-62.5 -108t-53.5 -95.5h257l8 152h44v-152h136v-46h-136v-157h-52v157h-317v37z" />
    <glyph glyph-name="five" unicode="5" horiz-adv-x="513" 
d="M67 58q34 -8 79.5 -15t90.5 -7q36 0 67 6t54 23t36.5 46t13.5 76q0 81 -45 113.5t-143 32.5h-144l11 311h331v-46h-283l-8 -219h94q66 0 111.5 -12.5t74 -36.5t41.5 -59.5t13 -81.5q0 -55 -16 -93t-45.5 -61.5t-71 -34t-92.5 -10.5q-46 0 -93.5 6.5t-85.5 15.5z" />
    <glyph glyph-name="six" unicode="6" horiz-adv-x="554" 
d="M288 -10q-66 0 -108 21t-66 61t-33 97.5t-9 130.5q0 80 9.5 145t36 111.5t73.5 72t121 25.5q42 0 81.5 -7t69.5 -16l-11 -45q-28 8 -64.5 15t-75.5 7q-53 0 -88.5 -16.5t-56.5 -49.5t-30.5 -82t-11.5 -114q13 4 32 10t42 11t49.5 8.5t53.5 3.5q37 0 73 -8.5t64 -30
t45.5 -58t17.5 -92.5q0 -97 -54 -148.5t-160 -51.5zM291 36q36 0 65 8t50 26t32 47t11 70q0 72 -36.5 109t-118.5 37q-43 0 -88.5 -9t-80.5 -20q0 -70 7 -120.5t25 -83.5t50.5 -48.5t83.5 -15.5z" />
    <glyph glyph-name="seven" unicode="7" horiz-adv-x="436" 
d="M122 0q63 149 123 298.5t116 299.5h-342v46h401v-36q-57 -152 -118 -304t-125 -304h-55v0z" />
    <glyph glyph-name="eight" unicode="8" horiz-adv-x="562" 
d="M61 171q0 38 10 67.5t27.5 49.5t40 32t47.5 16v4q-22 5 -42 16t-35 29t-23.5 43.5t-8.5 58.5q0 79 51 123t153 44q103 0 154 -44t51 -123q0 -33 -8.5 -58.5t-23.5 -43.5t-35 -29t-42 -16v-4q25 -4 47.5 -16t39.5 -32t27.5 -49.5t10.5 -67.5q0 -85 -54.5 -133t-166.5 -48
t-166 48t-54 133zM281 359q31 0 59 6.5t48.5 21.5t32.5 39.5t12 60.5q0 59 -36.5 90t-115.5 31t-115 -31t-36 -90q0 -36 12 -60.5t32.5 -39.5t48 -21.5t58.5 -6.5zM114 172q0 -73 45 -104.5t122 -31.5q78 0 123 31.5t45 104.5q0 39 -13 66t-35.5 43.5t-53.5 24t-66 7.5
t-65.5 -7.5t-53 -24t-35.5 -43.5t-13 -66z" />
    <glyph glyph-name="nine" unicode="9" horiz-adv-x="554" 
d="M103 58q28 -8 65.5 -15t75.5 -7q54 0 89.5 17.5t56.5 51.5t30 82.5t11 111.5q-41 -14 -89 -24t-93 -10q-43 0 -78.5 11t-61.5 34t-40.5 59t-14.5 86q0 101 57.5 150t156.5 49q63 0 105 -19.5t66.5 -58.5t34.5 -98t10 -138q0 -81 -10.5 -145.5t-38 -110t-74 -70
t-118.5 -24.5q-39 0 -79.5 6.5t-72.5 15.5zM257 311q42 0 87.5 9t86.5 23q-1 67 -8 117t-25.5 83t-50.5 49t-83 16q-71 0 -114 -34.5t-43 -117.5q0 -145 150 -145z" />
    <glyph glyph-name="colon" unicode=":" horiz-adv-x="260" 
d="M98 74h64v-74h-64v74zM98 462h64v-74h-64v74z" />
    <glyph glyph-name="semicolon" unicode=";" horiz-adv-x="260" 
d="M106 -16q0 21 -1 43t-5 45l56 2q1 -10 1.5 -20t0.5 -20q0 -40 -7.5 -79.5t-24.5 -74.5l-28 5q4 24 6 49t2 50zM98 462h64v-74h-64v74z" />
    <glyph glyph-name="less" unicode="&#x3c;" horiz-adv-x="584" 
d="M61 245l462 221v-52l-383 -181v-4l383 -181v-52l-462 221v28z" />
    <glyph glyph-name="equal" unicode="=" horiz-adv-x="584" 
d="M61 346h462v-40h-462v40zM61 156h462v-40h-462v40z" />
    <glyph glyph-name="greater" unicode="&#x3e;" horiz-adv-x="584" 
d="M61 48l383 181v4l-383 181v52l462 -221v-28l-462 -221v52z" />
    <glyph glyph-name="question" unicode="?" horiz-adv-x="398" 
d="M146 197q0 31 6.5 55.5t19 45.5t31.5 41t43 44q23 22 42.5 49t19.5 68q0 54 -35 81t-91 27q-36 0 -71.5 -11t-63.5 -25l-19 42q32 17 72.5 28.5t83.5 11.5q37 0 69 -9t56 -27.5t38 -47.5t14 -68q0 -27 -6.5 -48t-17.5 -39t-26 -34t-32 -32q-23 -22 -39.5 -40t-27.5 -35
t-16 -35.5t-5 -41.5h-45zM137 74h63v-74h-63v74z" />
    <glyph glyph-name="at" unicode="@" horiz-adv-x="749" 
d="M58 321q0 166 82 249.5t232 83.5q79 0 139 -22.5t100 -65.5t60 -104t20 -139q0 -95 -30 -138.5t-93 -43.5q-59 0 -88 40q-56 -40 -123 -40t-101.5 44t-34.5 137q0 87 36 134t122 47q32 0 62 -6t55 -14v-170q0 -66 16 -99.5t60 -33.5q38 0 58.5 31t20.5 110
q0 70 -16.5 125t-51 93t-87 58t-124.5 20q-274 0 -274 -295q0 -149 68.5 -222t203.5 -73q51 0 91 9t70 20l13 -36q-36 -14 -78 -22t-93 -8q-152 0 -233.5 82.5t-81.5 248.5zM362 179q26 0 53 8.5t50 24.5q-13 40 -13 97v148q-18 4 -36.5 6.5t-35.5 2.5q-65 0 -89.5 -38
t-24.5 -108q0 -72 23 -106.5t73 -34.5z" />
    <glyph glyph-name="A" unicode="A" horiz-adv-x="536" 
d="M19 0q23 81 51 171.5t57.5 177.5t57 164t50.5 131h67q22 -54 50 -131t57.5 -164t57.5 -177.5t51 -171.5h-53l-50 170h-294l-50 -170h-52zM402 216q-30 97 -63 191.5t-69 191.5h-4q-36 -97 -69 -191.5t-63 -191.5h268z" />
    <glyph glyph-name="B" unicode="B" horiz-adv-x="573" 
d="M89 638q45 6 91 11t91 5q117 0 172 -41t55 -123q0 -34 -8.5 -59t-23 -42.5t-33.5 -28.5t-40 -17v-3q57 -13 91.5 -51t34.5 -113q0 -52 -17 -87.5t-50 -57t-80 -31t-107 -9.5q-35 0 -81.5 3t-94.5 8v636zM274 360q40 0 71.5 6t53.5 20t34 38.5t12 61.5t-12.5 60.5t-36 37
t-56 19t-72.5 5.5q-32 0 -65 -2.5t-62 -6.5v-239h133zM141 43q37 -3 62.5 -4.5t53.5 -1.5q49 0 88 5.5t66 21t41 42.5t14 69q0 41 -12.5 68.5t-37 43.5t-60 22.5t-81.5 6.5h-134v-273z" />
    <glyph glyph-name="C" unicode="C" horiz-adv-x="528" 
d="M311 -10q-78 0 -129 27t-81 73t-41.5 106t-11.5 126t12 126.5t42.5 106t84.5 72.5t138 27q38 0 79.5 -5.5t75.5 -13.5l-9 -45q-30 6 -71.5 12t-78.5 6q-71 0 -114 -24.5t-66.5 -65t-31.5 -92t-8 -105.5q0 -51 7.5 -102t30 -91.5t64.5 -66t110 -25.5q44 0 89 10.5t85 27.5
l18 -41q-45 -22 -97 -32.5t-97 -10.5z" />
    <glyph glyph-name="D" unicode="D" horiz-adv-x="611" 
d="M89 638q33 5 78.5 10.5t92.5 5.5q75 0 132 -19t96 -59.5t59 -104t20 -152.5q0 -88 -19.5 -150.5t-59 -102t-99 -57.5t-138.5 -18q-18 0 -39 0.5t-42.5 2t-42.5 3.5t-38 4v637zM141 42q28 -3 58 -4t50 -1q64 0 113.5 13t83 45.5t51 86.5t17.5 136q0 81 -17 136.5t-50 89.5
t-81 49t-110 15q-32 0 -63.5 -3t-51.5 -5v-558z" />
    <glyph glyph-name="E" unicode="E" horiz-adv-x="492" 
d="M89 644h357v-46h-305v-244h255v-46h-255v-262h305v-46h-357v644z" />
    <glyph glyph-name="F" unicode="F" horiz-adv-x="472" 
d="M89 644h355v-46h-303v-255h258v-46h-258v-297h-52v644z" />
    <glyph glyph-name="G" unicode="G" horiz-adv-x="587" 
d="M313 -10q-77 0 -128 27t-81 73t-42.5 106.5t-12.5 127.5t12.5 127t44.5 105t86.5 71.5t138.5 26.5q43 0 85.5 -6.5t78.5 -14.5l-9 -45q-31 7 -73 13.5t-83 6.5q-69 0 -113.5 -22t-70 -61t-35 -91t-9.5 -112q0 -53 8 -104t31.5 -91.5t66 -65.5t110.5 -25q38 0 75 7.5
t70 21.5v257h52v-284q-46 -23 -98.5 -35.5t-103.5 -12.5z" />
    <glyph glyph-name="H" unicode="H" horiz-adv-x="631" 
d="M89 644h52v-286h349v286h52v-644h-52v312h-349v-312h-52v644z" />
    <glyph glyph-name="I" unicode="I" horiz-adv-x="230" 
d="M89 644h52v-644h-52v644z" />
    <glyph glyph-name="J" unicode="J" horiz-adv-x="360" 
d="M14 46q22 -5 44.5 -7.5t44.5 -2.5q64 0 91 29.5t27 103.5v475h52v-477q0 -50 -11 -84t-33 -54.5t-53.5 -29.5t-73.5 -9q-25 0 -49.5 2.5t-46.5 7.5z" />
    <glyph glyph-name="K" unicode="K" horiz-adv-x="542" 
d="M89 644h52v-304l2 -1q37 33 78 71t81.5 77.5t79 79.5t72.5 77h66l1 -2q-33 -36 -71.5 -75t-78.5 -78t-80.5 -77t-77.5 -71q72 -83 153 -167t172 -172l-1 -2h-71q-84 81 -156 157.5t-140 154.5h-29v-312h-52v644z" />
    <glyph glyph-name="L" unicode="L" horiz-adv-x="460" 
d="M89 644h52v-598h301v-46h-353v644z" />
    <glyph glyph-name="M" unicode="M" horiz-adv-x="758" 
d="M75 0q2 79 5.5 167.5t8 174.5t9.5 164.5t10 137.5h82l187 -473h4l187 473h82q5 -59 10 -137.5t9.5 -164.5t8 -174.5t5.5 -167.5h-52q-5 146 -11.5 292.5t-14.5 301.5h-4l-191 -483h-63l-191 483h-4q-8 -155 -14.5 -301.5t-11.5 -292.5h-51v0z" />
    <glyph glyph-name="N" unicode="N" horiz-adv-x="662" 
d="M89 644h84l345 -595h4v595h51v-644h-84l-345 595h-4v-595h-51v644z" />
    <glyph glyph-name="O" unicode="O" horiz-adv-x="641" 
d="M48 322q0 169 69.5 250.5t202.5 81.5q134 0 203.5 -81t69.5 -251t-69.5 -251t-203.5 -81q-133 0 -202.5 81.5t-69.5 250.5zM101 322q0 -78 15 -132.5t43.5 -88.5t69 -49.5t91.5 -15.5t92 15.5t69.5 49.5t43.5 88.5t15 132.5t-15 132.5t-43.5 88.5t-69.5 49.5t-92 15.5
t-91.5 -15.5t-69 -49.5t-43.5 -88.5t-15 -132.5z" />
    <glyph glyph-name="P" unicode="P" horiz-adv-x="531" 
d="M89 640q42 5 86.5 9t85.5 4q53 0 98.5 -8.5t78.5 -30.5t52 -59.5t19 -94.5q0 -59 -19.5 -97t-54 -59.5t-80.5 -30t-100 -8.5q-51 0 -114 6v-271h-52v640zM141 317q31 -3 63 -4.5t55 -1.5q43 0 79 6t62 22.5t41 45.5t15 75q0 44 -14 72.5t-39.5 45t-62 23t-81.5 6.5
q-23 0 -55 -1.5t-63 -4.5v-284z" />
    <glyph glyph-name="Q" unicode="Q" horiz-adv-x="641" 
d="M169 27q-29 18 -51 43.5t-38 61t-24 81.5t-8 105q0 172 69 254t203 82t203.5 -81t69.5 -251q0 -162 -62.5 -241t-174.5 -88v-4q16 -4 36.5 -11t42.5 -16t44.5 -19.5t43.5 -21.5l-31 -57q-59 36 -108.5 60t-89 42t-71 32t-54.5 29zM320 36q51 0 92 15.5t69.5 49.5
t43.5 88.5t15 132.5t-15 132.5t-43.5 88.5t-69.5 49.5t-92 15.5t-91.5 -15.5t-69 -49.5t-43.5 -88.5t-15 -132.5t15 -132.5t43.5 -88.5t69 -49.5t91.5 -15.5z" />
    <glyph glyph-name="R" unicode="R" horiz-adv-x="553" 
d="M89 640q45 5 89 9t83 4q51 0 95.5 -8t76.5 -29t50.5 -56.5t18.5 -90.5q0 -44 -12 -75t-33.5 -53t-51 -34.5t-65.5 -18.5q38 -71 81.5 -141t93.5 -145l-1 -2h-60q-47 70 -89.5 140.5t-81.5 142.5q-46 0 -77.5 1.5t-64.5 4.5v-289h-52v640zM141 335q33 -4 64.5 -5t50.5 -1
q42 0 77.5 5.5t61 21t40 43t14.5 70.5q0 42 -13.5 68.5t-38 42t-59 21.5t-76.5 6q-24 0 -56 -1.5t-65 -4.5v-266z" />
    <glyph glyph-name="S" unicode="S" horiz-adv-x="477" 
d="M47 58q34 -8 79 -15t87 -7q38 0 69.5 7t54.5 23t36 41t13 61q0 37 -13.5 60t-36 38t-52.5 25l-63 21q-40 13 -73 27.5t-57 34.5t-37 47t-13 66q0 78 54.5 122.5t157.5 44.5q38 0 81 -6t81 -15l-10 -46q-34 8 -75 14.5t-78 6.5q-33 0 -62 -6.5t-50.5 -20.5t-33.5 -36.5
t-12 -54.5q0 -35 14.5 -57t37.5 -37t53 -24.5t62 -19.5q36 -12 68.5 -25.5t57 -33.5t38.5 -49.5t14 -73.5q0 -88 -58 -134t-170 -46q-45 0 -90.5 6.5t-83.5 14.5z" />
    <glyph glyph-name="T" unicode="T" 
d="M229 598h-203v46h458v-46h-203v-598h-52v598z" />
    <glyph glyph-name="U" unicode="U" horiz-adv-x="639" 
d="M86 644h52v-403q0 -56 9.5 -95t30.5 -63.5t56 -35.5t86 -11t85.5 11t56 35.5t31 63.5t9.5 95v403h51v-408q0 -59 -11 -104.5t-38 -77t-72 -48t-112 -16.5q-68 0 -113 16.5t-72 48t-38 77t-11 104.5v408z" />
    <glyph glyph-name="V" unicode="V" horiz-adv-x="534" 
d="M231 0q-21 50 -49 126t-57 164t-56.5 180t-48.5 174h53q41 -154 88 -302t104 -300h4q57 152 104 300t88 302h52q-21 -82 -49 -174t-57 -180t-56.5 -164t-48.5 -126h-71v0z" />
    <glyph glyph-name="W" unicode="W" horiz-adv-x="872" 
d="M204 0q-19 52 -42.5 128t-47.5 163t-46 178.5t-38 174.5h53q30 -152 68.5 -298t89.5 -303h4q41 146 79 294.5t72 306.5h81q34 -158 71.5 -306.5t79.5 -294.5h4q51 157 89.5 303t68.5 298h52q-16 -83 -37.5 -174.5t-45.5 -178.5t-48 -163t-43 -128h-76q-16 49 -36 121
t-41 154t-41 166.5t-36 159.5h-4q-16 -75 -36 -159.5t-41 -166.5t-41 -154t-36 -121h-76v0z" />
    <glyph glyph-name="X" unicode="X" horiz-adv-x="580" 
d="M46 0q50 83 102.5 164.5t109.5 164.5q-110 156 -204 315h58q41 -70 85 -138.5t92 -137.5h4q48 69 92 138t85 138h56q-47 -79 -98 -158t-106 -157q57 -85 110 -166.5t102 -162.5h-58q-43 72 -89 144t-96 146h-4q-50 -73 -95.5 -145t-89.5 -145h-56v0z" />
    <glyph glyph-name="Y" unicode="Y" horiz-adv-x="524" 
d="M236 238q-32 49 -61 96.5t-55.5 97t-51.5 102t-49 110.5h56q42 -102 87.5 -188t98.5 -171h4q52 85 97 171t89 188h54q-25 -58 -50 -110.5t-51.5 -102t-55.5 -97t-60 -96.5v-238h-52v238z" />
    <glyph glyph-name="Z" unicode="Z" 
d="M33 39l383 559h-370v46h436v-39l-383 -559h384v-46h-450v39z" />
    <glyph glyph-name="bracketleft" unicode="[" horiz-adv-x="256" 
d="M231 -116v-40h-145v800h145v-40h-99v-720h99z" />
    <glyph glyph-name="backslash" unicode="\" horiz-adv-x="350" 
d="M20 664h46l264 -684h-46z" />
    <glyph glyph-name="bracketright" unicode="]" horiz-adv-x="256" 
d="M124 -116v720h-99v40h145v-800h-145v40h99z" />
    <glyph glyph-name="asciicircum" unicode="^" horiz-adv-x="592" 
d="M271 549h50l171 -316h-49l-145 263h-4l-145 -263h-49z" />
    <glyph glyph-name="underscore" unicode="_" horiz-adv-x="507" 
d="M507 -75v-42h-507v42h507z" />
    <glyph glyph-name="grave" unicode="`" horiz-adv-x="350" 
d="M82 648l47 37l96 -148l-23 -18z" />
    <glyph glyph-name="a" unicode="a" horiz-adv-x="472" 
d="M41 130q0 38 14 64.5t39 43.5t60 25t77 8q23 0 55 -2t59 -6v56q0 33 -9 54t-24.5 33t-36.5 17t-46 5q-35 0 -72.5 -7.5t-67.5 -16.5l-12 41q32 10 72.5 18.5t82.5 8.5q32 0 61.5 -7t52 -23.5t36 -45.5t13.5 -72v-324h-42l-5 44q-30 -24 -68 -39t-84 -15q-32 0 -60 8.5
t-49 26t-33.5 43.5t-12.5 62zM92 131q0 -50 30.5 -74t78.5 -24q36 0 74 13t70 39v137q-29 3 -61 5t-52 2q-62 0 -101 -21.5t-39 -76.5z" />
    <glyph glyph-name="b" unicode="b" 
d="M83 644h50v-215q29 19 61.5 31t75.5 12q88 0 132.5 -58t44.5 -185q0 -117 -44.5 -178t-155.5 -61q-42 0 -85.5 8t-78.5 20v626zM133 48q28 -7 57.5 -11.5t56.5 -4.5q45 0 73.5 13.5t45.5 39t23.5 62t6.5 81.5q0 103 -31 152t-100 49q-32 0 -65.5 -10t-66.5 -33v-338z" />
    <glyph glyph-name="c" unicode="c" horiz-adv-x="437" 
d="M53 234q0 50 10 93.5t34 75.5t64 50.5t100 18.5q31 0 66 -4.5t62 -11.5l-9 -42q-23 5 -57 10t-63 5q-81 0 -118 -48.5t-37 -145.5q0 -41 7 -77.5t24.5 -63.5t47.5 -43t76 -16q31 0 64.5 7.5t66.5 22.5l18 -40q-29 -14 -68.5 -24.5t-83.5 -10.5q-53 0 -91.5 17.5
t-63.5 49.5t-37 77t-12 100z" />
    <glyph glyph-name="d" unicode="d" 
d="M238 -10q-84 0 -129.5 57t-45.5 183q0 119 46.5 180.5t153.5 61.5q29 0 57 -4t57 -10v186h50v-644h-42l-5 41q-29 -23 -63 -37t-79 -14zM242 33q36 0 70 13.5t65 36.5v332q-29 7 -58 11t-54 4q-43 0 -72 -13t-46.5 -38.5t-25 -63t-7.5 -86.5q0 -100 30.5 -148t97.5 -48z
" />
    <glyph glyph-name="e" unicode="e" horiz-adv-x="462" 
d="M51 225q0 115 49.5 181t140.5 66q45 0 77.5 -17t53.5 -46t30.5 -67.5t9.5 -81.5q0 -24 -3 -46h-307q1 -39 9.5 -72t26 -57t45.5 -37.5t69 -13.5q38 0 71.5 10.5t65.5 27.5l20 -39q-31 -17 -70.5 -30t-88.5 -13q-93 0 -146 57.5t-53 177.5zM363 255q0 31 -5.5 61.5
t-19 55.5t-37.5 40.5t-60 15.5q-33 0 -58.5 -13.5t-43 -36.5t-27 -54.5t-10.5 -68.5h261z" />
    <glyph glyph-name="f" unicode="f" horiz-adv-x="292" 
d="M105 421h-66v35l66 4v66q0 63 29.5 95.5t97.5 32.5q30 0 63 -6l-5 -43q-15 2 -30.5 3.5t-27.5 1.5q-38 0 -57.5 -18t-19.5 -66v-64h106v-41h-106v-421h-50v421z" />
    <glyph glyph-name="g" unicode="g" horiz-adv-x="500" 
d="M108 -129q31 -8 66.5 -13.5t69.5 -5.5q27 0 49.5 5t39 18.5t25.5 37t9 59.5v60q-27 -18 -59 -30t-76 -12q-88 0 -133.5 57.5t-45.5 181.5q0 58 11 103.5t35.5 76.5t64 47t95.5 16q42 0 82.5 -8t75.5 -20v-473q0 -87 -46.5 -125t-128.5 -38q-35 0 -73 5t-70 13zM235 33
q32 0 66 10t66 31v341q-26 7 -53.5 11t-53.5 4q-44 0 -74 -13.5t-48 -39.5t-26 -64t-8 -86q0 -97 30.5 -145.5t100.5 -48.5z" />
    <glyph glyph-name="h" unicode="h" horiz-adv-x="512" 
d="M83 644h50v-229q29 21 68 39t90 18q30 0 56.5 -8t46 -26t31 -46t11.5 -68v-324h-50v319q0 59 -27.5 84t-71.5 25q-43 0 -84 -17.5t-70 -38.5v-372h-50v644z" />
    <glyph glyph-name="i" unicode="i" horiz-adv-x="216" 
d="M83 644h50v-78h-50v78zM83 462h50v-462h-50v462z" />
    <glyph glyph-name="j" unicode="j" horiz-adv-x="216" 
d="M83 644h50v-78h-50v78zM83 462h50v-442q0 -62 -12.5 -110.5t-33.5 -91.5h-50q21 43 33.5 91.5t12.5 110.5v442z" />
    <glyph glyph-name="k" unicode="k" horiz-adv-x="445" 
d="M83 644h50v-386l2 -1q58 51 117.5 104t109.5 101h68l1 -2q-51 -49 -111 -102t-117 -101q48 -57 106.5 -122t130.5 -133l-1 -2h-69q-26 25 -54 54.5t-54.5 59t-51 58t-44.5 53.5h-33v-225h-50v644z" />
    <glyph glyph-name="l" unicode="l" horiz-adv-x="216" 
d="M83 644h50v-644h-50v644z" />
    <glyph glyph-name="m" unicode="m" horiz-adv-x="785" 
d="M83 462h42l4 -50q32 24 71 42t84 18q42 0 72.5 -17.5t47.5 -52.5q42 32 82.5 51t85.5 19q63 0 100 -39t37 -113v-320h-50v316q0 60 -26 86t-70 26q-33 0 -71 -15t-76 -46q5 -23 5 -47v-320h-50v316q0 60 -26 86t-70 26q-68 0 -142 -56v-372h-50v462z" />
    <glyph glyph-name="n" unicode="n" horiz-adv-x="512" 
d="M83 462h42l4 -50q29 22 69.5 41t92.5 19q30 0 56.5 -8t46 -26t31 -46t11.5 -68v-324h-50v319q0 59 -27.5 84t-71.5 25q-43 0 -84 -17.5t-70 -38.5v-372h-50v462z" />
    <glyph glyph-name="o" unicode="o" 
d="M51 231q0 53 11.5 97t36 76t63 50t93.5 18t93.5 -18t63 -50t36 -76t11.5 -97t-11.5 -97t-36 -76t-63 -50t-93.5 -18t-93.5 18t-63 50t-36 76t-11.5 97zM102 231q0 -43 7.5 -79t25.5 -62.5t47.5 -41t72.5 -14.5t72.5 14.5t47.5 41t25.5 62.5t7.5 79t-7.5 79t-25.5 62
t-47.5 41t-72.5 15t-72.5 -15t-47.5 -41t-25.5 -62t-7.5 -79z" />
    <glyph glyph-name="p" unicode="p" 
d="M133 -182h-50v644h42l5 -42q29 23 63.5 37.5t79.5 14.5q86 0 130 -58.5t44 -184.5q0 -119 -45.5 -179t-153.5 -60q-29 0 -57 4t-58 10v-186zM133 47q30 -7 61 -11t55 -4q43 0 71.5 13.5t45.5 39t23.5 62t6.5 81.5q0 105 -31 153t-98 48q-35 0 -69.5 -13.5t-64.5 -35.5
v-333z" />
    <glyph glyph-name="q" unicode="q" 
d="M63 229q0 58 11 103.5t35.5 76.5t64 47t95.5 16q42 0 82.5 -8t75.5 -20v-626h-50v213q-27 -17 -59 -29t-76 -12q-88 0 -133.5 57.5t-45.5 181.5zM245 33q31 0 65.5 10t66.5 31v341q-26 7 -53.5 11t-53.5 4q-44 0 -74 -13.5t-48 -39.5t-26 -64t-8 -86q0 -97 30.5 -145.5
t100.5 -48.5z" />
    <glyph glyph-name="r" unicode="r" horiz-adv-x="333" 
d="M83 462h42l5 -57q34 35 67 51t72 16q14 0 28.5 -2t23.5 -4l-7 -47q-13 2 -23.5 3.5t-22.5 1.5q-41 0 -75 -17t-60 -48v-359h-50v462z" />
    <glyph glyph-name="s" unicode="s" horiz-adv-x="409" 
d="M50 54q27 -7 66.5 -13.5t75.5 -6.5q27 0 50 4.5t40 15t26.5 27.5t9.5 41q0 19 -6.5 32.5t-20 24t-33.5 19t-48 16.5t-57 17t-52.5 23.5t-38.5 36.5t-15 57q0 60 45.5 92t122.5 32q30 0 66 -4.5t62 -11.5l-9 -43q-24 5 -58.5 10t-63.5 5q-57 0 -85.5 -21t-28.5 -58
q0 -19 7.5 -31.5t23.5 -22.5t40 -18t56 -17q35 -11 62 -22t45 -26.5t27.5 -36t9.5 -49.5q0 -69 -48 -102.5t-133 -33.5q-38 0 -75.5 6t-72.5 14z" />
    <glyph glyph-name="t" unicode="t" horiz-adv-x="314" 
d="M98 421h-66v35l68 4l5 140h43v-138h139v-41h-139v-304q0 -39 12 -61t47 -22q15 0 32.5 4t40.5 14l16 -40q-18 -9 -41 -15.5t-51 -6.5q-51 0 -78.5 29t-27.5 95v307z" />
    <glyph glyph-name="u" unicode="u" horiz-adv-x="509" 
d="M76 462h50v-319q0 -59 27.5 -84t71.5 -25q42 0 82 16.5t69 37.5v374h50v-462h-42l-5 47q-29 -21 -68 -39t-90 -18q-30 0 -56.5 8t-46 26t-31 46t-11.5 68v324z" />
    <glyph glyph-name="v" unicode="v" horiz-adv-x="433" 
d="M184 0q-18 39 -39.5 93.5t-42.5 117t-40.5 127.5t-34.5 124h51q29 -113 62 -215t76 -206h4q43 104 75 206t62 215h49q-15 -59 -34 -124t-40 -127.5t-42.5 -117t-40.5 -93.5h-65v0z" />
    <glyph glyph-name="w" unicode="w" horiz-adv-x="675" 
d="M154 0q-38 104 -71.5 220.5t-57.5 241.5h51q23 -116 50.5 -216.5t63.5 -204.5h4q29 103 55.5 210t48.5 211h81q22 -104 48.5 -211t55.5 -210h4q36 104 63.5 204.5t50.5 216.5h49q-24 -125 -57.5 -241.5t-71.5 -220.5h-73q-14 45 -28 96.5t-28.5 106t-27.5 109t-24 105.5
h-4q-11 -51 -24 -105.5t-27.5 -109t-29 -106t-27.5 -96.5h-74v0z" />
    <glyph glyph-name="x" unicode="x" horiz-adv-x="443" 
d="M32 0q38 60 76 118t80 116q-80 112 -150 228h56q28 -50 59.5 -98t65.5 -96h4q34 48 65.5 96t60.5 98h56q-71 -116 -150 -228q42 -58 80 -116t76 -118h-57q-31 51 -63.5 100.5t-67.5 99.5h-4q-35 -50 -67.5 -99.5t-63.5 -100.5h-56v0z" />
    <glyph glyph-name="y" unicode="y" horiz-adv-x="433" 
d="M181 0q-18 36 -39.5 92.5t-43 120.5t-40.5 129.5t-32 119.5h51q29 -113 61 -214.5t75 -207.5h4q43 108 79.5 216t62.5 206h49q-20 -75 -46.5 -157t-57 -165.5t-65 -165.5t-70.5 -156h-49q21 44 41 89t40 93h-20v0z" />
    <glyph glyph-name="z" unicode="z" horiz-adv-x="397" 
d="M36 35l262 385h-255v42h315v-35l-262 -385h264v-42h-324v35z" />
    <glyph glyph-name="braceleft" unicode="{" horiz-adv-x="277" 
d="M111 118q0 40 -16.5 70.5t-48.5 55.5q32 25 48.5 55.5t16.5 70.5v168q0 56 26.5 84.5t83.5 31.5v-34q-29 -5 -46.5 -22.5t-17.5 -60.5v-173q0 -41 -17 -71t-41 -49q24 -19 41 -49t17 -71v-173q0 -43 17.5 -60.5t46.5 -22.5v-34q-57 3 -83.5 31.5t-26.5 84.5v168z" />
    <glyph glyph-name="bar" unicode="|" horiz-adv-x="306" 
d="M130 664h46v-866h-46v866z" />
    <glyph glyph-name="braceright" unicode="}" horiz-adv-x="277" 
d="M56 -132q29 5 46.5 22.5t17.5 60.5v173q0 41 17 71t41 49q-24 19 -41 49t-17 71v173q0 43 -17.5 60.5t-46.5 22.5v34q57 -3 83.5 -31.5t26.5 -84.5v-168q0 -40 16.5 -70.5t48.5 -55.5q-32 -25 -48.5 -55.5t-16.5 -70.5v-168q0 -56 -26.5 -84.5t-83.5 -31.5v34v0z" />
    <glyph glyph-name="asciitilde" unicode="~" horiz-adv-x="488" 
d="M75 305q7 26 25.5 48t53.5 22q17 0 38.5 -7.5t51.5 -23.5q35 -19 54 -27.5t34 -8.5q14 0 27 7t24 35l30 -12q-7 -26 -25.5 -48t-53.5 -22q-17 0 -38.5 7.5t-51.5 23.5q-35 19 -54 27.5t-34 8.5q-14 0 -27 -7t-24 -35z" />
    <glyph glyph-name="uni00A0" unicode="&#xa0;" horiz-adv-x="245" 
 />
    <glyph glyph-name="exclamdown" unicode="&#xa1;" horiz-adv-x="269" 
d="M103 462h63v-74h-63v74zM119 265h31l17 -447h-65z" />
    <glyph glyph-name="cent" unicode="&#xa2;" horiz-adv-x="459" 
d="M223 83q-89 11 -129.5 75.5t-40.5 166.5q0 46 8.5 86t28 71.5t52.5 52t81 26.5v97h46v-95q29 -1 61.5 -5.5t58.5 -10.5l-9 -42q-23 5 -57 10t-63 5q-81 0 -118 -48.5t-37 -145.5q0 -41 7 -77.5t24.5 -63.5t47.5 -43t76 -16q31 0 64.5 7.5t66.5 22.5l18 -40
q-28 -14 -64 -23.5t-76 -11.5v-93h-46v95z" />
    <glyph glyph-name="sterling" unicode="&#xa3;" horiz-adv-x="511" 
d="M64 36q38 23 65 61t27 96q0 24 -5 49t-13 51h-80v35l68 4q-13 39 -23.5 78t-10.5 77q0 43 15.5 74.5t42.5 52t63.5 30.5t77.5 10q36 0 74.5 -6t73.5 -14l-9 -45q-29 7 -67 13t-72 6q-29 0 -55.5 -6.5t-46.5 -20.5t-32 -36t-12 -54q0 -40 10 -79t22 -78h186v-41h-175
q7 -26 12 -50.5t5 -49.5q0 -51 -18 -88t-46 -55l1 -4h307v-46h-385v36z" />
    <glyph glyph-name="currency" unicode="&#xa4;" horiz-adv-x="476" 
d="M62 136l57 61q-17 23 -25 55t-8 70t8 70t25 55l-57 61l33 29l56 -60q34 23 87 23t87 -23l56 60l33 -29l-57 -61q17 -23 25 -55t8 -70t-8 -70t-25 -55l57 -61l-33 -29l-56 60q-34 -23 -87 -23t-87 23l-56 -60zM238 181q31 0 51.5 10.5t33.5 29t18.5 44.5t5.5 57t-5.5 57
t-18.5 44.5t-33.5 29t-51.5 10.5t-52 -10.5t-33.5 -29t-18 -44.5t-5.5 -57t5.5 -57t18 -44.5t33.5 -29t52 -10.5z" />
    <glyph glyph-name="yen" unicode="&#xa5;" horiz-adv-x="503" 
d="M66 206h160v94h-160v41h138q-47 74 -87 147t-78 156h56q35 -79 73 -149t83 -140h4q43 70 81 140t74 149h54q-38 -83 -78.5 -156t-86.5 -147h139v-41h-160v-94h160v-41h-160v-165h-52v165h-160v41z" />
    <glyph glyph-name="brokenbar" unicode="&#xa6;" horiz-adv-x="306" 
d="M130 664h46v-338h-46v338zM176 136v-338h-46v338h46z" />
    <glyph glyph-name="section" unicode="&#xa7;" horiz-adv-x="543" 
d="M96 -73q26 -5 64 -10.5t71 -5.5q47 0 80.5 13.5t55 38.5t33 58.5t15.5 74.5q-54 -15 -111 -15q-66 0 -111 22t-72 61t-39 91.5t-12 113.5q0 58 11 110t38.5 91t74.5 61.5t119 22.5q35 0 73 -5t68 -13l-9 -43q-26 5 -64 10.5t-71 5.5q-48 0 -81 -13.5t-55 -38.5t-33.5 -59
t-15.5 -75q27 8 55.5 12t56.5 4q66 0 111 -22t72 -61t39 -91.5t12 -113.5q0 -58 -11 -110t-38.5 -91t-74.5 -61.5t-119 -22.5q-35 0 -73 5t-68 13zM306 126q27 0 55.5 5t56.5 14q0 48 -7 93t-27.5 79.5t-56 55.5t-92.5 21q-27 0 -55.5 -5t-56.5 -13q0 -49 7 -94t27.5 -79.5
t56 -55.5t92.5 -21z" />
    <glyph glyph-name="dieresis" unicode="&#xa8;" horiz-adv-x="350" 
d="M231 612h63v-70h-63v70zM56 612h63v-70h-63v70z" />
    <glyph glyph-name="copyright" unicode="&#xa9;" horiz-adv-x="722" 
d="M53 322q0 76 21 137.5t60.5 105t97 66.5t129.5 23t129.5 -23t97 -66.5t60.5 -105t21 -137.5q0 -77 -21 -138t-60.5 -104.5t-97 -66.5t-129.5 -23t-129.5 23t-97 66.5t-60.5 104.5t-21 138zM93 322q0 -143 70.5 -219t197.5 -76t197.5 76t70.5 219t-70.5 219t-197.5 76
t-197.5 -76t-70.5 -219zM360 139q-42 0 -70 14.5t-45 39.5t-24 58.5t-7 70.5q0 36 7 69t24.5 58t46.5 40t73 15q22 0 46 -3.5t44 -8.5l-7 -38q-19 5 -40.5 8t-41.5 3q-33 0 -54 -11t-33 -30.5t-16.5 -45.5t-4.5 -55q0 -28 4 -54t15 -46t31.5 -32t53.5 -12q23 0 49 5.5
t46 14.5l14 -36q-23 -11 -52 -17.5t-59 -6.5z" />
    <glyph glyph-name="ordfeminine" unicode="&#xaa;" horiz-adv-x="319" 
d="M131 362q-39 0 -67 21t-28 65q0 45 32 65.5t84 20.5q14 0 31 -1.5t33 -3.5v29q0 36 -18.5 48.5t-48.5 12.5q-20 0 -42.5 -4t-39.5 -9l-8 33q19 6 43 10.5t49 4.5q22 0 41 -4.5t33 -15t22 -28.5t8 -44v-194h-32l-4 26q-17 -14 -39 -23t-49 -9zM137 395q43 0 79 28v73
q-17 2 -34.5 3.5t-29.5 1.5q-33 0 -54 -12t-21 -42q0 -26 16.5 -39t43.5 -13z" />
    <glyph glyph-name="guillemotleft" unicode="&#xab;" horiz-adv-x="458" 
d="M51 231q0 14 7.5 31.5t25.5 37.5q21 24 56.5 57.5t72.5 67.5l30 -31q-42 -39 -73 -69t-48 -49q-13 -14 -18 -24t-5 -21t5 -21t18 -24q17 -19 48 -49t73 -69l-30 -31q-37 34 -72.5 67.5t-56.5 57.5q-18 20 -25.5 37.5t-7.5 31.5zM209 231q0 14 7.5 31.5t25.5 37.5
q21 24 56.5 57.5t72.5 67.5l30 -31q-42 -39 -73 -69t-48 -49q-13 -14 -18 -24t-5 -21t5 -21t18 -24q17 -19 48 -49t73 -69l-30 -31q-37 34 -72.5 67.5t-56.5 57.5q-18 20 -25.5 37.5t-7.5 31.5z" />
    <glyph glyph-name="logicalnot" unicode="&#xac;" horiz-adv-x="584" 
d="M61 357h462v-251h-42v211h-420v40z" />
    <glyph glyph-name="uni00AD" unicode="&#xad;" horiz-adv-x="308" 
d="M51 271h206v-46h-206v46z" />
    <glyph glyph-name="registered" unicode="&#xae;" horiz-adv-x="442" 
d="M221 322q-75 0 -116.5 44.5t-41.5 121.5t41.5 121.5t116.5 44.5t116.5 -44.5t41.5 -121.5t-41.5 -121.5t-116.5 -44.5zM221 350q62 0 95 34.5t33 103.5t-33 103.5t-95 34.5t-95 -34.5t-33 -103.5t33 -103.5t95 -34.5zM160 579q13 2 28 3t27 1q29 0 50 -12.5t21 -42.5
q0 -40 -39 -52q9 -17 20 -36.5t22 -36.5l-1 -2h-34q-11 17 -19.5 34l-18.5 37h-12.5t-13.5 1v-72h-30v178zM190 497q5 -1 10.5 -1h10.5q22 0 33 6.5t11 24.5q0 17 -11 23t-28 6h-12t-14 -1v-58z" />
    <glyph glyph-name="macron" unicode="&#xaf;" horiz-adv-x="350" 
d="M59 597h232v-40h-232v40z" />
    <glyph glyph-name="degree" unicode="&#xb0;" horiz-adv-x="338" 
d="M169 408q-25 0 -47 9t-38 25.5t-25 39t-9 49.5t9 49.5t25 39t38 25.5t47 9t47 -9t38 -25.5t25 -39t9 -49.5t-9 -49.5t-25 -39t-38 -25.5t-47 -9zM169 439q36 0 60.5 26.5t24.5 65.5t-24.5 65.5t-60.5 26.5t-60.5 -26.5t-24.5 -65.5t24.5 -65.5t60.5 -26.5z" />
    <glyph glyph-name="plusminus" unicode="&#xb1;" horiz-adv-x="584" 
d="M271 324h-190v40h190v181h42v-181h190v-40h-190v-181h-42v181zM81 40h422v-40h-422v40z" />
    <glyph glyph-name="uni00B2" unicode="&#xb2;" horiz-adv-x="327" 
d="M50 324q37 32 69.5 62t55.5 58.5t36.5 55t13.5 52.5q0 30 -18.5 47t-54.5 17q-23 0 -46.5 -6.5t-41.5 -14.5l-15 35q21 10 48.5 17t56.5 7q49 0 81 -25t32 -76q0 -29 -12 -57t-32 -55t-47 -53.5t-57 -53.5l2 -4h156v-37h-227v31z" />
    <glyph glyph-name="uni00B3" unicode="&#xb3;" horiz-adv-x="328" 
d="M66 338q18 -4 42 -7.5t47 -3.5q36 0 58.5 13.5t22.5 54.5q0 39 -20.5 51.5t-58.5 12.5h-36v36h35q33 0 53 13t20 48q0 32 -17.5 45.5t-49.5 13.5q-21 0 -44.5 -5t-41.5 -13l-13 35q22 9 47.5 15.5t53.5 6.5q48 0 78 -23t30 -72q0 -32 -13 -51t-35 -27v-4
q26 -8 40.5 -27.5t14.5 -55.5q0 -55 -33 -80t-91 -25q-25 0 -51 3.5t-46 8.5z" />
    <glyph glyph-name="acute" unicode="&#xb4;" horiz-adv-x="350" 
d="M125 537l96 148l47 -37l-120 -129z" />
    <glyph glyph-name="mu" unicode="&#xb5;" horiz-adv-x="516" 
d="M83 462h50v-321q0 -57 27 -82t72 -25q42 0 82 16.5t69 37.5v374h50v-462h-42l-5 47q-29 -21 -68 -39t-90 -18q-58 0 -95 27q-1 -60 -13.5 -108t-32.5 -91h-50q21 43 33.5 91.5t12.5 110.5v442z" />
    <glyph glyph-name="paragraph" unicode="&#xb6;" horiz-adv-x="446" 
d="M215 339q-86 0 -125 37.5t-39 114.5q0 79 39 116t115 37h158v-826h-46v521h-56v-521h-46v521z" />
    <glyph glyph-name="periodcentered" unicode="&#xb7;" horiz-adv-x="244" 
d="M90 277h64v-74h-64v74z" />
    <glyph glyph-name="cedilla" unicode="&#xb8;" horiz-adv-x="264" 
d="M91 -45q58 0 84 -15.5t26 -53.5q0 -34 -19.5 -56t-60.5 -22q-14 0 -28.5 2.5t-23.5 4.5l4 28q21 -6 40 -6q21 0 36 10.5t15 36.5q0 20 -14.5 32.5t-62.5 12.5l4 26v0z" />
    <glyph glyph-name="uni00B9" unicode="&#xb9;" horiz-adv-x="281" 
d="M135 600l-75 -29l-14 31l95 42h36v-351h-42v307z" />
    <glyph glyph-name="ordmasculine" unicode="&#xba;" horiz-adv-x="319" 
d="M159 362q-34 0 -57.5 10.5t-38.5 30t-21.5 46.5t-6.5 59t6.5 59t21.5 46.5t38.5 30t57.5 10.5t57.5 -10.5t38.5 -30t22 -46.5t7 -59q0 -65 -29 -105.5t-96 -40.5zM159 397q49 0 67.5 31.5t18.5 79.5t-18.5 79.5t-67.5 31.5t-67 -31.5t-18 -79.5t18 -79.5t67 -31.5z" />
    <glyph glyph-name="guillemotright" unicode="&#xbb;" horiz-adv-x="458" 
d="M249 231q0 -14 -7.5 -31.5t-25.5 -37.5q-21 -24 -56.5 -57.5t-72.5 -67.5l-30 31q42 39 73 69t48 49q13 14 18 24t5 21t-5 21t-18 24q-17 19 -48 49t-73 69l30 31q37 -34 72.5 -67.5t56.5 -57.5q18 -20 25.5 -37.5t7.5 -31.5zM407 231q0 -14 -7.5 -31.5t-25.5 -37.5
q-21 -24 -56.5 -57.5t-72.5 -67.5l-30 31q42 39 73 69t48 49q13 14 18 24t5 21t-5 21t-18 24q-17 19 -48 49t-73 69l30 31q37 -34 72.5 -67.5t56.5 -57.5q18 -20 25.5 -37.5t7.5 -31.5z" />
    <glyph glyph-name="onequarter" unicode="&#xbc;" horiz-adv-x="696" 
d="M381 110q29 54 64.5 116t74.5 125h44q-38 -62 -73 -122.5t-63 -112.5h121l4 74h38v-74h66v-36h-66v-80h-42v80h-168v30zM495 644h49l-377 -644h-49zM135 600l-75 -29l-14 31l95 42h36v-351h-42v307z" />
    <glyph glyph-name="onehalf" unicode="&#xbd;" horiz-adv-x="729" 
d="M495 644h49l-377 -644h-49zM135 600l-75 -29l-14 31l95 42h36v-351h-42v307zM456 31q37 32 69.5 62t55.5 58.5t36.5 55t13.5 52.5q0 30 -18.5 47t-54.5 17q-23 0 -46.5 -6.5t-41.5 -14.5l-15 35q21 10 48.5 17t56.5 7q49 0 81 -25t32 -76q0 -29 -12 -57t-32 -55
t-47 -53.5t-57 -53.5l2 -4h156v-37h-227v31z" />
    <glyph glyph-name="threequarters" unicode="&#xbe;" horiz-adv-x="740" 
d="M425 110q29 54 64.5 116t74.5 125h44q-38 -62 -73 -122.5t-63 -112.5h121l4 74h38v-74h66v-36h-66v-80h-42v80h-168v30zM539 644h49l-377 -644h-49zM49 338q18 -4 42 -7.5t47 -3.5q36 0 58.5 13.5t22.5 54.5q0 39 -20.5 51.5t-58.5 12.5h-36v36h35q33 0 53 13t20 48
q0 32 -17.5 45.5t-49.5 13.5q-21 0 -44.5 -5t-41.5 -13l-13 35q22 9 47.5 15.5t53.5 6.5q48 0 78 -23t30 -72q0 -32 -13 -51t-35 -27v-4q26 -8 40.5 -27.5t14.5 -55.5q0 -55 -33 -80t-91 -25q-25 0 -51 3.5t-46 8.5z" />
    <glyph glyph-name="questiondown" unicode="&#xbf;" horiz-adv-x="398" 
d="M198 462h63v-74h-63v74zM37 -40q0 27 6.5 48t17.5 39t26 33.5t32 32.5q23 22 39.5 40t27.5 35t16 35.5t5 41.5h45q0 -32 -6.5 -56t-19 -45t-31.5 -41t-43 -44q-12 -11 -23 -23t-19.5 -26t-14 -30.5t-5.5 -37.5q0 -54 35 -81t91 -27q36 0 71.5 11t63.5 25l19 -42
q-32 -17 -72.5 -28.5t-83.5 -11.5q-37 0 -69 9t-56 27.5t-38 47.5t-14 68z" />
    <glyph glyph-name="Agrave" unicode="&#xc0;" horiz-adv-x="536" 
d="M19 0q23 81 51 171.5t57.5 177.5t57 164t50.5 131h67q22 -54 50 -131t57.5 -164t57.5 -177.5t51 -171.5h-53l-50 170h-294l-50 -170h-52zM402 216q-30 97 -63 191.5t-69 191.5h-4q-36 -97 -69 -191.5t-63 -191.5h268zM177 824l47 37l96 -148l-23 -18z" />
    <glyph glyph-name="Aacute" unicode="&#xc1;" horiz-adv-x="536" 
d="M19 0q23 81 51 171.5t57.5 177.5t57 164t50.5 131h67q22 -54 50 -131t57.5 -164t57.5 -177.5t51 -171.5h-53l-50 170h-294l-50 -170h-52zM402 216q-30 97 -63 191.5t-69 191.5h-4q-36 -97 -69 -191.5t-63 -191.5h268zM220 713l96 148l47 -37l-120 -129z" />
    <glyph glyph-name="Acircumflex" unicode="&#xc2;" horiz-adv-x="536" 
d="M19 0q23 81 51 171.5t57.5 177.5t57 164t50.5 131h67q22 -54 50 -131t57.5 -164t57.5 -177.5t51 -171.5h-53l-50 170h-294l-50 -170h-52zM402 216q-30 97 -63 191.5t-69 191.5h-4q-36 -97 -69 -191.5t-63 -191.5h268zM143 710l105 120h44l105 -120l-22 -19l-105 96
l-105 -96z" />
    <glyph glyph-name="Atilde" unicode="&#xc3;" horiz-adv-x="536" 
d="M19 0q23 81 51 171.5t57.5 177.5t57 164t50.5 131h67q22 -54 50 -131t57.5 -164t57.5 -177.5t51 -171.5h-53l-50 170h-294l-50 -170h-52zM402 216q-30 97 -63 191.5t-69 191.5h-4q-36 -97 -69 -191.5t-63 -191.5h268zM122 735q11 35 29.5 55t47.5 20q19 0 37.5 -7.5
t36.5 -17t35 -17t33 -7.5q19 0 30.5 11.5t19.5 31.5l27 -10q-11 -35 -29.5 -55t-47.5 -20q-19 0 -37.5 7.5t-36.5 17t-35 17t-33 7.5q-19 0 -30.5 -11.5t-19.5 -31.5z" />
    <glyph glyph-name="Adieresis" unicode="&#xc4;" horiz-adv-x="536" 
d="M19 0q23 81 51 171.5t57.5 177.5t57 164t50.5 131h67q22 -54 50 -131t57.5 -164t57.5 -177.5t51 -171.5h-53l-50 170h-294l-50 -170h-52zM402 216q-30 97 -63 191.5t-69 191.5h-4q-36 -97 -69 -191.5t-63 -191.5h268zM326 788h63v-70h-63v70zM151 788h63v-70h-63v70z" />
    <glyph glyph-name="Aring" unicode="&#xc5;" horiz-adv-x="536" 
d="M19 0q23 81 51 171.5t57.5 177.5t57 164t50.5 131h67q22 -54 50 -131t57.5 -164t57.5 -177.5t51 -171.5h-53l-50 170h-294l-50 -170h-52zM402 216q-30 97 -63 191.5t-69 191.5h-4q-36 -97 -69 -191.5t-63 -191.5h268zM270 696q-41 0 -64 23.5t-23 62.5t23 62.5t64 23.5
t64 -23.5t23 -62.5t-23 -62.5t-64 -23.5zM270 726q55 0 55 56t-55 56t-55 -56t55 -56z" />
    <glyph glyph-name="AE" unicode="&#xc6;" horiz-adv-x="753" 
d="M10 0q34 81 74 171.5t80.5 177.5t78.5 164t68 131h396v-46h-285v-244h235v-46h-235v-262h285v-46h-337v170h-234l-72 -170h-54zM370 216v382h-33q-49 -97 -94 -191t-87 -191h214z" />
    <glyph glyph-name="Ccedilla" unicode="&#xc7;" horiz-adv-x="528" 
d="M311 -10q-78 0 -129 27t-81 73t-41.5 106t-11.5 126t12 126.5t42.5 106t84.5 72.5t138 27q38 0 79.5 -5.5t75.5 -13.5l-9 -45q-30 6 -71.5 12t-78.5 6q-71 0 -114 -24.5t-66.5 -65t-31.5 -92t-8 -105.5q0 -51 7.5 -102t30 -91.5t64.5 -66t110 -25.5q44 0 89 10.5t85 27.5
l18 -41q-45 -22 -97 -32.5t-97 -10.5zM261 -45q58 0 84 -15.5t26 -53.5q0 -34 -19.5 -56t-60.5 -22q-14 0 -28.5 2.5t-23.5 4.5l4 28q21 -6 40 -6q21 0 36 10.5t15 36.5q0 20 -14.5 32.5t-62.5 12.5z" />
    <glyph glyph-name="Egrave" unicode="&#xc8;" horiz-adv-x="492" 
d="M89 644h357v-46h-305v-244h255v-46h-255v-262h305v-46h-357v644zM175 824l47 37l96 -148l-23 -18z" />
    <glyph glyph-name="Eacute" unicode="&#xc9;" horiz-adv-x="492" 
d="M89 644h357v-46h-305v-244h255v-46h-255v-262h305v-46h-357v644zM218 713l96 148l47 -37l-120 -129z" />
    <glyph glyph-name="Ecircumflex" unicode="&#xca;" horiz-adv-x="492" 
d="M89 644h357v-46h-305v-244h255v-46h-255v-262h305v-46h-357v644zM141 710l105 120h44l105 -120l-22 -19l-105 96l-105 -96z" />
    <glyph glyph-name="Edieresis" unicode="&#xcb;" horiz-adv-x="492" 
d="M89 644h357v-46h-305v-244h255v-46h-255v-262h305v-46h-357v644zM324 788h63v-70h-63v70zM149 788h63v-70h-63v70z" />
    <glyph glyph-name="Igrave" unicode="&#xcc;" horiz-adv-x="230" 
d="M89 644h52v-644h-52v644zM22 824l47 37l96 -148l-23 -18z" />
    <glyph glyph-name="Iacute" unicode="&#xcd;" horiz-adv-x="230" 
d="M89 644h52v-644h-52v644zM65 713l96 148l47 -37l-120 -129z" />
    <glyph glyph-name="Icircumflex" unicode="&#xce;" horiz-adv-x="230" 
d="M89 644h52v-644h-52v644zM-12 710l105 120h44l105 -120l-22 -19l-105 96l-105 -96z" />
    <glyph glyph-name="Idieresis" unicode="&#xcf;" horiz-adv-x="230" 
d="M89 644h52v-644h-52v644zM171 788h63v-70h-63v70zM-4 788h63v-70h-63v70z" />
    <glyph glyph-name="Eth" unicode="&#xd0;" horiz-adv-x="616" 
d="M96 310h-84v41h84v287q33 5 78.5 10.5t92.5 5.5q75 0 132 -19t96 -59.5t59 -104t20 -152.5q0 -88 -19.5 -150.5t-59 -102t-99 -57.5t-138.5 -18q-18 0 -39 0.5t-42.5 2t-42.5 3.5t-38 4v309zM148 42q28 -3 58 -4t50 -1q64 0 113.5 13t83 45.5t51 86.5t17.5 136
q0 81 -17 136.5t-50 89.5t-81 49t-110 15q-32 0 -63.5 -3t-51.5 -5v-249h159v-41h-159v-268z" />
    <glyph glyph-name="Ntilde" unicode="&#xd1;" horiz-adv-x="662" 
d="M89 644h84l345 -595h4v595h51v-644h-84l-345 595h-4v-595h-51v644zM183 735q11 35 29.5 55t47.5 20q19 0 37.5 -7.5t36.5 -17t35 -17t33 -7.5q19 0 30.5 11.5t19.5 31.5l27 -10q-11 -35 -29.5 -55t-47.5 -20q-19 0 -37.5 7.5t-36.5 17t-35 17t-33 7.5q-19 0 -30.5 -11.5
t-19.5 -31.5z" />
    <glyph glyph-name="Ograve" unicode="&#xd2;" horiz-adv-x="641" 
d="M48 322q0 169 69.5 250.5t202.5 81.5q134 0 203.5 -81t69.5 -251t-69.5 -251t-203.5 -81q-133 0 -202.5 81.5t-69.5 250.5zM101 322q0 -78 15 -132.5t43.5 -88.5t69 -49.5t91.5 -15.5t92 15.5t69.5 49.5t43.5 88.5t15 132.5t-15 132.5t-43.5 88.5t-69.5 49.5t-92 15.5
t-91.5 -15.5t-69 -49.5t-43.5 -88.5t-15 -132.5zM227 824l47 37l96 -148l-23 -18z" />
    <glyph glyph-name="Oacute" unicode="&#xd3;" horiz-adv-x="641" 
d="M48 322q0 169 69.5 250.5t202.5 81.5q134 0 203.5 -81t69.5 -251t-69.5 -251t-203.5 -81q-133 0 -202.5 81.5t-69.5 250.5zM101 322q0 -78 15 -132.5t43.5 -88.5t69 -49.5t91.5 -15.5t92 15.5t69.5 49.5t43.5 88.5t15 132.5t-15 132.5t-43.5 88.5t-69.5 49.5t-92 15.5
t-91.5 -15.5t-69 -49.5t-43.5 -88.5t-15 -132.5zM270 713l96 148l47 -37l-120 -129z" />
    <glyph glyph-name="Ocircumflex" unicode="&#xd4;" horiz-adv-x="641" 
d="M48 322q0 169 69.5 250.5t202.5 81.5q134 0 203.5 -81t69.5 -251t-69.5 -251t-203.5 -81q-133 0 -202.5 81.5t-69.5 250.5zM101 322q0 -78 15 -132.5t43.5 -88.5t69 -49.5t91.5 -15.5t92 15.5t69.5 49.5t43.5 88.5t15 132.5t-15 132.5t-43.5 88.5t-69.5 49.5t-92 15.5
t-91.5 -15.5t-69 -49.5t-43.5 -88.5t-15 -132.5zM193 710l105 120h44l105 -120l-22 -19l-105 96l-105 -96z" />
    <glyph glyph-name="Otilde" unicode="&#xd5;" horiz-adv-x="641" 
d="M48 322q0 169 69.5 250.5t202.5 81.5q134 0 203.5 -81t69.5 -251t-69.5 -251t-203.5 -81q-133 0 -202.5 81.5t-69.5 250.5zM101 322q0 -78 15 -132.5t43.5 -88.5t69 -49.5t91.5 -15.5t92 15.5t69.5 49.5t43.5 88.5t15 132.5t-15 132.5t-43.5 88.5t-69.5 49.5t-92 15.5
t-91.5 -15.5t-69 -49.5t-43.5 -88.5t-15 -132.5zM172 735q11 35 29.5 55t47.5 20q19 0 37.5 -7.5t36.5 -17t35 -17t33 -7.5q19 0 30.5 11.5t19.5 31.5l27 -10q-11 -35 -29.5 -55t-47.5 -20q-19 0 -37.5 7.5t-36.5 17t-35 17t-33 7.5q-19 0 -30.5 -11.5t-19.5 -31.5z" />
    <glyph glyph-name="Odieresis" unicode="&#xd6;" horiz-adv-x="641" 
d="M48 322q0 169 69.5 250.5t202.5 81.5q134 0 203.5 -81t69.5 -251t-69.5 -251t-203.5 -81q-133 0 -202.5 81.5t-69.5 250.5zM101 322q0 -78 15 -132.5t43.5 -88.5t69 -49.5t91.5 -15.5t92 15.5t69.5 49.5t43.5 88.5t15 132.5t-15 132.5t-43.5 88.5t-69.5 49.5t-92 15.5
t-91.5 -15.5t-69 -49.5t-43.5 -88.5t-15 -132.5zM376 788h63v-70h-63v70zM201 788h63v-70h-63v70z" />
    <glyph glyph-name="multiply" unicode="&#xd7;" horiz-adv-x="584" 
d="M264 231l-150 150l28 28l150 -150l150 150l28 -28l-150 -150l150 -150l-28 -28l-150 150l-150 -150l-28 28z" />
    <glyph glyph-name="Oslash" unicode="&#xd8;" horiz-adv-x="641" 
d="M119 71q-71 83 -71 251q0 170 69.5 251t203.5 81q107 0 170 -50l28 40h53l-50 -71q71 -83 71 -251q0 -170 -69.5 -251t-203.5 -81q-107 0 -170 50l-28 -40h-53zM150 116l312 447q-27 23 -62.5 34t-78.5 11q-51 0 -92 -15.5t-69.5 -49.5t-43.5 -88.5t-15 -132.5
q0 -136 47 -206h2zM179 81q27 -23 62.5 -34t78.5 -11q51 0 92 15.5t69.5 49.5t43.5 88.5t15 132.5q0 136 -47 206h-2z" />
    <glyph glyph-name="Ugrave" unicode="&#xd9;" horiz-adv-x="639" 
d="M86 644h52v-403q0 -56 9.5 -95t30.5 -63.5t56 -35.5t86 -11t85.5 11t56 35.5t31 63.5t9.5 95v403h51v-408q0 -59 -11 -104.5t-38 -77t-72 -48t-112 -16.5q-68 0 -113 16.5t-72 48t-38 77t-11 104.5v408zM230 824l47 37l96 -148l-23 -18z" />
    <glyph glyph-name="Uacute" unicode="&#xda;" horiz-adv-x="639" 
d="M86 644h52v-403q0 -56 9.5 -95t30.5 -63.5t56 -35.5t86 -11t85.5 11t56 35.5t31 63.5t9.5 95v403h51v-408q0 -59 -11 -104.5t-38 -77t-72 -48t-112 -16.5q-68 0 -113 16.5t-72 48t-38 77t-11 104.5v408zM273 713l96 148l47 -37l-120 -129z" />
    <glyph glyph-name="Ucircumflex" unicode="&#xdb;" horiz-adv-x="639" 
d="M86 644h52v-403q0 -56 9.5 -95t30.5 -63.5t56 -35.5t86 -11t85.5 11t56 35.5t31 63.5t9.5 95v403h51v-408q0 -59 -11 -104.5t-38 -77t-72 -48t-112 -16.5q-68 0 -113 16.5t-72 48t-38 77t-11 104.5v408zM196 710l105 120h44l105 -120l-22 -19l-105 96l-105 -96z" />
    <glyph glyph-name="Udieresis" unicode="&#xdc;" horiz-adv-x="639" 
d="M86 644h52v-403q0 -56 9.5 -95t30.5 -63.5t56 -35.5t86 -11t85.5 11t56 35.5t31 63.5t9.5 95v403h51v-408q0 -59 -11 -104.5t-38 -77t-72 -48t-112 -16.5q-68 0 -113 16.5t-72 48t-38 77t-11 104.5v408zM379 788h63v-70h-63v70zM204 788h63v-70h-63v70z" />
    <glyph glyph-name="Yacute" unicode="&#xdd;" horiz-adv-x="524" 
d="M236 238q-32 49 -61 96.5t-55.5 97t-51.5 102t-49 110.5h56q42 -102 87.5 -188t98.5 -171h4q52 85 97 171t89 188h54q-25 -58 -50 -110.5t-51.5 -102t-55.5 -97t-60 -96.5v-238h-52v238zM213 713l96 148l47 -37l-120 -129z" />
    <glyph glyph-name="Thorn" unicode="&#xde;" horiz-adv-x="531" 
d="M89 644h52v-124q32 3 65 5.5t63 2.5q52 0 96 -9t75.5 -31t49 -59t17.5 -94q0 -59 -18.5 -96.5t-51 -59.5t-76.5 -30.5t-95 -8.5q-29 0 -60 2t-65 6v-148h-52v644zM141 193q34 -4 68.5 -5.5t57.5 -1.5q40 0 74 6t59 22.5t39.5 45.5t14.5 76q0 45 -13.5 73t-37.5 44.5
t-57.5 22.5t-74.5 6q-27 0 -61.5 -2t-68.5 -6v-281z" />
    <glyph glyph-name="germandbls" unicode="&#xdf;" horiz-adv-x="516" 
d="M73 482q0 38 9.5 69.5t31 54.5t57 35.5t86.5 12.5q30 0 59.5 -5.5t53 -18t37.5 -34.5t14 -55q0 -42 -23 -67.5t-64 -48.5q-44 -25 -65.5 -41.5t-21.5 -42.5q0 -14 6 -24.5t19 -19t33.5 -17t48.5 -18.5q30 -11 53.5 -23t39.5 -27.5t24.5 -36t8.5 -48.5q0 -68 -45 -102.5
t-126 -34.5q-34 0 -66.5 5t-64.5 13l9 44q25 -6 59.5 -12t66.5 -6q50 0 83 20.5t33 69.5q0 40 -25.5 58.5t-70.5 35.5q-27 10 -52 20t-44 23t-30 31t-11 46q0 21 6.5 37t20 30t33.5 27t46 27q29 16 48.5 32t19.5 48q0 21 -9 34.5t-24.5 21.5t-36 11.5t-44.5 3.5
q-38 0 -63.5 -8t-41 -24.5t-22 -41.5t-6.5 -59v-477h-50v482z" />
    <glyph glyph-name="agrave" unicode="&#xe0;" horiz-adv-x="472" 
d="M41 130q0 38 14 64.5t39 43.5t60 25t77 8q23 0 55 -2t59 -6v56q0 33 -9 54t-24.5 33t-36.5 17t-46 5q-35 0 -72.5 -7.5t-67.5 -16.5l-12 41q32 10 72.5 18.5t82.5 8.5q32 0 61.5 -7t52 -23.5t36 -45.5t13.5 -72v-324h-42l-5 44q-30 -24 -68 -39t-84 -15q-32 0 -60 8.5
t-49 26t-33.5 43.5t-12.5 62zM92 131q0 -50 30.5 -74t78.5 -24q36 0 74 13t70 39v137q-29 3 -61 5t-52 2q-62 0 -101 -21.5t-39 -76.5zM137 648l47 37l96 -148l-23 -18z" />
    <glyph glyph-name="aacute" unicode="&#xe1;" horiz-adv-x="472" 
d="M41 130q0 38 14 64.5t39 43.5t60 25t77 8q23 0 55 -2t59 -6v56q0 33 -9 54t-24.5 33t-36.5 17t-46 5q-35 0 -72.5 -7.5t-67.5 -16.5l-12 41q32 10 72.5 18.5t82.5 8.5q32 0 61.5 -7t52 -23.5t36 -45.5t13.5 -72v-324h-42l-5 44q-30 -24 -68 -39t-84 -15q-32 0 -60 8.5
t-49 26t-33.5 43.5t-12.5 62zM92 131q0 -50 30.5 -74t78.5 -24q36 0 74 13t70 39v137q-29 3 -61 5t-52 2q-62 0 -101 -21.5t-39 -76.5zM180 537l96 148l47 -37l-120 -129z" />
    <glyph glyph-name="acircumflex" unicode="&#xe2;" horiz-adv-x="472" 
d="M41 130q0 38 14 64.5t39 43.5t60 25t77 8q23 0 55 -2t59 -6v56q0 33 -9 54t-24.5 33t-36.5 17t-46 5q-35 0 -72.5 -7.5t-67.5 -16.5l-12 41q32 10 72.5 18.5t82.5 8.5q32 0 61.5 -7t52 -23.5t36 -45.5t13.5 -72v-324h-42l-5 44q-30 -24 -68 -39t-84 -15q-32 0 -60 8.5
t-49 26t-33.5 43.5t-12.5 62zM92 131q0 -50 30.5 -74t78.5 -24q36 0 74 13t70 39v137q-29 3 -61 5t-52 2q-62 0 -101 -21.5t-39 -76.5zM103 534l105 120h44l105 -120l-22 -19l-105 96l-105 -96z" />
    <glyph glyph-name="atilde" unicode="&#xe3;" horiz-adv-x="472" 
d="M41 130q0 38 14 64.5t39 43.5t60 25t77 8q23 0 55 -2t59 -6v56q0 33 -9 54t-24.5 33t-36.5 17t-46 5q-35 0 -72.5 -7.5t-67.5 -16.5l-12 41q32 10 72.5 18.5t82.5 8.5q32 0 61.5 -7t52 -23.5t36 -45.5t13.5 -72v-324h-42l-5 44q-30 -24 -68 -39t-84 -15q-32 0 -60 8.5
t-49 26t-33.5 43.5t-12.5 62zM92 131q0 -50 30.5 -74t78.5 -24q36 0 74 13t70 39v137q-29 3 -61 5t-52 2q-62 0 -101 -21.5t-39 -76.5zM82 559q11 35 29.5 55t47.5 20q19 0 37.5 -7.5t36.5 -17t35 -17t33 -7.5q19 0 30.5 11.5t19.5 31.5l27 -10q-11 -35 -29.5 -55t-47.5 -20
q-19 0 -37.5 7.5t-36.5 17t-35 17t-33 7.5q-19 0 -30.5 -11.5t-19.5 -31.5z" />
    <glyph glyph-name="adieresis" unicode="&#xe4;" horiz-adv-x="472" 
d="M41 130q0 38 14 64.5t39 43.5t60 25t77 8q23 0 55 -2t59 -6v56q0 33 -9 54t-24.5 33t-36.5 17t-46 5q-35 0 -72.5 -7.5t-67.5 -16.5l-12 41q32 10 72.5 18.5t82.5 8.5q32 0 61.5 -7t52 -23.5t36 -45.5t13.5 -72v-324h-42l-5 44q-30 -24 -68 -39t-84 -15q-32 0 -60 8.5
t-49 26t-33.5 43.5t-12.5 62zM92 131q0 -50 30.5 -74t78.5 -24q36 0 74 13t70 39v137q-29 3 -61 5t-52 2q-62 0 -101 -21.5t-39 -76.5zM286 612h63v-70h-63v70zM111 612h63v-70h-63v70z" />
    <glyph glyph-name="aring" unicode="&#xe5;" horiz-adv-x="472" 
d="M41 130q0 38 14 64.5t39 43.5t60 25t77 8q23 0 55 -2t59 -6v56q0 33 -9 54t-24.5 33t-36.5 17t-46 5q-35 0 -72.5 -7.5t-67.5 -16.5l-12 41q32 10 72.5 18.5t82.5 8.5q32 0 61.5 -7t52 -23.5t36 -45.5t13.5 -72v-324h-42l-5 44q-30 -24 -68 -39t-84 -15q-32 0 -60 8.5
t-49 26t-33.5 43.5t-12.5 62zM92 131q0 -50 30.5 -74t78.5 -24q36 0 74 13t70 39v137q-29 3 -61 5t-52 2q-62 0 -101 -21.5t-39 -76.5zM230 520q-41 0 -64 23.5t-23 62.5t23 62.5t64 23.5t64 -23.5t23 -62.5t-23 -62.5t-64 -23.5zM230 550q55 0 55 56t-55 56t-55 -56t55 -56
z" />
    <glyph glyph-name="ae" unicode="&#xe6;" horiz-adv-x="730" 
d="M41 130q0 38 13.5 64.5t37.5 43.5t58 25t75 8q21 0 51 -2t56 -5v55q0 33 -8.5 54t-23 33t-34.5 17t-44 5q-34 0 -69.5 -7.5t-65.5 -16.5l-12 41q31 11 70.5 19t79.5 8q47 0 86 -16.5t57 -59.5h4q23 36 58.5 56t83.5 20q44 0 75.5 -17t51.5 -45.5t29.5 -67.5t9.5 -82
q0 -24 -3 -46h-295q1 -40 9 -73t24.5 -57t43.5 -37t66 -13q37 0 69.5 10t63.5 26l19 -40q-30 -15 -68 -27.5t-85 -12.5q-106 0 -155 75q-35 -35 -80.5 -55t-96.5 -20q-31 0 -58.5 8.5t-48 25.5t-32.5 43.5t-12 62.5zM631 255q0 32 -5.5 63t-18.5 55.5t-36 39.5t-57 15
q-63 0 -96 -48.5t-36 -124.5h249zM92 131q0 -49 28.5 -73.5t74.5 -24.5q45 0 84 17.5t72 50.5q-9 25 -14 55t-5 67q-28 3 -58.5 4.5t-47.5 1.5q-62 0 -98 -21.5t-36 -76.5z" />
    <glyph glyph-name="ccedilla" unicode="&#xe7;" horiz-adv-x="437" 
d="M53 234q0 50 10 93.5t34 75.5t64 50.5t100 18.5q31 0 66 -4.5t62 -11.5l-9 -42q-23 5 -57 10t-63 5q-81 0 -118 -48.5t-37 -145.5q0 -41 7 -77.5t24.5 -63.5t47.5 -43t76 -16q31 0 64.5 7.5t66.5 22.5l18 -40q-29 -14 -68.5 -24.5t-83.5 -10.5q-53 0 -91.5 17.5
t-63.5 49.5t-37 77t-12 100zM210 -45q58 0 84 -15.5t26 -53.5q0 -34 -19.5 -56t-60.5 -22q-14 0 -28.5 2.5t-23.5 4.5l4 28q21 -6 40 -6q21 0 36 10.5t15 36.5q0 20 -14.5 32.5t-62.5 12.5z" />
    <glyph glyph-name="egrave" unicode="&#xe8;" horiz-adv-x="462" 
d="M51 225q0 115 49.5 181t140.5 66q45 0 77.5 -17t53.5 -46t30.5 -67.5t9.5 -81.5q0 -24 -3 -46h-307q1 -39 9.5 -72t26 -57t45.5 -37.5t69 -13.5q38 0 71.5 10.5t65.5 27.5l20 -39q-31 -17 -70.5 -30t-88.5 -13q-93 0 -146 57.5t-53 177.5zM363 255q0 31 -5.5 61.5
t-19 55.5t-37.5 40.5t-60 15.5q-33 0 -58.5 -13.5t-43 -36.5t-27 -54.5t-10.5 -68.5h261zM145 648l47 37l96 -148l-23 -18z" />
    <glyph glyph-name="eacute" unicode="&#xe9;" horiz-adv-x="462" 
d="M51 225q0 115 49.5 181t140.5 66q45 0 77.5 -17t53.5 -46t30.5 -67.5t9.5 -81.5q0 -24 -3 -46h-307q1 -39 9.5 -72t26 -57t45.5 -37.5t69 -13.5q38 0 71.5 10.5t65.5 27.5l20 -39q-31 -17 -70.5 -30t-88.5 -13q-93 0 -146 57.5t-53 177.5zM363 255q0 31 -5.5 61.5
t-19 55.5t-37.5 40.5t-60 15.5q-33 0 -58.5 -13.5t-43 -36.5t-27 -54.5t-10.5 -68.5h261zM188 537l96 148l47 -37l-120 -129z" />
    <glyph glyph-name="ecircumflex" unicode="&#xea;" horiz-adv-x="462" 
d="M51 225q0 115 49.5 181t140.5 66q45 0 77.5 -17t53.5 -46t30.5 -67.5t9.5 -81.5q0 -24 -3 -46h-307q1 -39 9.5 -72t26 -57t45.5 -37.5t69 -13.5q38 0 71.5 10.5t65.5 27.5l20 -39q-31 -17 -70.5 -30t-88.5 -13q-93 0 -146 57.5t-53 177.5zM363 255q0 31 -5.5 61.5
t-19 55.5t-37.5 40.5t-60 15.5q-33 0 -58.5 -13.5t-43 -36.5t-27 -54.5t-10.5 -68.5h261zM111 534l105 120h44l105 -120l-22 -19l-105 96l-105 -96z" />
    <glyph glyph-name="edieresis" unicode="&#xeb;" horiz-adv-x="462" 
d="M51 225q0 115 49.5 181t140.5 66q45 0 77.5 -17t53.5 -46t30.5 -67.5t9.5 -81.5q0 -24 -3 -46h-307q1 -39 9.5 -72t26 -57t45.5 -37.5t69 -13.5q38 0 71.5 10.5t65.5 27.5l20 -39q-31 -17 -70.5 -30t-88.5 -13q-93 0 -146 57.5t-53 177.5zM363 255q0 31 -5.5 61.5
t-19 55.5t-37.5 40.5t-60 15.5q-33 0 -58.5 -13.5t-43 -36.5t-27 -54.5t-10.5 -68.5h261zM294 612h63v-70h-63v70zM119 612h63v-70h-63v70z" />
    <glyph glyph-name="igrave" unicode="&#xec;" horiz-adv-x="216" 
d="M83 462h50v-462h-50v462zM15 648l47 37l96 -148l-23 -18z" />
    <glyph glyph-name="iacute" unicode="&#xed;" horiz-adv-x="216" 
d="M83 462h50v-462h-50v462zM58 537l96 148l47 -37l-120 -129z" />
    <glyph glyph-name="icircumflex" unicode="&#xee;" horiz-adv-x="216" 
d="M83 462h50v-462h-50v462zM-19 534l105 120h44l105 -120l-22 -19l-105 96l-105 -96z" />
    <glyph glyph-name="idieresis" unicode="&#xef;" horiz-adv-x="216" 
d="M83 462h50v-462h-50v462zM164 612h63v-70h-63v70zM-11 612h63v-70h-63v70z" />
    <glyph glyph-name="eth" unicode="&#xf0;" horiz-adv-x="512" 
d="M51 240q0 111 50.5 171.5t152.5 60.5q22 0 40.5 -3t46.5 -8q-32 53 -84 102l-87 -64l-24 32l81 59q-20 17 -42.5 31.5t-45.5 28.5l25 38q54 -31 101 -69l80 59l24 -32l-73 -54q48 -45 87 -105q31 -49 53.5 -113.5t22.5 -145.5q0 -51 -11 -95t-36 -75.5t-64 -49.5t-94 -18
q-54 0 -92.5 17.5t-63 50t-36 79t-11.5 103.5zM255 34q43 0 72.5 14.5t47.5 41t25.5 62t7.5 77.5q0 54 -11 98.5t-30 84.5q-33 11 -58.5 15t-49.5 4q-72 0 -114.5 -47.5t-42.5 -143.5q0 -45 7.5 -83t25 -65.5t47 -42.5t73.5 -15z" />
    <glyph glyph-name="ntilde" unicode="&#xf1;" horiz-adv-x="512" 
d="M83 462h42l4 -50q29 22 69.5 41t92.5 19q30 0 56.5 -8t46 -26t31 -46t11.5 -68v-324h-50v319q0 59 -27.5 84t-71.5 25q-43 0 -84 -17.5t-70 -38.5v-372h-50v462zM111 559q11 35 29.5 55t47.5 20q19 0 37.5 -7.5t36.5 -17t35 -17t33 -7.5q19 0 30.5 11.5t19.5 31.5l27 -10
q-11 -35 -29.5 -55t-47.5 -20q-19 0 -37.5 7.5t-36.5 17t-35 17t-33 7.5q-19 0 -30.5 -11.5t-19.5 -31.5z" />
    <glyph glyph-name="ograve" unicode="&#xf2;" 
d="M51 231q0 53 11.5 97t36 76t63 50t93.5 18t93.5 -18t63 -50t36 -76t11.5 -97t-11.5 -97t-36 -76t-63 -50t-93.5 -18t-93.5 18t-63 50t-36 76t-11.5 97zM102 231q0 -43 7.5 -79t25.5 -62.5t47.5 -41t72.5 -14.5t72.5 14.5t47.5 41t25.5 62.5t7.5 79t-7.5 79t-25.5 62
t-47.5 41t-72.5 15t-72.5 -15t-47.5 -41t-25.5 -62t-7.5 -79zM162 648l47 37l96 -148l-23 -18z" />
    <glyph glyph-name="oacute" unicode="&#xf3;" 
d="M51 231q0 53 11.5 97t36 76t63 50t93.5 18t93.5 -18t63 -50t36 -76t11.5 -97t-11.5 -97t-36 -76t-63 -50t-93.5 -18t-93.5 18t-63 50t-36 76t-11.5 97zM102 231q0 -43 7.5 -79t25.5 -62.5t47.5 -41t72.5 -14.5t72.5 14.5t47.5 41t25.5 62.5t7.5 79t-7.5 79t-25.5 62
t-47.5 41t-72.5 15t-72.5 -15t-47.5 -41t-25.5 -62t-7.5 -79zM205 537l96 148l47 -37l-120 -129z" />
    <glyph glyph-name="ocircumflex" unicode="&#xf4;" 
d="M51 231q0 53 11.5 97t36 76t63 50t93.5 18t93.5 -18t63 -50t36 -76t11.5 -97t-11.5 -97t-36 -76t-63 -50t-93.5 -18t-93.5 18t-63 50t-36 76t-11.5 97zM102 231q0 -43 7.5 -79t25.5 -62.5t47.5 -41t72.5 -14.5t72.5 14.5t47.5 41t25.5 62.5t7.5 79t-7.5 79t-25.5 62
t-47.5 41t-72.5 15t-72.5 -15t-47.5 -41t-25.5 -62t-7.5 -79zM128 534l105 120h44l105 -120l-22 -19l-105 96l-105 -96z" />
    <glyph glyph-name="otilde" unicode="&#xf5;" 
d="M51 231q0 53 11.5 97t36 76t63 50t93.5 18t93.5 -18t63 -50t36 -76t11.5 -97t-11.5 -97t-36 -76t-63 -50t-93.5 -18t-93.5 18t-63 50t-36 76t-11.5 97zM102 231q0 -43 7.5 -79t25.5 -62.5t47.5 -41t72.5 -14.5t72.5 14.5t47.5 41t25.5 62.5t7.5 79t-7.5 79t-25.5 62
t-47.5 41t-72.5 15t-72.5 -15t-47.5 -41t-25.5 -62t-7.5 -79zM107 559q11 35 29.5 55t47.5 20q19 0 37.5 -7.5t36.5 -17t35 -17t33 -7.5q19 0 30.5 11.5t19.5 31.5l27 -10q-11 -35 -29.5 -55t-47.5 -20q-19 0 -37.5 7.5t-36.5 17t-35 17t-33 7.5q-19 0 -30.5 -11.5
t-19.5 -31.5z" />
    <glyph glyph-name="odieresis" unicode="&#xf6;" 
d="M51 231q0 53 11.5 97t36 76t63 50t93.5 18t93.5 -18t63 -50t36 -76t11.5 -97t-11.5 -97t-36 -76t-63 -50t-93.5 -18t-93.5 18t-63 50t-36 76t-11.5 97zM102 231q0 -43 7.5 -79t25.5 -62.5t47.5 -41t72.5 -14.5t72.5 14.5t47.5 41t25.5 62.5t7.5 79t-7.5 79t-25.5 62
t-47.5 41t-72.5 15t-72.5 -15t-47.5 -41t-25.5 -62t-7.5 -79zM311 612h63v-70h-63v70zM136 612h63v-70h-63v70z" />
    <glyph glyph-name="divide" unicode="&#xf7;" horiz-adv-x="584" 
d="M262 462h60v-73h-60v73zM61 251h462v-40h-462v40zM262 73h60v-73h-60v73z" />
    <glyph glyph-name="oslash" unicode="&#xf8;" 
d="M99 56q-26 34 -37 77.5t-11 97.5q0 53 11.5 97t36 76t63 50t93.5 18q42 0 73 -10t55 -28l21 28h49l-42 -56q26 -34 37 -77.5t11 -97.5q0 -53 -11.5 -97t-36 -76t-63 -50t-93.5 -18q-42 0 -73 10t-55 28l-22 -28h-48zM131 99l223 297q-17 15 -42 23.5t-57 8.5
q-43 0 -72.5 -15t-47.5 -41t-25.5 -62t-7.5 -79q0 -39 6.5 -72t20.5 -60h2zM156 66q17 -15 42 -23.5t57 -8.5q43 0 72.5 14.5t47.5 41t25.5 62.5t7.5 79q0 39 -6.5 72t-20.5 60h-2z" />
    <glyph glyph-name="ugrave" unicode="&#xf9;" horiz-adv-x="509" 
d="M76 462h50v-319q0 -59 27.5 -84t71.5 -25q42 0 82 16.5t69 37.5v374h50v-462h-42l-5 47q-29 -21 -68 -39t-90 -18q-30 0 -56.5 8t-46 26t-31 46t-11.5 68v324zM158 648l47 37l96 -148l-23 -18z" />
    <glyph glyph-name="uacute" unicode="&#xfa;" horiz-adv-x="509" 
d="M76 462h50v-319q0 -59 27.5 -84t71.5 -25q42 0 82 16.5t69 37.5v374h50v-462h-42l-5 47q-29 -21 -68 -39t-90 -18q-30 0 -56.5 8t-46 26t-31 46t-11.5 68v324zM201 537l96 148l47 -37l-120 -129z" />
    <glyph glyph-name="ucircumflex" unicode="&#xfb;" horiz-adv-x="509" 
d="M76 462h50v-319q0 -59 27.5 -84t71.5 -25q42 0 82 16.5t69 37.5v374h50v-462h-42l-5 47q-29 -21 -68 -39t-90 -18q-30 0 -56.5 8t-46 26t-31 46t-11.5 68v324zM124 534l105 120h44l105 -120l-22 -19l-105 96l-105 -96z" />
    <glyph glyph-name="udieresis" unicode="&#xfc;" horiz-adv-x="509" 
d="M76 462h50v-319q0 -59 27.5 -84t71.5 -25q42 0 82 16.5t69 37.5v374h50v-462h-42l-5 47q-29 -21 -68 -39t-90 -18q-30 0 -56.5 8t-46 26t-31 46t-11.5 68v324zM307 612h63v-70h-63v70zM132 612h63v-70h-63v70z" />
    <glyph glyph-name="yacute" unicode="&#xfd;" horiz-adv-x="433" 
d="M181 0q-18 36 -39.5 92.5t-43 120.5t-40.5 129.5t-32 119.5h51q29 -113 61 -214.5t75 -207.5h4q43 108 79.5 216t62.5 206h49q-20 -75 -46.5 -157t-57 -165.5t-65 -165.5t-70.5 -156h-49q21 44 41 89t40 93h-20zM167 537l96 148l47 -37l-120 -129z" />
    <glyph glyph-name="thorn" unicode="&#xfe;" 
d="M133 -182h-50v826h50v-222q28 22 62 36t78 14q86 0 130 -58.5t44 -184.5q0 -119 -45.5 -179t-153.5 -60q-29 0 -57 4t-58 10v-186zM133 47q30 -7 61 -11t55 -4q43 0 71.5 13.5t45.5 39t23.5 62t6.5 81.5q0 105 -31 153t-98 48q-35 0 -69.5 -13.5t-64.5 -35.5v-333z" />
    <glyph glyph-name="ydieresis" unicode="&#xff;" horiz-adv-x="433" 
d="M181 0q-18 36 -39.5 92.5t-43 120.5t-40.5 129.5t-32 119.5h51q29 -113 61 -214.5t75 -207.5h4q43 108 79.5 216t62.5 206h49q-20 -75 -46.5 -157t-57 -165.5t-65 -165.5t-70.5 -156h-49q21 44 41 89t40 93h-20zM273 612h63v-70h-63v70zM98 612h63v-70h-63v70z" />
    <glyph glyph-name="dotlessi" unicode="&#x131;" horiz-adv-x="216" 
d="M83 462h50v-462h-50v462z" />
    <glyph glyph-name="OE" unicode="&#x152;" horiz-adv-x="782" 
d="M48 325q0 87 17.5 147.5t53 98.5t89 55.5t125.5 17.5h403v-46h-285v-244h235v-46h-235v-262h285v-46h-416q-137 0 -204.5 77.5t-67.5 247.5zM399 46v552h-67q-56 0 -99.5 -12t-73 -42.5t-44.5 -83t-15 -132.5t14.5 -134t43 -87t69.5 -47t95 -14h77z" />
    <glyph glyph-name="oe" unicode="&#x153;" horiz-adv-x="793" 
d="M51 231q0 53 11 97.5t34.5 76.5t60.5 49.5t90 17.5q67 0 108.5 -27t61.5 -73h4q20 47 59.5 73.5t96.5 26.5q44 0 75.5 -17t51.5 -45.5t29.5 -67.5t9.5 -82q0 -24 -3 -46h-296q1 -40 9 -73t25 -57t44 -37t66 -13q37 0 69 10t63 26l19 -40q-29 -15 -67.5 -27.5t-85.5 -12.5
q-59 0 -101.5 24t-64.5 73h-4q-20 -45 -61.5 -71t-107.5 -26q-53 0 -90 17.5t-60.5 49.5t-34.5 76.5t-11 97.5zM693 255q0 32 -5.5 63t-18.5 55.5t-35.5 39.5t-56.5 15q-32 0 -56 -13t-40.5 -36t-26 -54.5t-10.5 -69.5h249zM247 34q41 0 69 14.5t45 41t24.5 62.5t7.5 79
t-7.5 79t-24.5 62t-45 41t-69 15t-68.5 -15t-44.5 -41t-24.5 -62t-7.5 -79t7.5 -79t24.5 -62.5t44.5 -41t68.5 -14.5z" />
    <glyph glyph-name="Scaron" unicode="&#x160;" horiz-adv-x="477" 
d="M47 58q34 -8 79 -15t87 -7q38 0 69.5 7t54.5 23t36 41t13 61q0 37 -13.5 60t-36 38t-52.5 25l-63 21q-40 13 -73 27.5t-57 34.5t-37 47t-13 66q0 78 54.5 122.5t157.5 44.5q38 0 81 -6t81 -15l-10 -46q-34 8 -75 14.5t-78 6.5q-33 0 -62 -6.5t-50.5 -20.5t-33.5 -36.5
t-12 -54.5q0 -35 14.5 -57t37.5 -37t53 -24.5t62 -19.5q36 -12 68.5 -25.5t57 -33.5t38.5 -49.5t14 -73.5q0 -88 -58 -134t-170 -46q-45 0 -90.5 6.5t-83.5 14.5zM102 817l22 19l105 -96l105 96l22 -19l-105 -120h-44z" />
    <glyph glyph-name="scaron" unicode="&#x161;" horiz-adv-x="409" 
d="M50 54q27 -7 66.5 -13.5t75.5 -6.5q27 0 50 4.5t40 15t26.5 27.5t9.5 41q0 19 -6.5 32.5t-20 24t-33.5 19t-48 16.5t-57 17t-52.5 23.5t-38.5 36.5t-15 57q0 60 45.5 92t122.5 32q30 0 66 -4.5t62 -11.5l-9 -43q-24 5 -58.5 10t-63.5 5q-57 0 -85.5 -21t-28.5 -58
q0 -19 7.5 -31.5t23.5 -22.5t40 -18t56 -17q35 -11 62 -22t45 -26.5t27.5 -36t9.5 -49.5q0 -69 -48 -102.5t-133 -33.5q-38 0 -75.5 6t-72.5 14zM77 641l22 19l105 -96l105 96l22 -19l-105 -120h-44z" />
    <glyph glyph-name="Ydieresis" unicode="&#x178;" horiz-adv-x="524" 
d="M236 238q-32 49 -61 96.5t-55.5 97t-51.5 102t-49 110.5h56q42 -102 87.5 -188t98.5 -171h4q52 85 97 171t89 188h54q-25 -58 -50 -110.5t-51.5 -102t-55.5 -97t-60 -96.5v-238h-52v238zM319 788h63v-70h-63v70zM144 788h63v-70h-63v70z" />
    <glyph glyph-name="Zcaron" unicode="&#x17d;" 
d="M33 39l383 559h-370v46h436v-39l-383 -559h384v-46h-450v39zM137 817l22 19l105 -96l105 96l22 -19l-105 -120h-44z" />
    <glyph glyph-name="zcaron" unicode="&#x17e;" horiz-adv-x="397" 
d="M36 35l262 385h-255v42h315v-35l-262 -385h264v-42h-324v35zM74 641l22 19l105 -96l105 96l22 -19l-105 -120h-44z" />
    <glyph glyph-name="florin" unicode="&#x192;" horiz-adv-x="324" 
d="M117 421h-66v35l66 4v66q0 63 29.5 95.5t97.5 32.5q30 0 63 -6l-5 -43q-15 2 -30.5 3.5t-27.5 1.5q-38 0 -57.5 -18t-19.5 -66v-64h106v-41h-106v-487q0 -126 -115 -126q-23 0 -42.5 4t-36.5 10l11 41q19 -6 35 -8.5t30 -2.5q37 0 52.5 19.5t15.5 63.5v486z" />
    <glyph glyph-name="uni0237" unicode="&#x237;" horiz-adv-x="216" 
d="M83 462h50v-442q0 -62 -12.5 -110.5t-33.5 -91.5h-50q21 43 33.5 91.5t12.5 110.5v442z" />
    <glyph glyph-name="circumflex" unicode="&#x2c6;" horiz-adv-x="350" 
d="M48 534l105 120h44l105 -120l-22 -19l-105 96l-105 -96z" />
    <glyph glyph-name="tilde" unicode="&#x2dc;" horiz-adv-x="350" 
d="M27 559q11 35 29.5 55t47.5 20q19 0 37.5 -7.5t36.5 -17t35 -17t33 -7.5q19 0 30.5 11.5t19.5 31.5l27 -10q-11 -35 -29.5 -55t-47.5 -20q-19 0 -37.5 7.5t-36.5 17t-35 17t-33 7.5q-19 0 -30.5 -11.5t-19.5 -31.5z" />
    <glyph glyph-name="endash" unicode="&#x2013;" horiz-adv-x="689" 
d="M100 267h489v-42h-489v42z" />
    <glyph glyph-name="emdash" unicode="&#x2014;" horiz-adv-x="772" 
d="M46 267h680v-42h-680v42z" />
    <glyph glyph-name="quoteleft" unicode="&#x2018;" horiz-adv-x="200" 
d="M71 466q-1 9 -1.5 18.5t-0.5 19.5q0 38 7 76t24 70l27 -4q-4 -23 -6 -47t-2 -48q0 -20 1 -41t5 -42l-54 -2v0z" />
    <glyph glyph-name="quoteright" unicode="&#x2019;" horiz-adv-x="200" 
d="M73 471q4 23 6 47t2 48q0 20 -1 41t-5 42l54 2q1 -9 1.5 -18.5t0.5 -19.5q0 -38 -7 -76t-24 -70l-27 4v0z" />
    <glyph glyph-name="quotesinglbase" unicode="&#x201a;" horiz-adv-x="200" 
d="M73 -102q4 23 6 47t2 48q0 20 -1 41t-5 42l54 2q1 -9 1.5 -18.5t0.5 -19.5q0 -38 -7 -76t-24 -70l-27 4v0z" />
    <glyph glyph-name="quotedblleft" unicode="&#x201c;" horiz-adv-x="317" 
d="M71 466q-1 9 -1.5 18.5t-0.5 19.5q0 38 7 76t24 70l27 -4q-4 -23 -6 -47t-2 -48q0 -20 1 -41t5 -42zM188 466q-1 9 -1.5 18.5t-0.5 19.5q0 38 7 76t24 70l27 -4q-4 -23 -6 -47t-2 -48q0 -20 1 -41t5 -42z" />
    <glyph glyph-name="quotedblright" unicode="&#x201d;" horiz-adv-x="317" 
d="M73 471q4 23 6 47t2 48q0 20 -1 41t-5 42l54 2q1 -9 1.5 -18.5t0.5 -19.5q0 -38 -7 -76t-24 -70zM190 471q4 23 6 47t2 48q0 20 -1 41t-5 42l54 2q1 -9 1.5 -18.5t0.5 -19.5q0 -38 -7 -76t-24 -70z" />
    <glyph glyph-name="quotedblbase" unicode="&#x201e;" horiz-adv-x="317" 
d="M73 -102q4 23 6 47t2 48q0 20 -1 41t-5 42l54 2q1 -9 1.5 -18.5t0.5 -19.5q0 -38 -7 -76t-24 -70zM190 -102q4 23 6 47t2 48q0 20 -1 41t-5 42l54 2q1 -9 1.5 -18.5t0.5 -19.5q0 -38 -7 -76t-24 -70z" />
    <glyph glyph-name="dagger" unicode="&#x2020;" horiz-adv-x="474" 
d="M216 436h-156v40h156v168h42v-168h156v-40h-156v-436h-42v436z" />
    <glyph glyph-name="daggerdbl" unicode="&#x2021;" horiz-adv-x="474" 
d="M60 208h156v228h-156v40h156v168h42v-168h156v-40h-156v-228h156v-40h-156v-168h-42v168h-156v40z" />
    <glyph glyph-name="bullet" unicode="&#x2022;" horiz-adv-x="396" 
d="M198 231q-48 0 -73 25t-25 70t25 70t73 25t73 -25t25 -70t-25 -70t-73 -25z" />
    <glyph glyph-name="ellipsis" unicode="&#x2026;" horiz-adv-x="636" 
d="M286 74h64v-74h-64v74zM474 74h64v-74h-64v74zM98 74h64v-74h-64v74z" />
    <glyph glyph-name="perthousand" unicode="&#x2030;" horiz-adv-x="1018" 
d="M704 140q0 72 34 111t100 39t100 -39t34 -111t-34 -111t-100 -39t-100 39t-34 111zM749 140q0 -54 20.5 -82.5t68.5 -28.5t68.5 28.5t20.5 82.5t-20.5 82.5t-68.5 28.5t-68.5 -28.5t-20.5 -82.5zM180 354q-66 0 -100 39t-34 111t34 111t100 39t100 -39t34 -111t-34 -111
t-100 -39zM180 393q48 0 68.5 28.5t20.5 82.5t-20.5 82.5t-68.5 28.5t-68.5 -28.5t-20.5 -82.5t20.5 -82.5t68.5 -28.5zM380 140q0 72 34 111t100 39t100 -39t34 -111t-34 -111t-100 -39t-100 39t-34 111zM425 140q0 -54 20.5 -82.5t68.5 -28.5t68.5 28.5t20.5 82.5
t-20.5 82.5t-68.5 28.5t-68.5 -28.5t-20.5 -82.5zM511 644h49l-377 -644h-49z" />
    <glyph glyph-name="guilsinglleft" unicode="&#x2039;" horiz-adv-x="300" 
d="M51 231q0 14 7.5 31.5t25.5 37.5q21 24 56.5 57.5t72.5 67.5l30 -31q-42 -39 -73 -69t-48 -49q-13 -14 -18 -24t-5 -21t5 -21t18 -24q17 -19 48 -49t73 -69l-30 -31q-37 34 -72.5 67.5t-56.5 57.5q-18 20 -25.5 37.5t-7.5 31.5z" />
    <glyph glyph-name="guilsinglright" unicode="&#x203a;" horiz-adv-x="300" 
d="M244 231q0 -14 -7.5 -31.5t-25.5 -37.5q-21 -24 -56.5 -57.5t-72.5 -67.5l-30 31q42 39 73 69t48 49q13 14 18 24t5 21t-5 21t-18 24q-17 19 -48 49t-73 69l30 31q37 -34 72.5 -67.5t56.5 -57.5q18 -20 25.5 -37.5t7.5 -31.5z" />
    <glyph glyph-name="Euro" unicode="&#x20ac;" horiz-adv-x="577" 
d="M23 279h74q-2 23 -1.5 47t2.5 49h-75v41h80q6 48 22.5 91t47.5 75.5t78.5 52t116.5 19.5q39 0 79.5 -5.5t73.5 -13.5l-9 -45q-29 6 -70 12t-77 6q-54 0 -91 -15t-61.5 -41.5t-37.5 -61.5t-19 -74h270v-41h-275q-2 -23 -2.5 -47t1.5 -49h276v-41h-272q4 -38 16 -74
t35 -64.5t60 -46t91 -17.5q45 0 89 11t83 28l18 -42q-44 -22 -95 -32.5t-97 -10.5q-64 0 -109.5 19.5t-75.5 53t-46 78.5t-22 97h-78v41z" />
    <glyph glyph-name="trademark" unicode="&#x2122;" horiz-adv-x="728" 
d="M335 286q1 45 2.5 94t3.5 96.5t4 91t5 76.5h53l100 -247h4l100 247h55q3 -33 5 -76.5t4 -91t3.5 -96.5t2.5 -94h-39q-2 75 -4 152.5t-5 150.5h-4l-97 -239h-45l-97 239h-4q-3 -73 -5 -150.5t-4 -152.5h-38zM146 609h-112v35h263v-35h-112v-323h-39v323z" />
    </font>
</defs>
</svg>
